<svg width="15" height="21" viewBox="0 0 15 21" fill="none" xmlns="http://www.w3.org/2000/svg">
<path d="M7.5 1C11.0939 1 14 3.90614 14 7.5C14 8.71133 13.5936 10.1058 12.9502 11.542C12.3097 12.9716 11.4515 14.4066 10.5859 15.6895C9.72135 16.9709 8.85488 18.091 8.20508 18.8916C7.92337 19.2387 7.68198 19.5246 7.5 19.7373C7.31802 19.5246 7.07663 19.2387 6.79492 18.8916C6.14512 18.091 5.27865 16.9709 4.41406 15.6895C3.54854 14.4066 2.69028 12.9716 2.0498 11.542C1.40639 10.1058 1 8.71133 1 7.5C1 3.90614 3.90614 1 7.5 1ZM7.5 2C4.46386 2 2 4.46386 2 7.5C2 9.0619 2.78788 10.9614 3.7832 12.751C4.78999 14.5611 6.05636 16.3408 7.10547 17.6875L7.49805 18.1904L7.89258 17.6895C8.96258 16.3318 10.2301 14.5588 11.2324 12.7539C12.2239 10.9684 13 9.07543 13 7.5C13 4.46386 10.5361 2 7.5 2ZM7.5 5.5C8.60457 5.5 9.5 6.39543 9.5 7.5C9.5 8.60457 8.60457 9.5 7.5 9.5C6.39543 9.5 5.5 8.60457 5.5 7.5C5.5 6.39543 6.39543 5.5 7.5 5.5Z" fill="#FA58A6" stroke="#F75016"/>
</svg>
