<svg width="19" height="19" viewBox="0 0 19 19" fill="none" xmlns="http://www.w3.org/2000/svg">
<path d="M1.5 1H5C5.27386 1 5.5 1.22614 5.5 1.5C5.5 2.80065 5.70786 4.05078 6.09277 5.21875V5.21973C6.14937 5.39982 6.10912 5.59383 5.9668 5.73633L3.50977 8.19336L3.6748 8.5166C5.16318 11.4416 7.55996 13.8278 10.4824 15.3252L10.8057 15.4912L13.2539 13.043C13.3641 12.9383 13.4926 12.8896 13.6201 12.8896C13.654 12.8897 13.6817 12.8913 13.7041 12.8945C13.7264 12.8977 13.7389 12.9022 13.7441 12.9043L13.7588 12.9102L13.7734 12.915C14.9438 13.3016 16.2067 13.5098 17.5 13.5098C17.7738 13.5098 17.9999 13.736 18 14.0098V17.5C18 17.7739 17.7739 18 17.5 18C8.38614 18 1 10.6139 1 1.5C1 1.22614 1.22614 1 1.5 1ZM2.03125 2.53418C2.12422 3.89757 2.3925 5.21031 2.81641 6.45117L3.07617 7.21094L5.05273 5.23438L4.9707 4.95117C4.74116 4.15734 4.5968 3.32282 4.53906 2.4668L4.50781 2H1.99512L2.03125 2.53418ZM17 14.5029L16.5342 14.4707C15.6885 14.413 14.8525 14.2695 14.0361 14.0391L13.7549 13.96L13.5479 14.165L12.3477 15.3545L11.7695 15.9287L12.543 16.1846C13.7908 16.5971 15.1021 16.866 16.4658 16.959L17 16.9951V14.5029Z" fill="#FA58A6" stroke="#F75016"/>
</svg>
