<svg width="24" height="24" viewBox="0 0 24 24" fill="none" xmlns="http://www.w3.org/2000/svg">
<path d="M12.0125 0.5C15.2642 0.500001 15.6638 0.514153 16.9343 0.571289C18.1642 0.626804 18.9834 0.819369 19.6892 1.09473L19.6921 1.0957C20.4151 1.37363 21.023 1.754 21.6404 2.36719C22.2523 2.9751 22.6245 3.58612 22.9089 4.31445V4.31543C23.1809 5.02482 23.3779 5.84558 23.4333 7.07422C23.4904 8.34007 23.4998 8.74404 23.4998 12C23.4998 15.2543 23.4856 15.6542 23.4285 16.9258C23.373 18.1565 23.1803 18.9763 22.905 19.6826L22.9041 19.6846C22.6262 20.4083 22.2466 21.0169 21.6335 21.6348C21.0251 22.248 20.4116 22.6205 19.6824 22.9053C18.9744 23.1765 18.1549 23.3734 16.9294 23.4287C15.6638 23.4858 15.2643 23.5 12.0076 23.5C9.56811 23.5 8.73331 23.492 7.93237 23.4639L7.08472 23.4287C5.8548 23.3732 5.03569 23.1807 4.32983 22.9053L4.32788 22.9043L4.0603 22.7949C3.44879 22.5277 2.91402 22.1724 2.38062 21.6348L2.37866 21.6328L2.15991 21.4033C1.74365 20.9448 1.45207 20.4768 1.22046 19.9502L1.10913 19.6826C0.837581 18.9737 0.641062 18.1532 0.585693 16.9258C0.528585 15.6591 0.514404 15.2592 0.514404 12C0.514404 8.74568 0.52858 8.34576 0.585693 7.07422C0.641115 5.84561 0.838154 5.0248 1.11011 4.31543C1.38793 3.59178 1.76768 2.98305 2.38062 2.36523C2.98877 1.75231 3.59952 1.37938 4.33276 1.09473C5.04152 0.822773 5.8621 0.626698 7.0896 0.571289C8.35544 0.514149 8.75529 0.5 12.0125 0.5ZM12.0027 1.64746C8.7928 1.64746 8.40447 1.66157 7.13062 1.71973C5.90863 1.77509 5.21704 1.98388 4.74585 2.16602L4.73901 2.16895C4.11976 2.4179 3.66288 2.70867 3.18921 3.18262C2.71851 3.65368 2.41581 4.1154 2.17456 4.7373C1.99168 5.20559 1.7836 5.89821 1.72827 7.125C1.67015 8.3996 1.65601 8.78819 1.65601 12C1.65601 14.4093 1.66355 15.2297 1.69214 16.0273L1.72827 16.875C1.78362 18.0974 1.99161 18.7894 2.17358 19.2607L2.17651 19.2676C2.42523 19.887 2.71574 20.3436 3.18921 20.8174C3.66036 21.2888 4.12259 21.5924 4.74487 21.834V21.833C5.21297 22.016 5.90498 22.225 7.13062 22.2803C8.40447 22.3384 8.7928 22.3525 12.0027 22.3525C15.212 22.3525 15.6003 22.3384 16.8738 22.2803C18.0962 22.2249 18.7883 22.0162 19.2595 21.834L19.2654 21.8311C19.8848 21.5821 20.3414 21.2914 20.8152 20.8174C21.2863 20.346 21.5885 19.8833 21.8298 19.2607C22.0126 18.7924 22.2219 18.0998 22.2771 16.874V16.873C22.3303 15.6006 22.3494 15.2134 22.3494 12C22.3494 9.59072 22.3408 8.77026 22.3123 7.97266L22.2771 7.125C22.2217 5.90247 22.0128 5.21063 21.8308 4.73926L21.8279 4.73242C21.5791 4.11299 21.2887 3.65648 20.8152 3.18262C20.344 2.71118 19.8818 2.40756 19.2595 2.16602H19.2585C18.7904 1.98319 18.0983 1.77496 16.8738 1.71973C15.6003 1.66159 15.212 1.64746 12.0027 1.64746Z" fill="#F75016" stroke="#F75016"/>
<path d="M12.002 6.33203C15.1342 6.33203 17.6669 8.86521 17.667 12C17.667 15.1255 15.1292 17.668 12.002 17.668C8.87441 17.6678 6.33789 15.1345 6.33789 12C6.33798 8.86988 8.87018 6.33223 12.002 6.33203ZM12.002 7.49902C9.51731 7.49922 7.50302 9.51457 7.50293 12C7.50293 14.4855 9.51726 16.5018 12.002 16.502C14.4868 16.502 16.502 14.4856 16.502 12C16.5019 9.51445 14.4868 7.49902 12.002 7.49902Z" fill="#F75016" stroke="#F75016"/>
<path d="M18.407 4.65039C18.9259 4.65047 19.3474 5.07178 19.3474 5.5918C19.3473 6.1117 18.9259 6.53215 18.407 6.53223C17.888 6.53223 17.4667 6.11175 17.4666 5.5918C17.4666 5.07173 17.888 4.65039 18.407 4.65039Z" fill="#F75016" stroke="#F75016"/>
<path d="M11.998 0.5C15.2498 0.500001 15.6494 0.514153 16.9199 0.571289C18.1498 0.626804 18.969 0.819369 19.6748 1.09473L19.6777 1.0957C20.4035 1.37469 21.0141 1.75008 21.6182 2.36328L21.6221 2.36719C22.234 2.97507 22.6052 3.58616 22.8896 4.31445V4.31543C23.1616 5.02482 23.3586 5.84557 23.4141 7.07422C23.4712 8.34088 23.4854 8.74083 23.4854 12C23.4854 15.2543 23.4712 15.6542 23.4141 16.9258C23.3585 18.1565 23.1659 18.9763 22.8906 19.6826L22.8896 19.6846C22.6114 20.4094 22.2314 21.0222 21.6201 21.6338L21.6191 21.6348C21.0107 22.248 20.3972 22.6205 19.668 22.9053C18.96 23.1765 18.1405 23.3734 16.915 23.4287C15.6494 23.4858 15.2499 23.5 11.9932 23.5C9.55371 23.5 8.71891 23.492 7.91797 23.4639L7.07031 23.4287C5.8404 23.3732 5.02129 23.1807 4.31543 22.9053L4.31348 22.9043L4.04688 22.7949C3.43589 22.5272 2.90023 22.1691 2.36523 21.6338L2.36426 21.6328L2.14551 21.4033C1.72924 20.9448 1.43766 20.4768 1.20605 19.9502L1.09473 19.6826C0.823176 18.9737 0.626658 18.1532 0.571289 16.9258C0.514181 15.6591 0.5 15.2592 0.5 12C0.5 8.74083 0.514181 8.34088 0.571289 7.07422C0.626726 5.84528 0.823781 5.02517 1.09961 4.31738L1.10059 4.31543C1.37841 3.59176 1.75813 2.98307 2.37109 2.36523C2.97955 1.75201 3.59106 1.37948 4.32031 1.09473L4.31934 1.09375C5.02782 0.822031 5.84837 0.626668 7.0752 0.571289C8.34104 0.514149 8.74088 0.5 11.998 0.5ZM12.0117 1.64746C8.80243 1.64746 8.41412 1.66159 7.14062 1.71973C5.91822 1.7751 5.22611 1.98384 4.75488 2.16602L4.74902 2.16895C4.12959 2.41793 3.67297 2.70858 3.19922 3.18262C2.72814 3.65401 2.42494 4.11577 2.18359 4.73828C2.00081 5.20655 1.79259 5.89911 1.7373 7.125C1.67918 8.39961 1.66504 8.79301 1.66504 12C1.66504 15.2023 1.6744 15.5993 1.7373 16.873V16.874C1.79263 18.0969 2.00158 18.7893 2.18359 19.2607L2.18652 19.2676C2.43526 19.887 2.72567 20.3435 3.19922 20.8174C3.67037 21.2888 4.1326 21.5924 4.75488 21.834V21.833C5.22301 22.0159 5.91513 22.225 7.14062 22.2803C8.41412 22.3384 8.80243 22.3525 12.0117 22.3525C15.2216 22.3525 15.6099 22.3384 16.8838 22.2803C18.1058 22.2249 18.7974 22.0161 19.2686 21.834L19.2754 21.8311C19.8946 21.5821 20.3515 21.2913 20.8252 20.8174C21.2959 20.3463 21.5986 19.8846 21.8398 19.2627C22.0227 18.7944 22.2308 18.1018 22.2861 16.875C22.3443 15.6004 22.3584 15.2118 22.3584 12C22.3584 8.78819 22.3443 8.3996 22.2861 7.125C22.2308 5.90261 22.0228 5.21062 21.8408 4.73926L21.8379 4.73242L21.7422 4.50781C21.5135 3.99884 21.2395 3.59729 20.8252 3.18262C20.354 2.71118 19.8918 2.40756 19.2695 2.16602H19.2686C18.8005 1.98317 18.1084 1.77499 16.8838 1.71973C15.6099 1.66157 15.2216 1.64746 12.0117 1.64746Z" fill="#F75016" stroke="#F75016"/>
</svg>
