<svg width="24" height="24" viewBox="0 0 24 24" fill="none" xmlns="http://www.w3.org/2000/svg">
<g clip-path="url(#clip0_576_96)">
<path d="M11.9951 0.5C18.1446 0.500032 23.1678 5.32985 23.4844 11.4131L23.5 12.0059C23.4995 18.3537 18.3529 23.5 12.0049 23.5C11.0364 23.5 10.1063 23.3801 9.21289 23.1582C9.66805 22.3676 10.1986 21.3328 10.4258 20.4414L10.4248 20.4404C10.4996 20.1563 10.6872 19.4465 10.8555 18.8066C10.8829 18.7022 10.9096 18.5995 10.9355 18.501C11.1156 18.6443 11.3139 18.7724 11.5234 18.8809C12.0771 19.1675 12.7454 19.3467 13.4365 19.3467C17.4152 19.3466 20.1562 15.6968 20.1562 11.3828C20.1562 7.10466 16.6595 3.95219 12.2617 3.95215C9.5534 3.95215 7.43876 4.86379 6 6.31055C4.56507 7.75346 3.83398 9.69773 3.83398 11.709C3.83402 12.6679 4.08491 13.7299 4.5332 14.6504C4.95071 15.5076 5.56546 16.2931 6.36426 16.7354L6.52637 16.8193H6.52734C6.67357 16.8893 6.92675 16.9816 7.19336 16.8779C7.48724 16.7636 7.59292 16.4972 7.63281 16.3242L7.63477 16.3252C7.65353 16.2454 7.71352 16.0036 7.78223 15.7275C7.84915 15.4586 7.92342 15.1608 7.96875 14.9697C7.99543 14.863 8.01163 14.7284 7.98242 14.5791C7.95286 14.4284 7.88307 14.2979 7.79004 14.1855H7.79102C7.37975 13.6837 7.01562 12.6938 7.01562 11.7676C7.01583 9.37704 8.81677 7.06557 11.9355 7.06543C13.2963 7.06543 14.4209 7.52566 15.2021 8.28516C15.9822 9.04362 16.4512 10.13 16.4512 11.4424C16.4511 12.9819 16.0606 14.2479 15.4551 15.1143C14.8531 15.9754 14.0517 16.4316 13.1797 16.4316C12.2908 16.4316 11.6871 15.7209 11.8887 14.877C12.0574 14.1779 12.2967 13.4668 12.5098 12.751C12.7141 12.0645 12.8994 11.3567 12.8994 10.7607C12.8994 10.2185 12.7542 9.67455 12.4111 9.25586C12.0571 8.82376 11.5308 8.57335 10.8799 8.57324C9.27818 8.57324 8.20801 10.1799 8.20801 11.9854C8.20803 12.5687 8.30561 13.0593 8.4043 13.4062C8.45184 13.5733 8.49999 13.7086 8.53809 13.8057C8.53377 13.824 8.53038 13.8441 8.52539 13.8652C8.49258 14.0045 8.44492 14.2044 8.3877 14.4473C8.27324 14.933 8.11869 15.5906 7.95703 16.2773C7.63385 17.6502 7.28271 19.1421 7.17383 19.6123V19.6143C6.98397 20.4452 6.98774 21.4985 7.04688 22.376C3.17418 20.5267 0.500024 16.5741 0.5 11.9951C0.5 5.64656 5.63723 0.5 11.9951 0.5Z" fill="#F75016" stroke="#F75016"/>
</g>
<defs>
<clipPath id="clip0_576_96">
<rect width="24" height="24" rx="6" fill="white"/>
</clipPath>
</defs>
</svg>
