<svg width="24" height="24" viewBox="0 0 24 24" fill="none" xmlns="http://www.w3.org/2000/svg">
<path d="M14.8604 1.1001C15.6004 1.1001 16.3641 1.16686 16.9473 1.23486C17.1603 1.2597 17.3479 1.28665 17.5 1.30811V3.86279H16.2305C15.2489 3.86279 14.5241 4.17612 14.0547 4.7251C13.5976 5.25961 13.4453 5.94499 13.4453 6.57666V9.73291H17.2539L16.7842 12.8286H13.4453V22.7925C12.8911 22.8623 12.327 22.8999 11.7539 22.8999C11.1806 22.8999 10.6159 22.8623 10.0615 22.7925V12.8286H6.5V9.73291H10.0615V6.11182C10.0615 4.43528 10.554 3.19576 11.3643 2.37646C12.1745 1.55728 13.36 1.1001 14.8604 1.1001Z" fill="#F75016" stroke="#F75016"/>
</svg>
