<svg width="24" height="24" viewBox="0 0 24 24" fill="none" xmlns="http://www.w3.org/2000/svg">
<path d="M13.5259 4.0708C15.2015 2.43791 17.8392 2.52167 19.4282 4.26318L19.6187 4.47217L19.897 4.4165C20.4965 4.29548 21.0829 4.11242 21.6489 3.87744C21.3237 4.32569 20.9186 4.70846 20.4507 4.99951L20.7759 5.92041C21.1776 5.87044 21.5755 5.79263 21.9673 5.69287C21.5958 6.09002 21.1908 6.45419 20.7563 6.78174L20.5464 6.93994L20.5571 7.20264C20.5658 7.40099 20.5659 7.59164 20.5659 7.8042V7.80518C20.5749 14.0107 16.0221 21.1 7.76807 21.1001C5.9719 21.1001 4.19927 20.7029 2.56689 19.9478C4.48026 19.7762 6.31386 19.0332 7.83447 17.7915L8.88818 16.9312L7.52783 16.9048C6.01029 16.8757 4.63961 15.9913 3.9292 14.6235C4.42473 14.634 4.91974 14.5691 5.39893 14.4282L5.35791 13.4585C3.66662 13.1153 2.37126 11.7115 2.07275 9.95947C2.56748 10.138 3.08872 10.2398 3.61572 10.2534L5.2876 10.2964L3.91357 9.34229C2.28764 8.21342 1.64778 6.07801 2.30908 4.21436C4.75247 6.98676 8.15575 8.65581 11.7974 8.85107L12.4575 8.88623L12.312 8.2417C11.9702 6.72917 12.4385 5.13972 13.5269 4.07178L13.5259 4.0708Z" fill="#F75016" stroke="#F75016"/>
</svg>
