<svg width="285" height="40" viewBox="0 0 285 40" fill="none" xmlns="http://www.w3.org/2000/svg">
<path d="M181.718 0.697709C161.521 1.32266 141.338 2.37085 121.187 3.84229C102.902 4.16634 84.6128 4.49039 66.3273 4.81443C46.2628 5.17155 26.1984 5.52535 6.13718 5.88247C4.19621 5.91553 1.1905 7.34068 0.892908 9.49328C0.565554 11.8674 3.50182 12.2642 5.15512 12.2378C18.1931 12.0063 31.231 11.7748 44.269 11.5434C38.8428 12.2345 33.4233 12.952 28.0038 13.7026C26.1256 13.9638 23.5035 14.8434 22.905 16.8968C22.3693 18.7286 24.0424 20.0281 25.8181 20.0612C55.928 20.577 86.0413 21.0962 116.151 21.612C122.559 21.7211 128.968 21.8335 135.376 21.9426C126.157 22.9512 116.951 24.1118 107.772 25.4245C93.3786 27.4878 79.0445 29.9347 64.7732 32.7222C63.2323 33.0231 61.0467 34.3722 60.8119 36.1015C60.5837 37.7548 62.4057 38.8361 63.8672 38.8493C98.1104 39.1469 132.354 39.4478 166.597 39.7454C176.252 39.8281 185.904 39.914 195.559 39.9967C197.771 40.0165 200.609 39.385 201.723 37.2126C202.718 35.2683 200.853 33.6513 198.952 33.6348C165.988 33.3471 133.025 33.0595 100.061 32.7718C100.981 32.6329 101.896 32.4907 102.816 32.3551C115.272 30.5101 127.771 28.946 140.296 27.6664C165.36 25.1071 190.537 23.6819 215.73 23.4009C216.844 23.3876 217.972 23.381 219.096 23.3744C231.866 23.5926 244.633 23.8142 257.403 24.0324C259.612 24.0688 262.459 23.4075 263.566 21.2483C264.585 19.2643 262.68 17.7466 260.795 17.6705C247.764 17.1481 234.719 16.9232 221.678 16.9993C204.606 16.705 187.534 16.414 170.462 16.1197C140.352 15.6039 110.239 15.0847 80.1291 14.5689C77.702 14.5259 75.2717 14.4863 72.8446 14.4433C88.6105 12.7668 104.403 11.3483 120.215 10.1943C153.179 9.60901 186.145 9.02705 219.109 8.44178C239.174 8.08467 259.238 7.73086 279.299 7.37374C281.141 7.34068 283.846 6.07756 284.398 4.17956C284.94 2.32456 283.254 1.08127 281.485 1.01514C248.243 -0.221528 214.963 -0.330646 181.718 0.697709Z" fill="#77685B"/>
</svg>
