<svg width="1440" height="297" viewBox="0 0 1440 297" fill="none" xmlns="http://www.w3.org/2000/svg">
<g opacity="0.15">
<rect width="1484.46" height="103.717" transform="matrix(0.991449 0.130492 -0.13056 0.99144 0.979248 0)" fill="#F75016"/>
<g clip-path="url(#clip0_218_1156)">
<path d="M136.798 55.4201C136.585 55.396 136.368 55.3968 136.148 55.4253C135.469 55.5132 134.886 55.8511 134.417 56.3392C125.351 58.0268 116.765 59.5534 107.785 61.1941C104.578 61.7799 102.259 64.4984 102.794 67.3757C103.329 70.2529 106.47 71.9789 109.677 71.3766L109.677 71.3767C118.517 69.7171 126.99 68.2154 135.927 66.585C135.968 66.6071 136.011 66.6267 136.052 66.6472C135.82 66.8478 135.656 67.1305 135.613 67.4592C135.519 68.169 136.019 68.8202 136.729 68.9136C137.438 69.007 138.09 68.5073 138.183 67.7975C138.227 67.4629 138.139 67.1423 137.959 66.8861C138.996 66.6393 139.785 65.7974 140.252 64.7532C140.76 63.6178 140.944 62.1924 140.742 60.6824C140.54 59.1721 139.987 57.8431 139.199 56.8772C138.608 56.1528 137.848 55.6127 137.009 55.4519C136.939 55.4386 136.869 55.4279 136.798 55.4198L136.798 55.4201ZM136.646 56.872C136.681 56.8762 136.717 56.8817 136.752 56.8888C137.18 56.9732 137.633 57.2679 138.068 57.8003C138.647 58.51 139.125 59.6072 139.295 60.8763C139.439 61.9511 139.336 62.9617 139.075 63.7512L134.987 63.2131C134.778 62.6965 134.619 62.1125 134.535 61.4864C134.365 60.2173 134.538 59.0367 134.91 58.2053C135.282 57.3739 135.795 56.943 136.335 56.8732C136.438 56.86 136.543 56.8595 136.646 56.8718L136.646 56.872ZM133.497 57.8005C133.051 58.9028 132.896 60.2535 133.087 61.6803C133.147 62.1259 133.239 62.5665 133.365 62.9981L121.652 61.4564C116.452 62.4065 111.49 63.3109 108.463 63.8646C106.587 64.2075 105.445 65.627 105.673 66.8537C105.902 68.0805 107.484 69.0094 109.356 68.6583C114.76 67.6447 125.428 65.6997 133.809 64.17C134.041 64.6581 134.317 65.101 134.631 65.4855C134.635 65.4907 134.64 65.4961 134.644 65.5015C126.177 67.0467 115.133 69.0593 109.625 70.0924C107.135 70.5596 104.649 69.3323 104.237 67.1201C103.826 64.9079 105.709 62.8838 108.199 62.4286C113.694 61.4238 125.009 59.3619 133.497 57.8005ZM136.273 72.3659C134.315 77.0926 132.58 76.1721 132.203 79.0402C131.974 80.7721 133.195 82.3628 134.927 82.5907C136.659 82.8187 138.25 81.5981 138.478 79.8661C138.885 76.7702 136.953 77.5284 136.273 72.3659Z" fill="#FEFAF9"/>
</g>
<path d="M163.708 69.7759C163.083 69.6937 162.506 69.728 161.976 69.879C161.453 70.0254 160.988 70.2795 160.583 70.6413C160.184 70.9985 159.854 71.4515 159.593 72.0002C159.331 72.5489 159.154 73.1821 159.059 73.8999C158.934 74.85 158.972 75.6956 159.174 76.4366C159.382 77.1731 159.755 77.7712 160.293 78.2308C160.837 78.6911 161.553 78.9796 162.441 79.0965C162.947 79.1631 163.427 79.1844 163.882 79.1602C164.343 79.1315 164.794 79.0805 165.234 79.0072L165.083 80.1535C164.65 80.2541 164.201 80.3106 163.737 80.3231C163.272 80.3407 162.728 80.3084 162.103 80.2262C160.951 80.0746 160.02 79.7103 159.308 79.1333C158.601 78.5518 158.112 77.7992 157.84 76.8756C157.573 75.9526 157.517 74.8973 157.674 73.7096C157.786 72.8525 158.008 72.0858 158.339 71.4096C158.675 70.729 159.108 70.1607 159.635 69.7048C160.168 69.2496 160.788 68.9268 161.496 68.7363C162.21 68.5413 163.003 68.5012 163.876 68.6161C164.449 68.6915 164.994 68.8211 165.511 69.0047C166.028 69.1883 166.487 69.4141 166.888 69.6823L166.214 70.7283C165.874 70.5155 165.495 70.3212 165.077 70.1453C164.665 69.965 164.208 69.8418 163.708 69.7759ZM170.178 68.8703L169.704 72.472C169.677 72.6786 169.644 72.887 169.606 73.0974C169.568 73.3026 169.525 73.4913 169.476 73.6634L169.561 73.6746C169.776 73.3983 170.031 73.177 170.326 73.011C170.627 72.8405 170.957 72.7263 171.317 72.6686C171.677 72.6057 172.051 72.5997 172.438 72.6507C173.12 72.7404 173.674 72.9236 174.099 73.2003C174.53 73.4777 174.83 73.8585 174.997 74.3428C175.17 74.8278 175.208 75.4318 175.113 76.1547L174.385 81.6851L173.114 81.5179L173.831 76.0727C173.925 75.3653 173.832 74.8146 173.553 74.4206C173.279 74.0274 172.809 73.7869 172.143 73.6992C171.513 73.6163 170.993 73.6714 170.584 73.8645C170.181 74.0531 169.866 74.3688 169.64 74.8118C169.419 75.2555 169.264 75.813 169.175 76.4843L168.591 80.9225L167.305 80.7533L168.892 68.7011L170.178 68.8703ZM181.441 73.8198C182.164 73.915 182.762 74.1566 183.236 74.5447C183.711 74.9328 184.047 75.4341 184.244 76.0485C184.442 76.6576 184.491 77.3469 184.389 78.1163L184.284 78.9141L178.421 78.1424C178.305 79.141 178.453 79.9327 178.865 80.5175C179.276 81.1022 179.918 81.452 180.791 81.5669C181.328 81.6376 181.809 81.6511 182.235 81.6073C182.662 81.5636 183.109 81.4754 183.578 81.3428L183.429 82.4737C182.976 82.6083 182.531 82.6917 182.096 82.7237C181.667 82.7564 181.165 82.7351 180.592 82.6596C179.776 82.5523 179.085 82.2932 178.519 81.8825C177.959 81.4674 177.554 80.915 177.303 80.2253C177.053 79.5357 176.989 78.7235 177.112 77.7889C177.232 76.8749 177.489 76.1049 177.881 75.4789C178.279 74.8484 178.781 74.3891 179.386 74.101C179.997 73.8137 180.682 73.7199 181.441 73.8198ZM181.287 74.8712C180.6 74.7808 180.023 74.9334 179.556 75.3289C179.089 75.7245 178.763 76.3199 178.58 77.1153L183.072 77.7066C183.134 77.1999 183.112 76.7452 183.008 76.3427C182.909 75.9357 182.718 75.606 182.437 75.3535C182.155 75.0959 181.772 74.9351 181.287 74.8712ZM196.297 75.7752C197.232 75.8982 197.904 76.2362 198.315 76.7893C198.726 77.3372 198.86 78.1508 198.718 79.23L197.986 84.7914L196.716 84.6242L197.44 79.1248C197.53 78.438 197.448 77.9045 197.193 77.5243C196.945 77.1396 196.529 76.9088 195.945 76.832C195.124 76.724 194.496 76.883 194.062 77.3091C193.628 77.7353 193.35 78.4105 193.228 79.3348L192.603 84.0829L191.325 83.9147L192.049 78.4153C192.109 77.9557 192.092 77.5647 191.998 77.2424C191.909 76.9207 191.743 76.6677 191.499 76.4833C191.262 76.2944 190.944 76.1738 190.546 76.1215C189.983 76.0474 189.516 76.1041 189.145 76.2916C188.774 76.4791 188.48 76.7925 188.265 77.2317C188.055 77.6664 187.906 78.2168 187.819 78.8829L187.227 83.3754L185.941 83.2061L187.059 74.7169L188.097 74.8535L188.133 76.0796L188.202 76.0888C188.412 75.8169 188.658 75.5972 188.943 75.4298C189.228 75.2624 189.537 75.1481 189.871 75.087C190.205 75.0258 190.552 75.0191 190.914 75.0666C191.559 75.1516 192.083 75.344 192.485 75.6438C192.892 75.9391 193.162 76.3449 193.294 76.8613L193.363 76.8705C193.707 76.4166 194.137 76.1029 194.653 75.9292C195.171 75.7504 195.719 75.6991 196.297 75.7752ZM203.031 76.8191L201.913 85.3083L200.627 85.139L201.745 76.6498L203.031 76.8191ZM202.822 73.5608C203.033 73.5886 203.205 73.6821 203.336 73.8413C203.474 73.9959 203.523 74.2178 203.485 74.507C203.448 74.791 203.342 74.9925 203.169 75.1116C203.001 75.2313 202.811 75.2772 202.599 75.2493C202.377 75.2201 202.201 75.1259 202.069 74.9668C201.943 74.8083 201.898 74.5871 201.936 74.3031C201.974 74.0139 202.074 73.8117 202.236 73.6965C202.405 73.5768 202.6 73.5316 202.822 73.5608ZM208.019 86.2696C207.255 86.169 206.602 85.9228 206.06 85.531C205.518 85.1392 205.127 84.5992 204.886 83.9109C204.646 83.2226 204.591 82.3879 204.72 81.4068C204.855 80.3792 205.136 79.5625 205.562 78.9568C205.995 78.3465 206.534 77.9236 207.179 77.6882C207.825 77.4527 208.533 77.3856 209.302 77.4869C209.725 77.5426 210.128 77.6402 210.509 77.7796C210.895 77.9146 211.207 78.0632 211.443 78.2256L210.914 79.2513C210.669 79.114 210.382 78.9817 210.052 78.8542C209.727 78.7274 209.417 78.6446 209.123 78.6059C208.534 78.5284 208.027 78.5904 207.601 78.7917C207.181 78.9938 206.84 79.3272 206.579 79.7919C206.324 80.2573 206.149 80.8489 206.054 81.5667C205.964 82.2534 205.979 82.8518 206.101 83.3616C206.229 83.8722 206.461 84.281 206.799 84.5881C207.142 84.8908 207.596 85.0791 208.159 85.1532C208.608 85.2123 209.019 85.2192 209.393 85.1738C209.767 85.1233 210.11 85.0528 210.422 84.9625L210.271 86.1088C209.968 86.216 209.635 86.2853 209.274 86.3165C208.918 86.3484 208.5 86.3328 208.019 86.2696ZM216.558 78.4576C217.57 78.5908 218.291 78.9169 218.722 79.4359C219.153 79.9549 219.302 80.7126 219.171 81.7092L218.411 87.4797L217.474 87.3564L217.391 86.069L217.329 86.0608C217.051 86.3394 216.769 86.5675 216.483 86.7453C216.197 86.9178 215.877 87.0359 215.522 87.0995C215.173 87.1586 214.753 87.1558 214.262 87.0913C213.746 87.0233 213.298 86.8725 212.919 86.6387C212.546 86.4056 212.267 86.0905 212.083 85.6933C211.904 85.2968 211.851 84.8171 211.925 84.2542C212.037 83.4074 212.458 82.8009 213.189 82.4349C213.92 82.0688 214.975 81.9555 216.354 82.095L217.827 82.2257L217.895 81.7067C217.991 80.9735 217.902 80.439 217.625 80.1032C217.349 79.7674 216.924 79.5618 216.351 79.4863C215.907 79.4279 215.475 79.4367 215.056 79.5128C214.636 79.5889 214.234 79.6909 213.849 79.8189L213.582 78.7909C213.99 78.645 214.451 78.535 214.966 78.4608C215.48 78.3866 216.01 78.3856 216.558 78.4576ZM217.692 83.1299L216.391 83.0139C215.327 82.9159 214.558 82.9906 214.084 83.2382C213.61 83.4858 213.337 83.8884 213.263 84.4461C213.199 84.9315 213.299 85.3097 213.563 85.5808C213.827 85.8519 214.201 86.0194 214.687 86.0833C215.441 86.1826 216.085 86.0546 216.621 85.6996C217.156 85.3445 217.479 84.7487 217.589 83.9122L217.692 83.1299ZM222.354 87.9986L221.06 87.8284L222.647 75.7762L223.941 75.9465L222.354 87.9986ZM233.837 77.9897C235.298 78.182 236.327 78.6089 236.923 79.2705C237.524 79.9275 237.755 80.7879 237.615 81.8516C237.552 82.3319 237.412 82.7783 237.194 83.191C236.983 83.5992 236.68 83.9454 236.285 84.2297C235.891 84.5088 235.395 84.7062 234.797 84.8218C234.204 84.9329 233.495 84.9341 232.669 84.8254L231.29 84.6439L230.704 89.0976L229.387 88.9243L230.878 77.6002L233.837 77.9897ZM233.565 79.0965L232.047 78.8966L231.439 83.513L232.671 83.6751C233.394 83.7703 234.005 83.772 234.506 83.6803C235.012 83.5893 235.409 83.3867 235.697 83.0727C235.986 82.7535 236.169 82.3048 236.245 81.7264C236.344 80.9725 236.178 80.3806 235.746 79.9508C235.314 79.5158 234.588 79.231 233.565 79.0965ZM243.143 81.9409C243.866 82.0361 244.464 82.2777 244.939 82.6658C245.413 83.0539 245.749 83.5552 245.946 84.1695C246.145 84.7787 246.193 85.468 246.092 86.2374L245.987 87.0352L240.123 86.2635C240.007 87.2621 240.155 88.0538 240.567 88.6386C240.978 89.2233 241.62 89.5731 242.493 89.688C243.03 89.7587 243.512 89.7721 243.938 89.7284C244.364 89.6847 244.811 89.5965 245.281 89.4639L245.132 90.5947C244.678 90.7294 244.234 90.8127 243.799 90.8448C243.369 90.8775 242.867 90.8562 242.294 90.7807C241.478 90.6733 240.787 90.4143 240.222 90.0036C239.662 89.5885 239.256 89.0361 239.006 88.3464C238.755 87.6568 238.691 86.8446 238.814 85.91C238.935 84.996 239.191 84.226 239.583 83.6C239.982 82.9695 240.483 82.5102 241.089 82.2221C241.699 81.9347 242.384 81.841 243.143 81.9409ZM242.989 82.9923C242.302 82.9019 241.725 83.0545 241.258 83.45C240.791 83.8456 240.466 84.441 240.282 85.2364L244.774 85.8277C244.836 85.321 244.814 84.8663 244.71 84.4638C244.611 84.0568 244.421 83.7271 244.139 83.4746C243.857 83.2169 243.474 83.0562 242.989 82.9923ZM252.051 83.1133C252.773 83.2085 253.372 83.4501 253.846 83.8382C254.32 84.2263 254.656 84.7276 254.854 85.3419C255.052 85.9511 255.101 86.6404 254.999 87.4098L254.894 88.2076L249.031 87.4359C248.915 88.4345 249.063 89.2262 249.474 89.811C249.886 90.3957 250.528 90.7455 251.401 90.8604C251.938 90.9311 252.419 90.9445 252.845 90.9008C253.271 90.8571 253.719 90.7689 254.188 90.6363L254.039 91.7671C253.586 91.9018 253.141 91.9851 252.706 92.0172C252.276 92.0499 251.775 92.0286 251.202 91.9531C250.386 91.8457 249.695 91.5867 249.129 91.176C248.569 90.7609 248.164 90.2085 247.913 89.5188C247.663 88.8292 247.599 88.017 247.722 87.0824C247.842 86.1684 248.099 85.3984 248.491 84.7724C248.889 84.1419 249.391 83.6826 249.996 83.3945C250.607 83.1071 251.291 83.0134 252.051 83.1133ZM251.896 84.1647C251.21 84.0743 250.633 84.2269 250.165 84.6224C249.698 85.018 249.373 85.6134 249.19 86.4088L253.682 87.0001C253.744 86.4933 253.722 86.0387 253.617 85.6362C253.519 85.2292 253.328 84.8995 253.046 84.647C252.765 84.3893 252.382 84.2286 251.896 84.1647ZM257.845 92.6699L256.551 92.4996L258.138 80.4474L259.432 80.6177L257.845 92.6699ZM266.361 91.4268C266.29 91.969 266.093 92.408 265.77 92.7437C265.453 93.075 265.03 93.3003 264.499 93.4196C263.974 93.5396 263.362 93.5537 262.665 93.4619C262.071 93.3838 261.564 93.2697 261.142 93.1196C260.721 92.9696 260.359 92.788 260.056 92.5748L260.212 91.3897C260.535 91.6056 260.928 91.8149 261.39 92.0175C261.852 92.2202 262.333 92.3544 262.834 92.4204C263.567 92.5169 264.115 92.4681 264.476 92.2741C264.838 92.08 265.046 91.779 265.1 91.3711C265.13 91.1387 265.09 90.9259 264.979 90.7327C264.874 90.535 264.677 90.3331 264.389 90.1271C264.101 89.9159 263.697 89.6736 263.177 89.4002C262.662 89.1223 262.218 88.8564 261.847 88.6027C261.482 88.3445 261.21 88.054 261.032 87.7311C260.859 87.4089 260.804 87.0128 260.866 86.5429C260.96 85.8252 261.322 85.3133 261.95 85.0073C262.585 84.6968 263.375 84.6038 264.32 84.7281C264.831 84.7954 265.302 84.9099 265.732 85.0717C266.169 85.2289 266.569 85.4182 266.934 85.6396L266.365 86.6127C266.033 86.4167 265.675 86.2409 265.291 86.0853C264.907 85.9297 264.509 85.8247 264.096 85.7703C263.502 85.6922 263.032 85.7301 262.686 85.8842C262.345 86.039 262.152 86.2868 262.107 86.6276C262.073 86.8909 262.117 87.1173 262.239 87.3068C262.366 87.4969 262.582 87.6882 262.888 87.8808C263.194 88.0733 263.599 88.3053 264.104 88.5767C264.61 88.8429 265.043 89.1074 265.403 89.3701C265.763 89.6276 266.026 89.9197 266.193 90.2464C266.366 90.5686 266.422 90.9621 266.361 91.4268Z" fill="#FEFAF9"/>
<path d="M372.446 108.762L371.467 116.198C378.346 117.103 385.129 114.16 389.167 108.515L393.529 102.414C394.714 100.754 396.329 99.4484 398.199 98.6364C400.07 97.8245 402.127 97.5372 404.148 97.8052L405.128 90.3694C401.758 89.9221 398.33 90.4009 395.212 91.7544C392.093 93.1079 389.403 95.2851 387.428 98.0521L383.066 104.153C381.881 105.813 380.266 107.119 378.395 107.931C376.525 108.743 374.468 109.03 372.446 108.762ZM394.754 111.698L402.19 112.677L401.211 120.113L393.775 119.134L394.754 111.698Z" fill="#FEFAF9"/>
<path d="M433.544 115.795L432.025 115.595L427.105 105.271L427.043 105.263C427.025 105.518 427.005 105.809 426.983 106.137C426.961 106.46 426.931 106.806 426.893 107.174C426.861 107.537 426.82 107.907 426.771 108.284L425.914 114.791L424.69 114.63L426.181 103.306L427.692 103.504L432.593 113.794L432.648 113.802C432.661 113.619 432.682 113.362 432.71 113.03C432.739 112.692 432.77 112.331 432.805 111.947C432.846 111.558 432.888 111.199 432.932 110.868L433.795 104.308L435.035 104.471L433.544 115.795ZM444.321 112.879C444.229 113.577 444.057 114.187 443.804 114.71C443.551 115.234 443.23 115.662 442.839 115.994C442.449 116.326 441.998 116.561 441.486 116.698C440.98 116.831 440.422 116.858 439.813 116.778C439.245 116.703 438.736 116.536 438.287 116.277C437.843 116.014 437.474 115.671 437.177 115.249C436.886 114.827 436.681 114.33 436.562 113.757C436.448 113.185 436.437 112.551 436.529 111.854C436.651 110.924 436.913 110.155 437.314 109.546C437.715 108.932 438.23 108.492 438.858 108.228C439.492 107.96 440.215 107.879 441.026 107.986C441.8 108.088 442.454 108.35 442.987 108.772C443.525 109.195 443.91 109.755 444.144 110.453C444.384 111.146 444.443 111.955 444.321 112.879ZM437.861 112.029C437.771 112.711 437.784 113.314 437.899 113.839C438.013 114.363 438.241 114.787 438.582 115.111C438.923 115.434 439.391 115.635 439.984 115.713C440.573 115.79 441.074 115.717 441.487 115.493C441.905 115.27 442.237 114.919 442.484 114.442C442.731 113.965 442.899 113.386 442.989 112.704C443.078 112.028 443.064 111.432 442.948 110.918C442.833 110.398 442.604 109.98 442.263 109.661C441.921 109.343 441.451 109.145 440.852 109.066C439.969 108.95 439.282 109.156 438.792 109.685C438.308 110.215 437.997 110.996 437.861 112.029ZM457.084 115.828C456.996 116.499 456.753 117.05 456.355 117.481C455.962 117.908 455.45 118.205 454.819 118.374C454.187 118.543 453.466 118.575 452.655 118.468C452.226 118.411 451.824 118.337 451.447 118.246C451.07 118.154 450.727 118.049 450.417 117.929C450.107 117.809 449.838 117.677 449.611 117.531L449.777 116.269C450.143 116.48 450.596 116.692 451.135 116.905C451.675 117.112 452.25 117.256 452.859 117.336C453.427 117.411 453.917 117.399 454.329 117.301C454.742 117.198 455.068 117.018 455.307 116.76C455.552 116.498 455.7 116.166 455.753 115.763C455.804 115.376 455.762 115.042 455.625 114.761C455.49 114.475 455.237 114.201 454.867 113.937C454.503 113.668 453.996 113.368 453.347 113.035C452.889 112.802 452.49 112.56 452.15 112.31C451.81 112.055 451.534 111.783 451.32 111.492C451.106 111.201 450.957 110.877 450.873 110.519C450.794 110.162 450.783 109.764 450.841 109.325C450.921 108.721 451.141 108.224 451.502 107.836C451.869 107.443 452.338 107.168 452.911 107.013C453.489 106.852 454.131 106.819 454.839 106.912C455.443 106.991 455.993 107.122 456.489 107.302C456.991 107.484 457.443 107.699 457.847 107.946L457.287 109.023C456.902 108.799 456.487 108.6 456.042 108.426C455.603 108.252 455.14 108.133 454.655 108.07C454.169 108.006 453.749 108.024 453.395 108.124C453.046 108.22 452.767 108.386 452.557 108.621C452.347 108.856 452.219 109.152 452.172 109.508C452.12 109.906 452.159 110.247 452.29 110.532C452.425 110.818 452.663 111.088 453.002 111.343C453.348 111.593 453.81 111.869 454.39 112.172C455.024 112.502 455.556 112.835 455.985 113.17C456.414 113.499 456.724 113.876 456.915 114.301C457.107 114.72 457.163 115.229 457.084 115.828ZM461.214 110.8L460.096 119.29L458.81 119.12L459.928 110.631L461.214 110.8ZM461.004 107.542C461.216 107.57 461.388 107.663 461.519 107.823C461.656 107.977 461.706 108.199 461.668 108.488C461.63 108.772 461.525 108.974 461.352 109.093C461.184 109.213 460.994 109.259 460.782 109.231C460.56 109.201 460.383 109.107 460.252 108.948C460.126 108.79 460.081 108.568 460.119 108.284C460.157 107.995 460.257 107.793 460.419 107.678C460.587 107.558 460.782 107.513 461.004 107.542ZM464.116 119.819L462.822 119.648L464.409 107.596L465.703 107.767L464.116 119.819ZM469.238 111.857L468.12 120.346L466.835 120.177L467.952 111.687L469.238 111.857ZM469.029 108.598C469.241 108.626 469.412 108.72 469.544 108.879C469.681 109.033 469.731 109.255 469.692 109.544C469.655 109.829 469.55 110.03 469.376 110.149C469.208 110.269 469.018 110.315 468.807 110.287C468.585 110.258 468.408 110.163 468.277 110.004C468.15 109.846 468.106 109.625 468.143 109.341C468.181 109.051 468.282 108.849 468.444 108.734C468.612 108.614 468.807 108.569 469.029 108.598ZM474.227 121.307C473.463 121.206 472.809 120.96 472.267 120.569C471.725 120.177 471.334 119.637 471.094 118.948C470.854 118.26 470.798 117.425 470.927 116.444C471.062 115.417 471.343 114.6 471.77 113.994C472.202 113.384 472.741 112.961 473.387 112.726C474.032 112.49 474.74 112.423 475.509 112.524C475.933 112.58 476.335 112.678 476.716 112.817C477.103 112.952 477.414 113.101 477.65 113.263L477.121 114.289C476.876 114.152 476.589 114.019 476.259 113.892C475.934 113.765 475.625 113.682 475.331 113.643C474.742 113.566 474.235 113.628 473.809 113.829C473.388 114.031 473.048 114.365 472.787 114.829C472.531 115.295 472.356 115.886 472.261 116.604C472.171 117.291 472.187 117.889 472.309 118.399C472.436 118.91 472.668 119.318 473.006 119.626C473.35 119.928 473.803 120.117 474.366 120.191C474.815 120.25 475.227 120.257 475.6 120.211C475.975 120.161 476.318 120.09 476.629 120L476.478 121.146C476.175 121.254 475.843 121.323 475.481 121.354C475.125 121.386 474.707 121.37 474.227 121.307ZM486.334 118.409C486.242 119.106 486.07 119.716 485.817 120.24C485.564 120.764 485.242 121.191 484.852 121.524C484.461 121.856 484.01 122.09 483.498 122.228C482.992 122.361 482.435 122.387 481.825 122.307C481.257 122.232 480.749 122.066 480.299 121.807C479.856 121.544 479.486 121.201 479.19 120.778C478.899 120.357 478.694 119.859 478.575 119.287C478.461 118.715 478.45 118.081 478.542 117.383C478.664 116.454 478.926 115.685 479.326 115.075C479.728 114.461 480.242 114.022 480.871 113.758C481.505 113.489 482.228 113.409 483.038 113.515C483.813 113.617 484.466 113.879 484.999 114.301C485.537 114.724 485.923 115.284 486.157 115.982C486.397 116.676 486.455 117.485 486.334 118.409ZM479.874 117.559C479.784 118.24 479.797 118.844 479.911 119.368C480.026 119.893 480.254 120.317 480.595 120.64C480.936 120.963 481.403 121.164 481.997 121.242C482.586 121.32 483.087 121.247 483.5 121.022C483.918 120.799 484.25 120.449 484.497 119.972C484.744 119.495 484.912 118.915 485.001 118.234C485.091 117.557 485.077 116.962 484.961 116.448C484.845 115.928 484.617 115.509 484.275 115.191C483.934 114.873 483.463 114.674 482.864 114.596C481.981 114.479 481.295 114.686 480.805 115.215C480.32 115.745 480.01 116.526 479.874 117.559ZM493.154 114.847C494.161 114.979 494.89 115.327 495.341 115.891C495.793 116.45 495.947 117.274 495.804 118.363L495.075 123.894L493.805 123.726L494.522 118.281C494.615 117.574 494.522 117.023 494.243 116.629C493.969 116.236 493.499 115.995 492.833 115.908C491.893 115.784 491.197 115.963 490.745 116.444C490.293 116.926 490 117.673 489.867 118.685L489.282 123.131L487.996 122.962L489.114 114.473L490.152 114.609L490.184 115.858L490.254 115.868C490.474 115.592 490.737 115.372 491.042 115.207C491.348 115.037 491.681 114.923 492.041 114.866C492.401 114.803 492.772 114.796 493.154 114.847ZM502.131 116.028C502.854 116.123 503.453 116.365 503.927 116.753C504.401 117.141 504.737 117.643 504.935 118.257C505.133 118.866 505.181 119.555 505.08 120.325L504.975 121.123L499.111 120.351C498.996 121.349 499.144 122.141 499.555 122.726C499.967 123.311 500.609 123.66 501.482 123.775C502.019 123.846 502.5 123.86 502.926 123.816C503.352 123.772 503.8 123.684 504.269 123.551L504.12 124.682C503.666 124.817 503.222 124.9 502.787 124.932C502.357 124.965 501.856 124.944 501.282 124.868C500.467 124.761 499.776 124.502 499.21 124.091C498.65 123.676 498.245 123.123 497.994 122.434C497.743 121.744 497.68 120.932 497.803 119.997C497.923 119.083 498.179 118.313 498.572 117.687C498.97 117.057 499.472 116.598 500.077 116.309C500.688 116.022 501.372 115.928 502.131 116.028ZM501.977 117.08C501.29 116.989 500.713 117.142 500.246 117.537C499.779 117.933 499.454 118.528 499.27 119.324L503.763 119.915C503.824 119.408 503.803 118.954 503.698 118.551C503.599 118.144 503.409 117.814 503.127 117.562C502.846 117.304 502.463 117.144 501.977 117.08ZM510.946 125.982L512.438 114.658L513.754 114.832L512.418 124.978L517.445 125.64L517.29 126.817L510.946 125.982ZM521.444 118.728L520.326 127.217L519.041 127.048L520.158 118.559L521.444 118.728ZM521.235 115.469C521.447 115.497 521.618 115.591 521.75 115.75C521.887 115.905 521.937 116.127 521.898 116.416C521.861 116.7 521.756 116.901 521.582 117.02C521.414 117.14 521.224 117.186 521.013 117.158C520.791 117.129 520.614 117.035 520.483 116.876C520.356 116.717 520.312 116.496 520.349 116.212C520.387 115.923 520.488 115.72 520.65 115.605C520.818 115.486 521.013 115.44 521.235 115.469ZM528.246 132.121L528.725 128.48C528.752 128.279 528.788 128.047 528.833 127.785C528.878 127.523 528.926 127.298 528.977 127.111L528.892 127.099C528.602 127.46 528.221 127.744 527.747 127.949C527.274 128.155 526.691 128.212 525.999 128.121C524.961 127.985 524.175 127.508 523.642 126.692C523.109 125.876 522.938 124.74 523.129 123.284C523.255 122.328 523.506 121.542 523.881 120.924C524.257 120.306 524.73 119.864 525.301 119.598C525.878 119.327 526.52 119.238 527.227 119.331C527.904 119.42 528.439 119.627 528.832 119.952C529.226 120.272 529.519 120.639 529.711 121.053L529.773 121.061L530.127 119.871L531.15 120.005L529.532 132.29L528.246 132.121ZM526.38 127.084C526.979 127.163 527.474 127.115 527.864 126.94C528.256 126.761 528.564 126.455 528.789 126.022C529.019 125.59 529.184 125.037 529.284 124.361L529.319 124.09C529.463 122.996 529.387 122.142 529.089 121.531C528.792 120.914 528.181 120.544 527.257 120.423C526.462 120.318 525.83 120.545 525.363 121.103C524.896 121.656 524.594 122.452 524.458 123.49C524.321 124.528 524.408 125.361 524.719 125.991C525.031 126.615 525.585 126.979 526.38 127.084ZM540.894 121.288L539.776 129.777L538.722 129.638L538.694 128.421L538.624 128.412C538.409 128.683 538.15 128.901 537.844 129.066C537.539 129.23 537.204 129.339 536.84 129.39C536.481 129.448 536.105 129.451 535.712 129.4C535.041 129.311 534.492 129.129 534.066 128.852C533.641 128.575 533.341 128.195 533.169 127.71C533.001 127.225 532.965 126.627 533.059 125.914L533.791 120.353L535.092 120.524L534.372 125.993C534.279 126.7 534.369 127.25 534.643 127.644C534.918 128.032 535.383 128.269 536.039 128.355C536.669 128.438 537.185 128.385 537.588 128.197C537.997 128.009 538.314 127.696 538.539 127.258C538.766 126.815 538.923 126.258 539.012 125.587L539.6 121.117L540.894 121.288ZM544.898 121.815L543.78 130.304L542.494 130.135L543.612 121.646L544.898 121.815ZM544.689 118.556C544.901 118.584 545.072 118.678 545.204 118.837C545.341 118.992 545.39 119.214 545.352 119.503C545.315 119.787 545.21 119.988 545.036 120.107C544.868 120.227 544.678 120.273 544.467 120.245C544.245 120.216 544.068 120.122 543.936 119.962C543.81 119.804 543.766 119.583 543.803 119.299C543.841 119.01 543.942 118.807 544.104 118.692C544.272 118.572 544.467 118.527 544.689 118.556ZM549.507 131.215C548.433 131.074 547.629 130.595 547.096 129.779C546.568 128.964 546.399 127.833 546.589 126.387C546.782 124.926 547.247 123.865 547.985 123.206C548.724 122.542 549.625 122.279 550.689 122.419C551.138 122.478 551.523 122.589 551.843 122.752C552.163 122.915 552.431 123.114 552.647 123.347C552.864 123.575 553.039 123.826 553.17 124.101L553.263 124.113C553.264 123.951 553.272 123.729 553.288 123.447C553.304 123.165 553.324 122.937 553.347 122.761L553.795 119.361L555.081 119.53L553.493 131.582L552.455 131.446L552.421 130.212L552.367 130.205C552.173 130.437 551.939 130.64 551.664 130.814C551.394 130.988 551.081 131.115 550.723 131.194C550.372 131.269 549.967 131.276 549.507 131.215ZM549.849 130.173C550.758 130.293 551.435 130.119 551.88 129.652C552.325 129.185 552.614 128.443 552.748 127.426L552.779 127.194C552.921 126.115 552.85 125.262 552.564 124.636C552.284 124.011 551.672 123.636 550.727 123.512C549.936 123.408 549.305 123.635 548.832 124.192C548.36 124.745 548.055 125.545 547.917 126.593C547.78 127.636 547.868 128.467 548.18 129.086C548.498 129.706 549.054 130.068 549.849 130.173ZM560.192 128.043C560.307 127.171 560.502 126.332 560.776 125.528C561.055 124.724 561.417 123.971 561.862 123.267C562.306 122.564 562.833 121.932 563.443 121.372L564.675 121.534C563.797 122.416 563.09 123.432 562.555 124.58C562.021 125.728 561.67 126.935 561.504 128.2C561.395 129.026 561.37 129.853 561.429 130.68C561.494 131.503 561.643 132.308 561.875 133.095C562.113 133.883 562.434 134.64 562.837 135.365L561.621 135.205C561.176 134.516 560.829 133.782 560.579 133.004C560.329 132.23 560.173 131.424 560.11 130.586C560.052 129.748 560.08 128.901 560.192 128.043ZM574.066 134.29L572.548 134.09L567.627 123.766L567.565 123.758C567.547 124.013 567.527 124.305 567.505 124.633C567.484 124.955 567.454 125.301 567.416 125.669C567.384 126.032 567.343 126.403 567.293 126.78L566.436 133.286L565.213 133.125L566.704 121.801L568.214 122L573.116 132.29L573.17 132.297C573.184 132.115 573.204 131.857 573.232 131.525C573.261 131.187 573.293 130.826 573.328 130.442C573.368 130.053 573.41 129.694 573.454 129.363L574.318 122.803L575.557 122.966L574.066 134.29ZM584.844 131.375C584.752 132.072 584.579 132.682 584.327 133.206C584.074 133.729 583.752 134.157 583.362 134.489C582.971 134.821 582.52 135.056 582.008 135.194C581.502 135.327 580.944 135.353 580.335 135.273C579.767 135.198 579.258 135.031 578.809 134.773C578.366 134.509 577.996 134.166 577.7 133.744C577.408 133.322 577.203 132.825 577.084 132.252C576.971 131.681 576.96 131.046 577.051 130.349C577.174 129.42 577.435 128.65 577.836 128.041C578.237 127.427 578.752 126.988 579.381 126.724C580.015 126.455 580.737 126.374 581.548 126.481C582.323 126.583 582.976 126.845 583.509 127.267C584.047 127.69 584.433 128.25 584.667 128.948C584.906 129.641 584.965 130.45 584.844 131.375ZM578.384 130.524C578.294 131.206 578.306 131.809 578.421 132.334C578.536 132.859 578.764 133.282 579.105 133.606C579.446 133.929 579.913 134.13 580.507 134.208C581.095 134.285 581.596 134.212 582.009 133.988C582.427 133.765 582.76 133.414 583.007 132.937C583.253 132.46 583.422 131.881 583.511 131.199C583.6 130.523 583.587 129.927 583.471 129.413C583.355 128.894 583.127 128.475 582.785 128.157C582.444 127.839 581.973 127.64 581.374 127.561C580.491 127.445 579.805 127.651 579.315 128.181C578.83 128.71 578.52 129.492 578.384 130.524ZM591.664 127.812C592.671 127.945 593.4 128.293 593.851 128.857C594.303 129.415 594.457 130.239 594.313 131.329L593.585 136.859L592.315 136.692L593.032 131.247C593.125 130.539 593.032 129.989 592.753 129.595C592.479 129.201 592.009 128.961 591.343 128.873C590.403 128.75 589.707 128.929 589.255 129.41C588.803 129.892 588.51 130.638 588.377 131.651L587.791 136.097L586.506 135.927L587.623 127.438L588.661 127.575L588.694 128.824L588.764 128.833C588.984 128.557 589.247 128.337 589.552 128.173C589.858 128.003 590.191 127.889 590.55 127.831C590.911 127.768 591.282 127.762 591.664 127.812ZM595.999 133.426L596.15 132.28L599.992 132.785L599.841 133.932L595.999 133.426ZM606.52 138.562L604.037 128.038L603.975 128.03C603.968 128.245 603.952 128.505 603.927 128.812C603.903 129.118 603.872 129.453 603.835 129.816C603.798 130.174 603.755 130.538 603.706 130.91L602.764 138.067L601.54 137.906L603.031 126.582L604.983 126.839L607.329 136.73L607.383 136.737L612.264 127.797L614.2 128.052L612.709 139.376L611.408 139.205L612.363 131.955C612.407 131.619 612.456 131.284 612.511 130.95C612.566 130.611 612.621 130.292 612.676 129.995C612.732 129.692 612.782 129.431 612.827 129.211L612.765 129.203L607.597 138.703L606.52 138.562ZM620.021 131.545C620.744 131.64 621.342 131.881 621.817 132.269C622.291 132.658 622.627 133.159 622.824 133.773C623.022 134.382 623.071 135.072 622.97 135.841L622.864 136.639L617.001 135.867C616.885 136.866 617.033 137.658 617.445 138.242C617.856 138.827 618.498 139.177 619.371 139.292C619.908 139.362 620.39 139.376 620.816 139.332C621.242 139.288 621.689 139.2 622.159 139.068L622.01 140.198C621.556 140.333 621.112 140.416 620.677 140.448C620.247 140.481 619.745 140.46 619.172 140.384C618.356 140.277 617.665 140.018 617.099 139.607C616.54 139.192 616.134 138.64 615.884 137.95C615.633 137.26 615.569 136.448 615.692 135.514C615.813 134.6 616.069 133.83 616.461 133.204C616.86 132.573 617.361 132.114 617.967 131.826C618.577 131.538 619.262 131.445 620.021 131.545ZM619.867 132.596C619.18 132.506 618.603 132.658 618.136 133.054C617.669 133.449 617.343 134.045 617.16 134.84L621.652 135.431C621.714 134.925 621.692 134.47 621.588 134.067C621.489 133.661 621.299 133.331 621.017 133.078C620.735 132.821 620.352 132.66 619.867 132.596ZM627.522 141.483C626.448 141.342 625.644 140.863 625.111 140.047C624.582 139.232 624.413 138.101 624.604 136.655C624.796 135.194 625.262 134.133 626 133.474C626.739 132.81 627.64 132.547 628.704 132.687C629.153 132.747 629.538 132.858 629.858 133.021C630.178 133.183 630.446 133.382 630.662 133.615C630.879 133.843 631.053 134.095 631.185 134.369L631.278 134.382C631.279 134.219 631.287 133.997 631.303 133.715C631.319 133.433 631.338 133.205 631.362 133.029L631.809 129.629L633.095 129.798L631.508 141.85L630.47 141.714L630.436 140.48L630.381 140.473C630.188 140.705 629.954 140.908 629.679 141.082C629.409 141.256 629.095 141.383 628.738 141.462C628.387 141.537 627.981 141.544 627.522 141.483ZM627.864 140.441C628.773 140.561 629.45 140.387 629.895 139.92C630.34 139.454 630.629 138.712 630.763 137.694L630.794 137.462C630.936 136.383 630.864 135.53 630.579 134.904C630.299 134.279 629.686 133.904 628.741 133.78C627.951 133.676 627.32 133.903 626.847 134.46C626.375 135.013 626.07 135.813 625.932 136.861C625.795 137.904 625.882 138.736 626.195 139.355C626.512 139.974 627.069 140.336 627.864 140.441ZM636.638 133.889L635.52 142.379L634.235 142.209L635.352 133.72L636.638 133.889ZM636.429 130.631C636.641 130.659 636.812 130.752 636.944 130.912C637.081 131.066 637.131 131.288 637.092 131.577C637.055 131.861 636.95 132.063 636.776 132.182C636.608 132.302 636.418 132.347 636.207 132.32C635.985 132.29 635.808 132.196 635.677 132.037C635.55 131.879 635.506 131.657 635.543 131.373C635.581 131.084 635.682 130.882 635.844 130.767C636.012 130.647 636.207 130.602 636.429 130.631ZM641.627 143.34C640.863 143.239 640.209 142.993 639.667 142.601C639.125 142.209 638.734 141.669 638.494 140.981C638.254 140.293 638.198 139.458 638.327 138.477C638.462 137.449 638.743 136.633 639.17 136.027C639.602 135.417 640.141 134.994 640.787 134.758C641.432 134.523 642.14 134.456 642.909 134.557C643.333 134.613 643.735 134.71 644.116 134.85C644.503 134.985 644.814 135.134 645.05 135.296L644.521 136.322C644.276 136.184 643.989 136.052 643.659 135.924C643.334 135.798 643.025 135.715 642.731 135.676C642.142 135.599 641.635 135.661 641.209 135.862C640.788 136.064 640.448 136.397 640.187 136.862C639.931 137.328 639.756 137.919 639.661 138.637C639.571 139.324 639.587 139.922 639.709 140.432C639.836 140.942 640.068 141.351 640.406 141.658C640.75 141.961 641.203 142.149 641.766 142.223C642.215 142.283 642.627 142.289 643 142.244C643.375 142.194 643.718 142.123 644.029 142.033L643.878 143.179C643.575 143.286 643.243 143.356 642.881 143.387C642.525 143.419 642.107 143.403 641.627 143.34ZM650.165 135.528C651.177 135.661 651.899 135.987 652.329 136.506C652.76 137.025 652.91 137.783 652.779 138.78L652.019 144.55L651.081 144.427L650.999 143.139L650.937 143.131C650.659 143.41 650.376 143.638 650.09 143.816C649.805 143.988 649.485 144.106 649.13 144.17C648.78 144.229 648.36 144.226 647.87 144.162C647.353 144.094 646.906 143.943 646.527 143.709C646.153 143.476 645.874 143.161 645.69 142.764C645.511 142.367 645.459 141.887 645.533 141.324C645.644 140.478 646.066 139.871 646.797 139.505C647.528 139.139 648.583 139.026 649.962 139.165L651.434 139.296L651.502 138.777C651.599 138.044 651.509 137.509 651.233 137.173C650.957 136.838 650.532 136.632 649.959 136.557C649.515 136.498 649.083 136.507 648.663 136.583C648.243 136.659 647.841 136.761 647.456 136.889L647.19 135.861C647.598 135.715 648.059 135.605 648.573 135.531C649.087 135.457 649.618 135.456 650.165 135.528ZM651.299 140.2L649.998 140.084C648.934 139.986 648.166 140.061 647.692 140.308C647.218 140.556 646.944 140.959 646.871 141.516C646.807 142.002 646.907 142.38 647.17 142.651C647.434 142.922 647.809 143.09 648.294 143.154C649.048 143.253 649.693 143.125 650.228 142.77C650.763 142.415 651.086 141.819 651.196 140.982L651.299 140.2ZM655.961 145.069L654.668 144.899L656.255 132.846L657.548 133.017L655.961 145.069ZM661.942 141.42C661.828 142.282 661.632 143.113 661.354 143.911C661.081 144.705 660.724 145.446 660.281 146.134C659.844 146.822 659.319 147.439 658.706 147.983L657.49 147.823C658.072 147.233 658.577 146.585 659.006 145.879C659.441 145.175 659.793 144.433 660.064 143.655C660.34 142.872 660.533 142.067 660.642 141.241C660.753 140.399 660.777 139.559 660.714 138.721C660.651 137.882 660.501 137.064 660.265 136.266C660.033 135.469 659.71 134.709 659.296 133.987L660.528 134.15C660.976 134.855 661.321 135.604 661.563 136.398C661.811 137.187 661.963 138.005 662.02 138.853C662.082 139.697 662.056 140.552 661.942 141.42Z" fill="#FEFAF9"/>
<path d="M777.074 139.324C776.905 140.607 777.037 141.911 777.459 143.134C777.882 144.356 778.583 145.464 779.508 146.369C778.381 147.003 777.416 147.891 776.692 148.963C775.967 150.035 775.502 151.261 775.333 152.543C775.082 154.448 775.496 156.381 776.506 158.015C777.517 159.649 779.06 160.883 780.876 161.51L780.419 164.98L777.115 164.545L776.679 167.85L779.984 168.285L779.549 171.59L782.854 172.025L783.289 168.72L786.594 169.155L787.029 165.85L783.724 165.415L784.181 161.945C786.098 161.81 787.908 161.016 789.307 159.699C790.706 158.383 791.607 156.623 791.857 154.718C792.026 153.435 791.894 152.131 791.471 150.908C791.049 149.686 790.347 148.578 789.423 147.674C790.55 147.039 791.514 146.151 792.239 145.079C792.964 144.007 793.429 142.782 793.598 141.499L790.293 141.064C790.12 142.379 789.432 143.571 788.38 144.378C787.327 145.185 785.998 145.542 784.683 145.369C783.368 145.196 782.176 144.507 781.369 143.455C780.562 142.403 780.205 141.074 780.379 139.759M784.248 148.673C785.563 148.847 786.755 149.535 787.562 150.587C788.369 151.639 788.725 152.968 788.552 154.283C788.379 155.598 787.691 156.79 786.639 157.597C785.587 158.405 784.257 158.761 782.942 158.588C781.627 158.415 780.435 157.727 779.628 156.675C778.821 155.623 778.465 154.293 778.638 152.978C778.811 151.663 779.499 150.471 780.551 149.664C781.603 148.857 782.933 148.5 784.248 148.673Z" fill="#FEFAF9"/>
<path d="M818.626 163.413C818.537 164.084 818.294 164.636 817.896 165.066C817.503 165.493 816.991 165.791 816.36 165.96C815.728 166.129 815.007 166.16 814.196 166.053C813.768 165.997 813.365 165.923 812.988 165.831C812.612 165.739 812.268 165.634 811.958 165.514C811.648 165.395 811.379 165.262 811.152 165.116L811.318 163.854C811.684 164.065 812.137 164.277 812.676 164.49C813.216 164.697 813.791 164.841 814.4 164.922C814.968 164.996 815.458 164.985 815.871 164.887C816.283 164.783 816.609 164.603 816.848 164.345C817.093 164.083 817.242 163.751 817.295 163.348C817.346 162.961 817.303 162.627 817.166 162.346C817.031 162.061 816.778 161.786 816.408 161.522C816.044 161.253 815.538 160.953 814.888 160.62C814.43 160.387 814.031 160.145 813.691 159.895C813.352 159.641 813.075 159.368 812.861 159.077C812.647 158.786 812.498 158.462 812.414 158.104C812.335 157.747 812.324 157.349 812.382 156.91C812.462 156.306 812.682 155.81 813.043 155.421C813.41 155.028 813.88 154.754 814.452 154.598C815.03 154.437 815.672 154.404 816.38 154.497C816.984 154.576 817.534 154.707 818.03 154.888C818.532 155.069 818.984 155.284 819.388 155.531L818.828 156.608C818.443 156.384 818.028 156.185 817.583 156.011C817.144 155.837 816.681 155.719 816.196 155.655C815.71 155.591 815.29 155.609 814.936 155.71C814.587 155.805 814.308 155.971 814.098 156.206C813.889 156.441 813.76 156.737 813.713 157.093C813.661 157.491 813.7 157.832 813.831 158.117C813.966 158.403 814.204 158.673 814.543 158.928C814.889 159.178 815.351 159.455 815.931 159.757C816.566 160.087 817.097 160.42 817.526 160.755C817.955 161.084 818.265 161.461 818.456 161.886C818.648 162.305 818.704 162.814 818.626 163.413ZM823.216 154.822L822.392 161.08C822.365 161.287 822.324 161.539 822.269 161.836C822.215 162.128 822.167 162.387 822.127 162.613L822.181 162.62C822.308 162.5 822.491 162.322 822.732 162.086C822.979 161.851 823.185 161.662 823.351 161.521L826.566 158.887L828.076 159.086L824.183 162.261L827.206 167.608L825.657 167.404L823.189 162.989L822.034 163.799L821.629 166.874L820.351 166.706L821.938 154.653L823.216 154.822ZM831.089 159.482L829.971 167.972L828.686 167.802L829.803 159.313L831.089 159.482ZM830.88 156.224C831.092 156.252 831.263 156.346 831.395 156.505C831.532 156.659 831.581 156.881 831.543 157.17C831.506 157.454 831.401 157.656 831.227 157.775C831.059 157.895 830.869 157.941 830.658 157.913C830.436 157.884 830.259 157.789 830.128 157.63C830.001 157.472 829.957 157.251 829.994 156.967C830.032 156.677 830.133 156.475 830.295 156.36C830.463 156.24 830.658 156.195 830.88 156.224ZM837.856 160.216C838.863 160.348 839.592 160.696 840.043 161.26C840.495 161.818 840.649 162.642 840.506 163.732L839.777 169.262L838.507 169.095L839.224 163.65C839.317 162.943 839.224 162.392 838.945 161.998C838.671 161.605 838.201 161.364 837.535 161.276C836.595 161.153 835.899 161.332 835.447 161.813C834.995 162.295 834.702 163.042 834.569 164.054L833.984 168.5L832.698 168.331L833.816 159.841L834.854 159.978L834.886 161.227L834.956 161.236C835.176 160.961 835.439 160.741 835.744 160.576C836.05 160.406 836.383 160.292 836.743 160.234C837.103 160.172 837.474 160.165 837.856 160.216ZM848.232 158.855L851.439 159.277C852.854 159.463 853.889 159.815 854.546 160.332C855.203 160.849 855.465 161.616 855.331 162.634C855.273 163.073 855.136 163.456 854.919 163.785C854.708 164.109 854.428 164.364 854.078 164.549C853.728 164.734 853.312 164.84 852.83 164.866L852.82 164.943C853.306 165.086 853.726 165.285 854.081 165.542C854.436 165.799 854.697 166.128 854.865 166.528C855.033 166.928 855.079 167.415 855.004 167.988C854.912 168.685 854.672 169.253 854.283 169.69C853.9 170.128 853.397 170.432 852.776 170.603C852.155 170.768 851.442 170.798 850.637 170.692L846.741 170.179L848.232 158.855ZM848.909 163.885L851.078 164.17C852.064 164.3 852.767 164.227 853.187 163.951C853.612 163.676 853.866 163.226 853.948 162.601C854.033 161.956 853.867 161.461 853.45 161.117C853.038 160.774 852.339 160.538 851.353 160.408L849.401 160.151L848.909 163.885ZM848.763 164.992L848.205 169.229L850.56 169.539C851.567 169.671 852.305 169.569 852.775 169.232C853.246 168.889 853.526 168.382 853.614 167.711C853.67 167.282 853.623 166.903 853.472 166.573C853.326 166.244 853.052 165.972 852.65 165.756C852.254 165.536 851.704 165.379 851.002 165.287L848.763 164.992ZM858.096 171.673L856.802 171.503L858.39 159.451L859.683 159.621L858.096 171.673ZM865.222 163.817C865.945 163.912 866.543 164.154 867.017 164.542C867.492 164.93 867.827 165.432 868.025 166.046C868.223 166.655 868.272 167.344 868.17 168.114L868.065 168.912L862.202 168.14C862.086 169.139 862.234 169.93 862.645 170.515C863.057 171.1 863.699 171.45 864.572 171.564C865.109 171.635 865.59 171.649 866.016 171.605C866.442 171.561 866.89 171.473 867.359 171.34L867.21 172.471C866.757 172.606 866.312 172.689 865.877 172.721C865.447 172.754 864.946 172.733 864.373 172.657C863.557 172.55 862.866 172.291 862.3 171.88C861.74 171.465 861.335 170.912 861.084 170.223C860.834 169.533 860.77 168.721 860.893 167.786C861.013 166.872 861.27 166.102 861.662 165.476C862.06 164.846 862.562 164.387 863.167 164.099C863.778 163.811 864.463 163.717 865.222 163.817ZM865.067 164.869C864.381 164.778 863.804 164.931 863.337 165.326C862.87 165.722 862.544 166.317 862.361 167.113L866.853 167.704C866.915 167.197 866.893 166.743 866.789 166.34C866.69 165.933 866.499 165.603 866.217 165.351C865.936 165.093 865.553 164.933 865.067 164.869ZM874.034 164.993C875.046 165.126 875.768 165.452 876.198 165.971C876.629 166.49 876.779 167.248 876.648 168.245L875.888 174.015L874.951 173.892L874.868 172.604L874.806 172.596C874.528 172.875 874.245 173.103 873.959 173.281C873.674 173.453 873.354 173.571 872.999 173.635C872.649 173.694 872.229 173.691 871.739 173.627C871.223 173.559 870.775 173.408 870.396 173.174C870.022 172.941 869.743 172.626 869.559 172.229C869.38 171.832 869.328 171.352 869.402 170.79C869.513 169.943 869.935 169.336 870.666 168.97C871.397 168.604 872.452 168.491 873.831 168.63L875.303 168.761L875.371 168.242C875.468 167.509 875.378 166.974 875.102 166.639C874.826 166.303 874.401 166.097 873.828 166.022C873.384 165.963 872.952 165.972 872.532 166.048C872.112 166.124 871.71 166.226 871.326 166.354L871.059 165.326C871.467 165.18 871.928 165.07 872.442 164.996C872.956 164.922 873.487 164.921 874.034 164.993ZM875.168 169.665L873.868 169.549C872.804 169.451 872.035 169.526 871.561 169.774C871.087 170.021 870.813 170.424 870.74 170.981C870.676 171.467 870.776 171.845 871.04 172.116C871.303 172.387 871.678 172.555 872.163 172.619C872.917 172.718 873.562 172.59 874.097 172.235C874.632 171.88 874.955 171.284 875.065 170.448L875.168 169.665ZM881.917 174.966C881.153 174.866 880.499 174.619 879.957 174.228C879.415 173.836 879.024 173.296 878.784 172.608C878.544 171.919 878.488 171.085 878.617 170.103C878.752 169.076 879.033 168.259 879.46 167.653C879.892 167.043 880.431 166.62 881.077 166.385C881.723 166.149 882.43 166.082 883.199 166.183C883.623 166.239 884.025 166.337 884.406 166.476C884.793 166.611 885.104 166.76 885.34 166.922L884.811 167.948C884.566 167.811 884.279 167.678 883.949 167.551C883.624 167.424 883.315 167.341 883.021 167.303C882.432 167.225 881.925 167.287 881.499 167.488C881.078 167.69 880.738 168.024 880.477 168.489C880.221 168.954 880.046 169.546 879.951 170.263C879.861 170.95 879.877 171.548 879.999 172.058C880.126 172.569 880.358 172.978 880.696 173.285C881.04 173.587 881.493 173.776 882.056 173.85C882.505 173.909 882.917 173.916 883.29 173.87C883.665 173.82 884.008 173.749 884.319 173.659L884.168 174.805C883.865 174.913 883.533 174.982 883.171 175.013C882.815 175.045 882.397 175.029 881.917 174.966ZM889.016 163.482L888.542 167.084C888.515 167.29 888.482 167.499 888.444 167.709C888.406 167.914 888.363 168.103 888.314 168.275L888.399 168.286C888.614 168.01 888.869 167.789 889.164 167.623C889.465 167.452 889.795 167.338 890.155 167.28C890.515 167.217 890.889 167.211 891.276 167.262C891.958 167.352 892.512 167.535 892.937 167.812C893.368 168.089 893.668 168.47 893.835 168.954C894.007 169.439 894.046 170.043 893.951 170.766L893.223 176.297L891.952 176.129L892.669 170.684C892.763 169.977 892.67 169.426 892.391 169.032C892.117 168.639 891.647 168.398 890.98 168.311C890.351 168.228 889.831 168.283 889.422 168.476C889.019 168.665 888.704 168.98 888.478 169.423C888.257 169.867 888.102 170.425 888.013 171.096L887.429 175.534L886.143 175.365L887.73 163.313L889.016 163.482ZM898.275 168.325L897.157 176.815L895.872 176.645L896.99 168.156L898.275 168.325ZM898.066 165.067C898.278 165.095 898.449 165.188 898.581 165.348C898.718 165.502 898.768 165.724 898.73 166.013C898.692 166.297 898.587 166.499 898.414 166.618C898.245 166.738 898.056 166.783 897.844 166.756C897.622 166.726 897.445 166.632 897.314 166.473C897.187 166.315 897.143 166.093 897.18 165.809C897.219 165.52 897.319 165.318 897.481 165.203C897.649 165.083 897.844 165.038 898.066 165.067ZM905.042 169.058C906.049 169.191 906.778 169.539 907.229 170.103C907.681 170.661 907.835 171.485 907.692 172.575L906.964 178.105L905.693 177.938L906.41 172.493C906.503 171.785 906.411 171.235 906.131 170.841C905.858 170.447 905.387 170.207 904.721 170.119C903.782 169.996 903.086 170.175 902.633 170.656C902.181 171.138 901.889 171.885 901.755 172.897L901.17 177.343L899.884 177.173L901.002 168.684L902.04 168.821L902.072 170.07L902.142 170.079C902.362 169.804 902.625 169.583 902.93 169.419C903.236 169.249 903.569 169.135 903.929 169.077C904.289 169.014 904.66 169.008 905.042 169.058ZM911.481 182.577C910.366 182.43 909.533 182.108 908.984 181.61C908.434 181.117 908.209 180.496 908.307 179.748C908.378 179.216 908.605 178.784 908.99 178.451C909.381 178.119 909.884 177.93 910.499 177.885C910.291 177.753 910.12 177.572 909.987 177.345C909.859 177.118 909.813 176.87 909.849 176.602C909.889 176.292 910.01 176.032 910.211 175.822C910.418 175.608 910.714 175.415 911.099 175.245C910.679 175.006 910.357 174.654 910.135 174.189C909.918 173.719 909.848 173.197 909.923 172.624C910.003 172.015 910.198 171.513 910.508 171.117C910.818 170.717 911.228 170.435 911.738 170.271C912.248 170.107 912.844 170.07 913.526 170.159C913.676 170.179 913.824 170.206 913.972 170.242C914.126 170.272 914.27 170.31 914.406 170.354C914.543 170.393 914.661 170.435 914.76 170.479L917.673 170.863L917.564 171.691L915.973 171.679C916.102 171.901 916.199 172.161 916.265 172.458C916.331 172.756 916.341 173.078 916.295 173.424C916.184 174.27 915.808 174.907 915.169 175.332C914.531 175.752 913.711 175.896 912.709 175.765C912.471 175.733 912.231 175.681 911.989 175.607C911.718 175.713 911.504 175.842 911.347 175.995C911.195 176.149 911.105 176.336 911.076 176.558C911.054 176.724 911.086 176.862 911.171 176.973C911.261 177.084 911.399 177.176 911.584 177.248C911.769 177.314 911.996 177.365 912.265 177.4L913.76 177.597C914.684 177.719 915.366 178.006 915.806 178.457C916.25 178.91 916.424 179.508 916.326 180.252C916.202 181.191 915.725 181.861 914.895 182.262C914.065 182.662 912.927 182.767 911.481 182.577ZM911.652 181.575C912.355 181.667 912.945 181.671 913.424 181.587C913.907 181.509 914.28 181.351 914.542 181.112C914.809 180.879 914.967 180.58 915.015 180.213C915.06 179.872 915.016 179.604 914.885 179.408C914.752 179.217 914.54 179.074 914.248 178.977C913.957 178.876 913.594 178.797 913.16 178.74L911.689 178.546C911.307 178.496 910.966 178.511 910.666 178.593C910.366 178.674 910.124 178.821 909.938 179.033C909.758 179.245 909.645 179.525 909.599 179.871C909.539 180.33 909.687 180.704 910.043 180.993C910.398 181.286 910.934 181.48 911.652 181.575ZM912.879 174.834C913.493 174.914 913.976 174.82 914.327 174.551C914.677 174.282 914.892 173.851 914.97 173.257C915.053 172.622 914.958 172.126 914.685 171.77C914.412 171.408 913.968 171.187 913.354 171.106C912.765 171.028 912.289 171.134 911.925 171.422C911.568 171.706 911.347 172.163 911.264 172.793C911.188 173.371 911.29 173.836 911.569 174.188C911.848 174.54 912.285 174.755 912.879 174.834ZM936.897 170.525L932.377 181.45L931.053 181.276L929.81 173.358C929.772 173.133 929.736 172.907 929.702 172.682C929.675 172.453 929.648 172.237 929.622 172.033C929.597 171.825 929.576 171.644 929.56 171.489C929.549 171.33 929.541 171.211 929.536 171.132C929.515 171.208 929.48 171.319 929.429 171.464C929.384 171.611 929.325 171.779 929.252 171.969C929.185 172.16 929.106 172.362 929.015 172.576C928.929 172.791 928.837 173.007 928.74 173.225L925.553 180.552L924.229 180.378L922.715 168.658L924.086 168.838L924.97 176.181C925.001 176.426 925.027 176.669 925.048 176.908C925.075 177.143 925.095 177.371 925.108 177.593C925.125 177.816 925.139 178.034 925.148 178.245C925.157 178.456 925.164 178.662 925.169 178.862C925.221 178.664 925.282 178.46 925.352 178.248C925.423 178.032 925.496 177.813 925.573 177.592C925.654 177.371 925.739 177.149 925.826 176.924C925.919 176.7 926.014 176.476 926.112 176.252L929.074 169.495L930.429 169.673L931.619 177.032C931.66 177.284 931.695 177.533 931.726 177.779C931.757 178.025 931.78 178.264 931.797 178.498C931.819 178.726 931.835 178.946 931.844 179.158C931.859 179.365 931.87 179.56 931.877 179.745C931.946 179.497 932.025 179.237 932.113 178.965C932.202 178.693 932.3 178.409 932.407 178.113C932.519 177.818 932.638 177.513 932.764 177.199L935.518 170.343L936.897 170.525ZM939.405 173.739L938.287 182.228L937.001 182.059L938.119 173.57L939.405 173.739ZM939.196 170.48C939.408 170.508 939.579 170.602 939.711 170.761C939.848 170.916 939.897 171.138 939.859 171.427C939.822 171.711 939.717 171.912 939.543 172.031C939.375 172.151 939.185 172.197 938.973 172.169C938.751 172.14 938.575 172.046 938.443 171.886C938.317 171.728 938.273 171.507 938.31 171.223C938.348 170.934 938.448 170.731 938.611 170.616C938.779 170.496 938.974 170.451 939.196 170.48ZM943.874 182.049C944.086 182.077 944.305 182.088 944.532 182.081C944.759 182.074 944.945 182.054 945.091 182.02L944.96 183.019C944.801 183.067 944.584 183.096 944.31 183.107C944.04 183.119 943.779 183.108 943.526 183.075C943.077 183.016 942.679 182.885 942.333 182.682C941.987 182.473 941.728 182.166 941.556 181.76C941.389 181.354 941.349 180.819 941.437 180.152L942.1 175.118L940.891 174.959L940.974 174.331L942.256 173.988L943.01 172.212L943.785 172.314L943.526 174.281L946.012 174.608L945.88 175.615L943.393 175.288L942.735 180.284C942.665 180.816 942.734 181.229 942.942 181.525C943.155 181.821 943.466 181.996 943.874 182.049ZM949.541 171.448L949.067 175.05C949.039 175.256 949.007 175.465 948.968 175.675C948.931 175.88 948.888 176.069 948.839 176.241L948.924 176.252C949.139 175.976 949.394 175.755 949.689 175.589C949.99 175.418 950.32 175.304 950.68 175.246C951.04 175.183 951.414 175.177 951.801 175.228C952.483 175.318 953.036 175.501 953.462 175.778C953.893 176.055 954.192 176.436 954.36 176.921C954.532 177.406 954.571 178.01 954.476 178.732L953.748 184.263L952.477 184.096L953.194 178.65C953.287 177.943 953.195 177.392 952.915 176.998C952.642 176.605 952.171 176.365 951.505 176.277C950.875 176.194 950.356 176.249 949.947 176.442C949.544 176.631 949.229 176.947 949.003 177.39C948.781 177.833 948.627 178.391 948.538 179.062L947.954 183.5L946.668 183.331L948.255 171.279L949.541 171.448ZM965.691 185.835L963.208 175.311L963.146 175.303C963.139 175.518 963.123 175.778 963.098 176.085C963.074 176.392 963.043 176.726 963.006 177.089C962.969 177.447 962.926 177.812 962.877 178.183L961.935 185.34L960.711 185.179L962.202 173.855L964.154 174.112L966.5 184.003L966.554 184.01L971.435 175.07L973.371 175.325L971.88 186.649L970.579 186.478L971.534 179.228C971.578 178.893 971.627 178.558 971.682 178.223C971.737 177.884 971.792 177.565 971.847 177.268C971.903 176.965 971.953 176.704 971.997 176.484L971.936 176.476L966.768 185.977L965.691 185.835ZM979.192 178.818C979.915 178.913 980.513 179.155 980.988 179.543C981.462 179.931 981.798 180.432 981.995 181.046C982.193 181.656 982.242 182.345 982.141 183.114L982.035 183.912L976.172 183.14C976.056 184.139 976.204 184.931 976.616 185.515C977.027 186.1 977.669 186.45 978.542 186.565C979.079 186.636 979.561 186.649 979.987 186.605C980.413 186.562 980.86 186.473 981.33 186.341L981.181 187.472C980.727 187.606 980.282 187.69 979.847 187.722C979.418 187.754 978.916 187.733 978.343 187.658C977.527 187.55 976.836 187.291 976.27 186.88C975.71 186.465 975.305 185.913 975.055 185.223C974.804 184.534 974.74 183.721 974.863 182.787C974.984 181.873 975.24 181.103 975.632 180.477C976.031 179.846 976.532 179.387 977.138 179.099C977.748 178.812 978.433 178.718 979.192 178.818ZM979.038 179.869C978.351 179.779 977.774 179.931 977.307 180.327C976.84 180.722 976.514 181.318 976.331 182.113L980.823 182.705C980.885 182.198 980.863 181.743 980.759 181.341C980.66 180.934 980.47 180.604 980.188 180.351C979.906 180.094 979.523 179.933 979.038 179.869ZM988.688 180.068C988.859 180.09 989.035 180.124 989.218 180.169C989.402 180.209 989.565 180.254 989.705 180.304L989.385 181.475C989.251 181.421 989.099 181.372 988.932 181.329C988.764 181.286 988.605 181.254 988.456 181.235C988.115 181.19 987.783 181.217 987.46 181.316C987.143 181.411 986.853 181.573 986.592 181.801C986.332 182.024 986.113 182.308 985.936 182.653C985.76 182.992 985.644 183.381 985.586 183.82L984.986 188.374L983.692 188.204L984.81 179.715L985.879 179.856L985.813 181.439L985.867 181.446C986.084 181.154 986.333 180.895 986.615 180.669C986.898 180.439 987.212 180.267 987.558 180.155C987.908 180.044 988.285 180.015 988.688 180.068ZM993.563 189.661C992.799 189.56 992.146 189.314 991.604 188.922C991.062 188.53 990.671 187.99 990.43 187.302C990.19 186.614 990.134 185.779 990.264 184.798C990.399 183.77 990.68 182.954 991.106 182.348C991.539 181.738 992.078 181.315 992.723 181.079C993.369 180.844 994.077 180.777 994.846 180.878C995.269 180.934 995.672 181.031 996.052 181.171C996.439 181.306 996.751 181.455 996.987 181.617L996.457 182.643C996.213 182.505 995.926 182.373 995.596 182.245C995.271 182.119 994.961 182.036 994.667 181.997C994.078 181.92 993.571 181.982 993.145 182.183C992.725 182.385 992.384 182.718 992.123 183.183C991.868 183.649 991.692 184.24 991.598 184.958C991.508 185.645 991.523 186.243 991.645 186.753C991.772 187.263 992.005 187.672 992.343 187.979C992.686 188.282 993.14 188.47 993.702 188.544C994.152 188.604 994.563 188.61 994.937 188.565C995.311 188.515 995.654 188.444 995.965 188.354L995.814 189.5C995.511 189.607 995.179 189.677 994.818 189.708C994.462 189.74 994.044 189.724 993.563 189.661ZM1005.92 182.493L1004.8 190.982L1003.75 190.843L1003.72 189.626L1003.65 189.617C1003.43 189.888 1003.17 190.106 1002.87 190.271C1002.56 190.436 1002.23 190.544 1001.86 190.596C1001.5 190.653 1001.13 190.657 1000.74 190.605C1000.06 190.517 999.516 190.334 999.09 190.057C998.664 189.781 998.365 189.4 998.192 188.915C998.025 188.43 997.988 187.832 998.082 187.119L998.815 181.558L1000.12 181.729L999.396 187.198C999.303 187.905 999.393 188.456 999.667 188.849C999.941 189.237 1000.41 189.474 1001.06 189.56C1001.69 189.643 1002.21 189.591 1002.61 189.402C1003.02 189.214 1003.34 188.901 1003.56 188.463C1003.79 188.02 1003.95 187.463 1004.04 186.792L1004.62 182.323L1005.92 182.493ZM1012.51 183.204C1012.68 183.226 1012.86 183.26 1013.04 183.305C1013.23 183.345 1013.39 183.39 1013.53 183.44L1013.21 184.611C1013.08 184.557 1012.93 184.508 1012.76 184.465C1012.59 184.422 1012.43 184.39 1012.28 184.371C1011.94 184.326 1011.61 184.353 1011.29 184.452C1010.97 184.547 1010.68 184.709 1010.42 184.937C1010.16 185.16 1009.94 185.444 1009.76 185.788C1009.59 186.128 1009.47 186.517 1009.41 186.956L1008.81 191.51L1007.52 191.34L1008.64 182.851L1009.71 182.991L1009.64 184.574L1009.69 184.582C1009.91 184.29 1010.16 184.031 1010.44 183.805C1010.72 183.575 1011.04 183.403 1011.38 183.291C1011.73 183.18 1012.11 183.151 1012.51 183.204ZM1013.79 183.529L1015.17 183.71L1016.39 188.883C1016.46 189.187 1016.53 189.479 1016.58 189.759C1016.64 190.035 1016.69 190.299 1016.73 190.551C1016.77 190.803 1016.8 191.046 1016.81 191.278L1016.86 191.285C1016.97 191.037 1017.12 190.712 1017.31 190.312C1017.5 189.906 1017.7 189.494 1017.91 189.075L1020.33 184.39L1021.72 184.573L1016.74 193.823C1016.48 194.318 1016.19 194.742 1015.87 195.095C1015.56 195.448 1015.21 195.704 1014.81 195.861C1014.41 196.024 1013.95 196.071 1013.42 196.002C1013.18 195.97 1012.97 195.926 1012.78 195.871C1012.6 195.82 1012.45 195.768 1012.32 195.714L1012.45 194.684C1012.56 194.725 1012.7 194.766 1012.85 194.808C1013.02 194.85 1013.18 194.883 1013.36 194.906C1013.68 194.948 1013.96 194.923 1014.21 194.829C1014.47 194.742 1014.69 194.593 1014.89 194.383C1015.1 194.173 1015.28 193.916 1015.45 193.613L1016.07 192.481L1013.79 183.529ZM1036.84 189.423C1036.72 190.296 1036.51 191.077 1036.19 191.765C1035.88 192.448 1035.47 193.019 1034.96 193.478C1034.46 193.932 1033.87 194.256 1033.18 194.45C1032.5 194.644 1031.73 194.685 1030.88 194.573C1030 194.457 1029.26 194.217 1028.64 193.852C1028.02 193.487 1027.53 193.018 1027.17 192.445C1026.81 191.872 1026.57 191.212 1026.44 190.466C1026.33 189.72 1026.32 188.911 1026.44 188.039C1026.59 186.882 1026.92 185.892 1027.41 185.07C1027.91 184.248 1028.58 183.645 1029.42 183.261C1030.26 182.878 1031.27 182.764 1032.44 182.919C1033.56 183.066 1034.47 183.43 1035.17 184.011C1035.88 184.592 1036.37 185.345 1036.65 186.27C1036.93 187.19 1037 188.241 1036.84 189.423ZM1027.82 188.237C1027.7 189.197 1027.72 190.046 1027.91 190.785C1028.09 191.523 1028.43 192.12 1028.95 192.576C1029.46 193.033 1030.16 193.319 1031.03 193.434C1031.91 193.55 1032.65 193.453 1033.26 193.144C1033.87 192.836 1034.36 192.349 1034.72 191.682C1035.08 191.015 1035.33 190.201 1035.45 189.241C1035.65 187.779 1035.49 186.598 1034.98 185.696C1034.48 184.789 1033.58 184.251 1032.29 184.08C1031.41 183.965 1030.66 184.058 1030.04 184.36C1029.43 184.663 1028.93 185.144 1028.56 185.804C1028.2 186.46 1027.95 187.271 1027.82 188.237ZM1043.42 187.271C1043.59 187.294 1043.77 187.327 1043.95 187.373C1044.13 187.412 1044.3 187.457 1044.44 187.507L1044.12 188.679C1043.98 188.624 1043.83 188.576 1043.66 188.533C1043.5 188.489 1043.34 188.458 1043.19 188.438C1042.85 188.393 1042.51 188.421 1042.19 188.52C1041.87 188.615 1041.58 188.776 1041.32 189.005C1041.06 189.228 1040.84 189.512 1040.67 189.856C1040.49 190.195 1040.37 190.585 1040.32 191.023L1039.72 195.578L1038.42 195.408L1039.54 186.918L1040.61 187.059L1040.54 188.642L1040.6 188.649C1040.81 188.357 1041.06 188.099 1041.35 187.873C1041.63 187.642 1041.94 187.471 1042.29 187.359C1042.64 187.247 1043.02 187.218 1043.42 187.271ZM1056.02 194.658C1055.93 195.329 1055.68 195.88 1055.29 196.311C1054.89 196.737 1054.38 197.035 1053.75 197.204C1053.12 197.373 1052.4 197.404 1051.59 197.298C1051.16 197.241 1050.76 197.167 1050.38 197.076C1050 196.984 1049.66 196.878 1049.35 196.759C1049.04 196.639 1048.77 196.507 1048.54 196.361L1048.71 195.099C1049.07 195.31 1049.53 195.522 1050.07 195.734C1050.61 195.942 1051.18 196.086 1051.79 196.166C1052.36 196.241 1052.85 196.229 1053.26 196.131C1053.67 196.028 1054 195.848 1054.24 195.59C1054.48 195.328 1054.63 194.996 1054.68 194.593C1054.74 194.206 1054.69 193.872 1054.56 193.591C1054.42 193.305 1054.17 193.03 1053.8 192.766C1053.43 192.498 1052.93 192.197 1052.28 191.865C1051.82 191.631 1051.42 191.39 1051.08 191.14C1050.74 190.885 1050.47 190.612 1050.25 190.322C1050.04 190.031 1049.89 189.707 1049.8 189.349C1049.73 188.992 1049.71 188.594 1049.77 188.155C1049.85 187.551 1050.07 187.054 1050.43 186.666C1050.8 186.273 1051.27 185.998 1051.84 185.842C1052.42 185.682 1053.06 185.649 1053.77 185.742C1054.37 185.821 1054.92 185.951 1055.42 186.132C1055.92 186.314 1056.37 186.528 1056.78 186.776L1056.22 187.853C1055.83 187.629 1055.42 187.429 1054.97 187.255C1054.53 187.082 1054.07 186.963 1053.59 186.899C1053.1 186.836 1052.68 186.854 1052.33 186.954C1051.98 187.05 1051.7 187.216 1051.49 187.451C1051.28 187.686 1051.15 187.981 1051.1 188.338C1051.05 188.735 1051.09 189.077 1051.22 189.362C1051.36 189.648 1051.59 189.918 1051.93 190.173C1052.28 190.423 1052.74 190.699 1053.32 191.002C1053.96 191.332 1054.49 191.665 1054.92 191.999C1055.35 192.329 1055.66 192.706 1055.85 193.13C1056.04 193.55 1056.09 194.059 1056.02 194.658ZM1060.6 197.413C1060.81 197.44 1061.03 197.451 1061.26 197.444C1061.49 197.437 1061.67 197.417 1061.82 197.384L1061.69 198.383C1061.53 198.43 1061.31 198.46 1061.04 198.471C1060.77 198.483 1060.51 198.472 1060.25 198.438C1059.8 198.379 1059.41 198.248 1059.06 198.045C1058.71 197.837 1058.46 197.529 1058.28 197.123C1058.12 196.718 1058.08 196.182 1058.16 195.516L1058.83 190.481L1057.62 190.322L1057.7 189.695L1058.98 189.351L1059.74 187.575L1060.51 187.677L1060.25 189.644L1062.74 189.972L1062.61 190.979L1060.12 190.651L1059.46 195.647C1059.39 196.179 1059.46 196.593 1059.67 196.888C1059.88 197.184 1060.19 197.359 1060.6 197.413ZM1067.8 190.481C1068.53 190.576 1069.12 190.817 1069.6 191.205C1070.07 191.594 1070.41 192.095 1070.61 192.709C1070.8 193.318 1070.85 194.008 1070.75 194.777L1070.65 195.575L1064.78 194.803C1064.67 195.802 1064.81 196.593 1065.23 197.178C1065.64 197.763 1066.28 198.113 1067.15 198.228C1067.69 198.298 1068.17 198.312 1068.6 198.268C1069.02 198.224 1069.47 198.136 1069.94 198.003L1069.79 199.134C1069.34 199.269 1068.89 199.352 1068.46 199.384C1068.03 199.417 1067.53 199.396 1066.95 199.32C1066.14 199.213 1065.45 198.954 1064.88 198.543C1064.32 198.128 1063.92 197.576 1063.67 196.886C1063.41 196.196 1063.35 195.384 1063.47 194.45C1063.59 193.536 1063.85 192.766 1064.24 192.14C1064.64 191.509 1065.14 191.05 1065.75 190.762C1066.36 190.474 1067.04 190.381 1067.8 190.481ZM1067.65 191.532C1066.96 191.441 1066.38 191.594 1065.92 191.99C1065.45 192.385 1065.13 192.981 1064.94 193.776L1069.43 194.367C1069.5 193.861 1069.47 193.406 1069.37 193.003C1069.27 192.596 1069.08 192.267 1068.8 192.014C1068.52 191.757 1068.13 191.596 1067.65 191.532ZM1077.3 191.73C1077.47 191.753 1077.65 191.787 1077.83 191.832C1078.01 191.872 1078.18 191.917 1078.32 191.967L1078 193.138C1077.86 193.084 1077.71 193.035 1077.54 192.992C1077.37 192.949 1077.22 192.917 1077.07 192.898C1076.73 192.853 1076.39 192.88 1076.07 192.979C1075.75 193.074 1075.46 193.236 1075.2 193.464C1074.94 193.687 1074.72 193.971 1074.55 194.315C1074.37 194.655 1074.25 195.044 1074.2 195.483L1073.6 200.037L1072.3 199.867L1073.42 191.378L1074.49 191.518L1074.42 193.101L1074.48 193.108C1074.69 192.816 1074.94 192.558 1075.23 192.332C1075.51 192.101 1075.82 191.93 1076.17 191.818C1076.52 191.707 1076.9 191.677 1077.3 191.73ZM1086.67 197.424C1086.58 198.122 1086.41 198.732 1086.16 199.255C1085.91 199.779 1085.58 200.207 1085.19 200.539C1084.8 200.871 1084.35 201.106 1083.84 201.243C1083.33 201.376 1082.78 201.403 1082.17 201.323C1081.6 201.248 1081.09 201.081 1080.64 200.822C1080.2 200.559 1079.83 200.216 1079.53 199.794C1079.24 199.372 1079.03 198.875 1078.92 198.302C1078.8 197.73 1078.79 197.096 1078.88 196.399C1079.01 195.469 1079.27 194.7 1079.67 194.091C1080.07 193.477 1080.58 193.037 1081.21 192.773C1081.85 192.505 1082.57 192.424 1083.38 192.531C1084.15 192.633 1084.81 192.895 1085.34 193.317C1085.88 193.739 1086.26 194.3 1086.5 194.998C1086.74 195.691 1086.8 196.5 1086.67 197.424ZM1080.21 196.574C1080.13 197.256 1080.14 197.859 1080.25 198.384C1080.37 198.908 1080.6 199.332 1080.94 199.656C1081.28 199.979 1081.74 200.18 1082.34 200.258C1082.93 200.335 1083.43 200.262 1083.84 200.038C1084.26 199.814 1084.59 199.464 1084.84 198.987C1085.08 198.51 1085.25 197.931 1085.34 197.249C1085.43 196.573 1085.42 195.977 1085.3 195.463C1085.19 194.943 1084.96 194.525 1084.62 194.206C1084.27 193.888 1083.8 193.69 1083.21 193.611C1082.32 193.495 1081.64 193.701 1081.15 194.23C1080.66 194.76 1080.35 195.541 1080.21 196.574ZM1090.74 193.657L1089.62 202.146L1088.34 201.977L1089.45 193.488L1090.74 193.657ZM1090.53 190.399C1090.74 190.427 1090.91 190.52 1091.05 190.679C1091.18 190.834 1091.23 191.056 1091.19 191.345C1091.16 191.629 1091.05 191.831 1090.88 191.95C1090.71 192.069 1090.52 192.115 1090.31 192.087C1090.09 192.058 1089.91 191.964 1089.78 191.805C1089.65 191.646 1089.61 191.425 1089.65 191.141C1089.68 190.852 1089.78 190.65 1089.95 190.535C1090.11 190.415 1090.31 190.37 1090.53 190.399ZM1095.35 203.058C1094.28 202.916 1093.47 202.438 1092.94 201.621C1092.41 200.806 1092.24 199.675 1092.43 198.229C1092.62 196.768 1093.09 195.708 1093.83 195.048C1094.57 194.384 1095.47 194.122 1096.53 194.262C1096.98 194.321 1097.37 194.432 1097.69 194.595C1098.01 194.758 1098.27 194.956 1098.49 195.189C1098.71 195.417 1098.88 195.669 1099.01 195.944L1099.11 195.956C1099.11 195.793 1099.11 195.571 1099.13 195.289C1099.15 195.008 1099.17 194.779 1099.19 194.604L1099.64 191.203L1100.92 191.373L1099.34 203.425L1098.3 203.288L1098.26 202.054L1098.21 202.047C1098.02 202.279 1097.78 202.482 1097.51 202.656C1097.24 202.831 1096.92 202.957 1096.57 203.037C1096.21 203.111 1095.81 203.118 1095.35 203.058ZM1095.69 202.015C1096.6 202.135 1097.28 201.961 1097.72 201.495C1098.17 201.028 1098.46 200.286 1098.59 199.269L1098.62 199.036C1098.76 197.957 1098.69 197.104 1098.41 196.478C1098.13 195.853 1097.51 195.478 1096.57 195.354C1095.78 195.25 1095.15 195.477 1094.67 196.035C1094.2 196.587 1093.9 197.387 1093.76 198.436C1093.62 199.479 1093.71 200.31 1094.02 200.929C1094.34 201.548 1094.9 201.911 1095.69 202.015ZM1107.86 202.183C1107.79 202.725 1107.59 203.164 1107.27 203.5C1106.95 203.831 1106.53 204.056 1106 204.176C1105.47 204.295 1104.86 204.31 1104.16 204.218C1103.57 204.14 1103.06 204.026 1102.64 203.876C1102.22 203.726 1101.86 203.544 1101.55 203.331L1101.71 202.146C1102.03 202.362 1102.43 202.571 1102.89 202.773C1103.35 202.976 1103.83 203.11 1104.33 203.176C1105.07 203.273 1105.61 203.224 1105.98 203.03C1106.34 202.836 1106.54 202.535 1106.6 202.127C1106.63 201.895 1106.59 201.682 1106.48 201.489C1106.37 201.291 1106.18 201.089 1105.89 200.883C1105.6 200.672 1105.2 200.43 1104.68 200.156C1104.16 199.878 1103.72 199.612 1103.35 199.359C1102.98 199.1 1102.71 198.81 1102.53 198.487C1102.36 198.165 1102.3 197.769 1102.36 197.299C1102.46 196.581 1102.82 196.069 1103.45 195.763C1104.08 195.453 1104.87 195.36 1105.82 195.484C1106.33 195.551 1106.8 195.666 1107.23 195.828C1107.67 195.985 1108.07 196.174 1108.43 196.395L1107.86 197.369C1107.53 197.173 1107.17 196.997 1106.79 196.841C1106.41 196.686 1106.01 196.581 1105.59 196.526C1105 196.448 1104.53 196.486 1104.18 196.64C1103.84 196.795 1103.65 197.043 1103.61 197.383C1103.57 197.647 1103.62 197.873 1103.74 198.063C1103.86 198.253 1104.08 198.444 1104.39 198.637C1104.69 198.829 1105.1 199.061 1105.6 199.333C1106.11 199.599 1106.54 199.863 1106.9 200.126C1107.26 200.384 1107.53 200.676 1107.69 201.002C1107.87 201.325 1107.92 201.718 1107.86 202.183Z" fill="#FEFAF9"/>
<path d="M1223.13 226.61C1222.74 226.559 1222.43 226.389 1222.21 226.1C1221.99 225.81 1221.91 225.476 1221.96 225.098L1222.8 218.712L1216.41 217.871C1216.04 217.821 1215.74 217.652 1215.51 217.362C1215.29 217.073 1215.2 216.739 1215.25 216.36L1216.34 208.078C1216.4 207.687 1216.57 207.382 1216.86 207.162C1217.14 206.942 1217.48 206.857 1217.86 206.907L1224.24 207.748L1225.09 201.33C1225.14 200.952 1225.31 200.652 1225.6 200.429C1225.89 200.206 1226.22 200.12 1226.6 200.171L1234.88 201.261C1235.27 201.312 1235.58 201.482 1235.8 201.771C1236.02 202.061 1236.1 202.395 1236.05 202.773L1235.21 209.191L1241.63 210.036C1242 210.086 1242.3 210.256 1242.53 210.546C1242.75 210.836 1242.83 211.17 1242.78 211.547L1241.69 219.828C1241.64 220.219 1241.47 220.525 1241.18 220.745C1240.89 220.964 1240.56 221.049 1240.18 220.999L1233.76 220.155L1232.92 226.541C1232.87 226.92 1232.7 227.22 1232.41 227.442C1232.12 227.664 1231.79 227.75 1231.41 227.701L1223.13 226.61Z" fill="#FEFAF9"/>
<path d="M1269.86 214.349C1271.33 214.541 1272.35 214.968 1272.95 215.63C1273.55 216.287 1273.78 217.147 1273.64 218.211C1273.58 218.691 1273.44 219.138 1273.22 219.55C1273.01 219.958 1272.71 220.305 1272.31 220.589C1271.92 220.868 1271.42 221.065 1270.82 221.181C1270.23 221.292 1269.52 221.293 1268.7 221.185L1267.32 221.003L1266.73 225.457L1265.41 225.284L1266.91 213.959L1269.86 214.349ZM1269.59 215.456L1268.07 215.256L1267.47 219.872L1268.7 220.034C1269.42 220.13 1270.03 220.131 1270.53 220.04C1271.04 219.949 1271.44 219.746 1271.72 219.432C1272.01 219.113 1272.2 218.664 1272.27 218.086C1272.37 217.332 1272.21 216.74 1271.77 216.31C1271.34 215.875 1270.62 215.59 1269.59 215.456ZM1279.51 215.618C1280.44 215.741 1281.19 215.958 1281.76 216.27C1282.34 216.577 1282.75 216.985 1282.99 217.495C1283.23 218.004 1283.3 218.623 1283.2 219.351C1283.12 219.95 1282.95 220.436 1282.68 220.811C1282.41 221.18 1282.08 221.465 1281.7 221.667C1281.31 221.868 1280.91 222.01 1280.5 222.092L1282.94 227.59L1281.4 227.388L1279.25 222.298L1276.9 221.988L1276.27 226.713L1274.96 226.54L1276.45 215.215L1279.51 215.618ZM1279.28 216.747L1277.62 216.527L1277.04 220.873L1278.84 221.109C1279.76 221.231 1280.47 221.132 1280.95 220.812C1281.44 220.493 1281.73 219.966 1281.83 219.233C1281.93 218.464 1281.77 217.888 1281.35 217.507C1280.93 217.127 1280.24 216.873 1279.28 216.747ZM1289.2 216.894C1290.66 217.086 1291.69 217.513 1292.28 218.174C1292.89 218.831 1293.12 219.692 1292.98 220.755C1292.91 221.236 1292.77 221.682 1292.56 222.095C1292.34 222.503 1292.04 222.849 1291.65 223.134C1291.25 223.413 1290.76 223.61 1290.16 223.726C1289.57 223.837 1288.86 223.838 1288.03 223.729L1286.65 223.548L1286.06 228.002L1284.75 227.828L1286.24 216.504L1289.2 216.894ZM1288.93 218L1287.41 217.801L1286.8 222.417L1288.03 222.579C1288.75 222.674 1289.37 222.676 1289.87 222.584C1290.37 222.493 1290.77 222.291 1291.06 221.977C1291.35 221.657 1291.53 221.209 1291.61 220.63C1291.7 219.876 1291.54 219.285 1291.11 218.855C1290.68 218.42 1289.95 218.135 1288.93 218ZM1301.89 230.084L1300.56 229.91L1301.9 219.748L1298.34 219.279L1298.49 218.117L1306.93 219.227L1306.77 220.389L1303.23 219.922L1301.89 230.084ZM1309.83 218.868L1309.35 222.47C1309.33 222.676 1309.29 222.885 1309.25 223.095C1309.22 223.3 1309.17 223.489 1309.13 223.661L1309.21 223.672C1309.43 223.396 1309.68 223.175 1309.98 223.009C1310.28 222.838 1310.61 222.724 1310.97 222.666C1311.33 222.603 1311.7 222.597 1312.09 222.648C1312.77 222.738 1313.32 222.921 1313.75 223.198C1314.18 223.475 1314.48 223.856 1314.65 224.341C1314.82 224.826 1314.86 225.43 1314.76 226.152L1314.03 231.683L1312.76 231.516L1313.48 226.07C1313.57 225.363 1313.48 224.812 1313.2 224.418C1312.93 224.025 1312.46 223.785 1311.79 223.697C1311.16 223.614 1310.64 223.669 1310.23 223.862C1309.83 224.051 1309.52 224.367 1309.29 224.81C1309.07 225.253 1308.91 225.811 1308.82 226.482L1308.24 230.92L1306.95 230.751L1308.54 218.699L1309.83 218.868ZM1321.09 223.818C1321.81 223.913 1322.41 224.154 1322.89 224.542C1323.36 224.931 1323.7 225.432 1323.89 226.046C1324.09 226.655 1324.14 227.345 1324.04 228.114L1323.93 228.912L1318.07 228.14C1317.95 229.139 1318.1 229.93 1318.51 230.515C1318.93 231.1 1319.57 231.45 1320.44 231.565C1320.98 231.635 1321.46 231.649 1321.88 231.605C1322.31 231.561 1322.76 231.473 1323.23 231.341L1323.08 232.471C1322.63 232.606 1322.18 232.689 1321.75 232.721C1321.32 232.754 1320.81 232.733 1320.24 232.657C1319.43 232.55 1318.73 232.291 1318.17 231.88C1317.61 231.465 1317.2 230.913 1316.95 230.223C1316.7 229.533 1316.64 228.721 1316.76 227.787C1316.88 226.873 1317.14 226.103 1317.53 225.477C1317.93 224.846 1318.43 224.387 1319.04 224.099C1319.65 223.811 1320.33 223.718 1321.09 223.818ZM1320.94 224.869C1320.25 224.779 1319.67 224.931 1319.21 225.327C1318.74 225.722 1318.41 226.318 1318.23 227.113L1322.72 227.704C1322.78 227.198 1322.76 226.743 1322.66 226.34C1322.56 225.933 1322.37 225.604 1322.09 225.351C1321.8 225.094 1321.42 224.933 1320.94 224.869ZM1330.59 225.067C1330.76 225.09 1330.93 225.124 1331.12 225.169C1331.3 225.209 1331.46 225.254 1331.6 225.304L1331.28 226.475C1331.15 226.421 1331 226.372 1330.83 226.329C1330.66 226.286 1330.5 226.254 1330.35 226.235C1330.01 226.19 1329.68 226.217 1329.36 226.316C1329.04 226.411 1328.75 226.573 1328.49 226.801C1328.23 227.024 1328.01 227.308 1327.83 227.652C1327.66 227.992 1327.54 228.381 1327.48 228.82L1326.88 233.374L1325.59 233.204L1326.71 224.715L1327.78 224.855L1327.71 226.438L1327.77 226.445C1327.98 226.154 1328.23 225.895 1328.51 225.669C1328.8 225.439 1329.11 225.267 1329.46 225.155C1329.81 225.044 1330.18 225.014 1330.59 225.067ZM1336.39 225.848C1337.41 225.981 1338.13 226.307 1338.56 226.826C1338.99 227.345 1339.14 228.103 1339.01 229.099L1338.25 234.87L1337.31 234.746L1337.23 233.459L1337.17 233.451C1336.89 233.729 1336.6 233.957 1336.32 234.135C1336.03 234.308 1335.71 234.426 1335.36 234.489C1335.01 234.549 1334.59 234.546 1334.1 234.481C1333.58 234.413 1333.13 234.262 1332.76 234.029C1332.38 233.796 1332.1 233.48 1331.92 233.083C1331.74 232.687 1331.69 232.207 1331.76 231.644C1331.87 230.797 1332.29 230.191 1333.03 229.825C1333.76 229.459 1334.81 229.345 1336.19 229.485L1337.66 229.616L1337.73 229.097C1337.83 228.363 1337.74 227.829 1337.46 227.493C1337.19 227.157 1336.76 226.952 1336.19 226.876C1335.74 226.818 1335.31 226.827 1334.89 226.903C1334.47 226.979 1334.07 227.081 1333.68 227.209L1333.42 226.181C1333.83 226.035 1334.29 225.925 1334.8 225.851C1335.32 225.777 1335.85 225.775 1336.39 225.848ZM1337.53 230.52L1336.23 230.404C1335.16 230.306 1334.39 230.381 1333.92 230.628C1333.45 230.876 1333.17 231.278 1333.1 231.836C1333.04 232.321 1333.14 232.7 1333.4 232.971C1333.66 233.242 1334.04 233.409 1334.52 233.473C1335.28 233.572 1335.92 233.445 1336.46 233.09C1336.99 232.734 1337.31 232.139 1337.42 231.302L1337.53 230.52ZM1346.02 227.099C1347.08 227.239 1347.88 227.714 1348.41 228.525C1348.95 229.336 1349.12 230.472 1348.93 231.933C1348.8 232.899 1348.55 233.691 1348.17 234.308C1347.8 234.926 1347.32 235.368 1346.75 235.634C1346.19 235.901 1345.55 235.988 1344.83 235.894C1344.38 235.835 1344 235.724 1343.67 235.56C1343.35 235.396 1343.08 235.198 1342.86 234.965C1342.64 234.731 1342.47 234.485 1342.34 234.227L1342.25 234.214C1342.24 234.418 1342.22 234.663 1342.21 234.95C1342.2 235.237 1342.18 235.487 1342.15 235.698L1341.69 239.184L1340.4 239.014L1342.01 226.729L1343.08 226.869L1343.08 228.146L1343.14 228.154C1343.34 227.918 1343.57 227.709 1343.84 227.529C1344.11 227.343 1344.42 227.211 1344.77 227.132C1345.14 227.048 1345.55 227.037 1346.02 227.099ZM1345.66 228.154C1345.07 228.077 1344.58 228.128 1344.19 228.307C1343.8 228.488 1343.49 228.794 1343.27 229.227C1343.04 229.654 1342.88 230.208 1342.78 230.888L1342.75 231.136C1342.66 231.854 1342.65 232.471 1342.74 232.987C1342.84 233.504 1343.05 233.915 1343.38 234.221C1343.71 234.527 1344.18 234.721 1344.8 234.802C1345.32 234.871 1345.78 234.787 1346.17 234.549C1346.56 234.311 1346.87 233.951 1347.11 233.467C1347.35 232.979 1347.52 232.404 1347.6 231.743C1347.73 230.742 1347.64 229.921 1347.33 229.28C1347.02 228.635 1346.46 228.26 1345.66 228.154ZM1350.39 227.831L1351.77 228.013L1352.99 233.186C1353.06 233.489 1353.13 233.781 1353.18 234.062C1353.24 234.337 1353.29 234.601 1353.33 234.854C1353.37 235.106 1353.4 235.348 1353.41 235.581L1353.46 235.588C1353.57 235.339 1353.72 235.015 1353.91 234.614C1354.1 234.208 1354.3 233.796 1354.51 233.378L1356.93 228.693L1358.32 228.875L1353.34 238.125C1353.08 238.621 1352.79 239.045 1352.47 239.398C1352.16 239.751 1351.81 240.006 1351.41 240.164C1351.01 240.327 1350.55 240.373 1350.02 240.304C1349.78 240.272 1349.57 240.228 1349.38 240.173C1349.2 240.123 1349.05 240.071 1348.92 240.017L1349.05 238.987C1349.16 239.027 1349.3 239.069 1349.45 239.11C1349.62 239.153 1349.78 239.186 1349.96 239.209C1350.28 239.251 1350.57 239.225 1350.81 239.132C1351.07 239.044 1351.29 238.896 1351.5 238.686C1351.7 238.476 1351.88 238.219 1352.05 237.915L1352.67 236.783L1350.39 227.831Z" fill="#FEFAF9"/>
</g>
<defs>
<clipPath id="clip0_218_1156">
<rect width="40" height="40" fill="white" transform="matrix(0.991449 0.130492 -0.13056 0.99144 103.896 45.679)"/>
</clipPath>
</defs>
</svg>
