<svg width="1440" height="297" viewBox="0 0 1440 297" fill="none" xmlns="http://www.w3.org/2000/svg">
<rect width="1487.19" height="103.619" transform="matrix(0.991449 -0.130492 0.13056 0.99144 -14 194.066)" fill="#F75016"/>
<path d="M131.532 212.406C131.32 212.438 131.11 212.495 130.905 212.579C130.272 212.84 129.797 213.317 129.47 213.91C121.15 217.886 113.251 221.582 105.002 225.49C102.056 226.886 100.52 230.112 101.782 232.753C103.043 235.393 106.524 236.248 109.466 234.836L109.466 234.836C117.575 230.946 125.37 227.303 133.581 223.416C133.627 223.426 133.673 223.434 133.718 223.443C133.545 223.697 133.46 224.013 133.504 224.342C133.597 225.051 134.248 225.551 134.958 225.458C135.668 225.364 136.168 224.713 136.074 224.003C136.03 223.669 135.861 223.382 135.622 223.181C136.56 222.674 137.104 221.657 137.285 220.527C137.481 219.299 137.29 217.875 136.704 216.468C136.118 215.062 135.24 213.921 134.229 213.192C133.47 212.645 132.596 212.32 131.744 212.382C131.673 212.387 131.602 212.395 131.532 212.406L131.532 212.406ZM131.761 213.848C131.796 213.843 131.832 213.839 131.868 213.836C132.303 213.807 132.817 213.975 133.375 214.376C134.118 214.912 134.864 215.848 135.356 217.03C135.774 218.031 135.936 219.034 135.888 219.864L131.8 220.402C131.464 219.957 131.159 219.434 130.916 218.851C130.424 217.669 130.286 216.484 130.43 215.585C130.574 214.685 130.958 214.136 131.461 213.929C131.557 213.89 131.658 213.862 131.761 213.848L131.761 213.848ZM128.959 215.559C128.814 216.74 129.015 218.084 129.568 219.413C129.741 219.828 129.945 220.23 130.178 220.614L118.465 222.156C113.688 224.419 109.129 226.576 106.349 227.894C104.625 228.711 103.89 230.378 104.428 231.503C104.966 232.629 106.735 233.117 108.452 232.294C113.41 229.916 123.21 225.277 130.91 221.631C131.261 222.042 131.642 222.399 132.044 222.689C132.05 222.693 132.056 222.697 132.061 222.701C124.282 226.385 114.136 231.186 109.083 233.609C106.799 234.705 104.08 234.163 103.109 232.132C102.139 230.102 103.435 227.659 105.722 226.576C110.769 224.183 121.165 219.264 128.959 215.559ZM135.412 228.91C134.745 233.982 132.83 233.542 133.208 236.41C133.436 238.142 135.027 239.363 136.759 239.135C138.491 238.907 139.711 237.316 139.483 235.584C139.075 232.488 137.405 233.721 135.412 228.91Z" fill="#FEFAF9"/>
<path d="M161.241 219.31C160.616 219.392 160.068 219.574 159.595 219.857C159.127 220.134 158.745 220.5 158.447 220.954C158.155 221.402 157.953 221.925 157.842 222.523C157.732 223.121 157.724 223.778 157.819 224.496C157.944 225.446 158.2 226.253 158.586 226.916C158.978 227.574 159.493 228.055 160.132 228.36C160.776 228.664 161.542 228.757 162.43 228.641C162.936 228.574 163.406 228.47 163.839 228.329C164.277 228.182 164.699 228.016 165.105 227.831L165.256 228.978C164.864 229.187 164.445 229.358 164 229.49C163.556 229.627 163.021 229.737 162.396 229.819C161.245 229.971 160.251 229.86 159.414 229.487C158.581 229.108 157.913 228.507 157.411 227.686C156.914 226.863 156.587 225.858 156.431 224.671C156.318 223.814 156.334 223.016 156.478 222.277C156.627 221.532 156.897 220.872 157.289 220.295C157.686 219.717 158.201 219.245 158.836 218.878C159.475 218.505 160.231 218.261 161.104 218.146C161.677 218.07 162.237 218.054 162.784 218.098C163.33 218.142 163.832 218.241 164.289 218.396L163.909 219.581C163.525 219.463 163.109 219.374 162.66 219.312C162.215 219.245 161.742 219.244 161.241 219.31ZM167.257 216.761L167.731 220.362C167.758 220.569 167.781 220.779 167.798 220.992C167.815 221.2 167.822 221.393 167.819 221.572L167.905 221.561C168.041 221.238 168.23 220.959 168.472 220.722C168.718 220.479 169.008 220.284 169.34 220.135C169.672 219.981 170.031 219.878 170.418 219.828C171.1 219.738 171.682 219.771 172.165 219.929C172.653 220.085 173.041 220.375 173.328 220.8C173.62 221.224 173.814 221.797 173.909 222.52L174.638 228.05L173.367 228.218L172.65 222.772C172.557 222.065 172.325 221.557 171.953 221.249C171.587 220.94 171.07 220.829 170.404 220.917C169.774 221 169.287 221.187 168.942 221.48C168.601 221.766 168.379 222.153 168.275 222.639C168.176 223.125 168.171 223.703 168.259 224.375L168.844 228.813L167.558 228.982L165.971 216.93L167.257 216.761ZM179.417 218.627C180.14 218.532 180.781 218.611 181.339 218.863C181.898 219.115 182.352 219.512 182.702 220.055C183.051 220.592 183.276 221.245 183.377 222.015L183.482 222.812L177.619 223.584C177.766 224.579 178.114 225.305 178.662 225.763C179.211 226.222 179.922 226.393 180.795 226.279C181.332 226.208 181.8 226.096 182.201 225.944C182.601 225.791 183.01 225.59 183.429 225.341L183.578 226.472C183.175 226.719 182.767 226.915 182.355 227.058C181.949 227.201 181.459 227.31 180.885 227.386C180.07 227.493 179.335 227.422 178.682 227.171C178.034 226.915 177.5 226.486 177.079 225.885C176.658 225.284 176.386 224.516 176.263 223.581C176.143 222.667 176.191 221.857 176.408 221.151C176.63 220.439 176.995 219.865 177.505 219.431C178.021 218.995 178.658 218.727 179.417 218.627ZM179.54 219.683C178.853 219.773 178.336 220.07 177.987 220.573C177.638 221.076 177.478 221.735 177.507 222.551L181.999 221.96C181.927 221.454 181.789 221.021 181.584 220.659C181.383 220.291 181.114 220.022 180.776 219.851C180.437 219.675 180.026 219.619 179.54 219.683ZM194.273 216.672C195.208 216.549 195.945 216.702 196.485 217.13C197.024 217.552 197.364 218.303 197.506 219.383L198.239 224.944L196.968 225.111L196.244 219.612C196.154 218.925 195.936 218.431 195.592 218.13C195.252 217.822 194.79 217.707 194.207 217.784C193.386 217.892 192.821 218.208 192.511 218.732C192.202 219.256 192.108 219.98 192.23 220.905L192.855 225.653L191.577 225.821L190.853 220.321C190.793 219.862 190.675 219.489 190.501 219.202C190.332 218.914 190.105 218.713 189.822 218.597C189.544 218.476 189.206 218.442 188.808 218.495C188.245 218.569 187.809 218.744 187.498 219.021C187.188 219.299 186.986 219.677 186.892 220.157C186.802 220.631 186.801 221.202 186.888 221.868L187.48 226.36L186.194 226.529L185.076 218.04L186.114 217.904L186.466 219.079L186.536 219.069C186.667 218.753 186.849 218.477 187.081 218.241C187.312 218.006 187.581 217.815 187.888 217.67C188.194 217.525 188.528 217.428 188.89 217.381C189.535 217.296 190.091 217.346 190.557 217.532C191.027 217.711 191.392 218.034 191.653 218.498L191.723 218.489C191.937 217.962 192.271 217.548 192.725 217.246C193.179 216.94 193.695 216.748 194.273 216.672ZM201.048 215.938L202.166 224.427L200.88 224.596L199.762 216.107L201.048 215.938ZM200.002 212.845C200.214 212.817 200.404 212.863 200.572 212.983C200.745 213.096 200.85 213.298 200.888 213.587C200.925 213.871 200.876 214.093 200.739 214.253C200.608 214.412 200.436 214.506 200.225 214.533C200.003 214.563 199.807 214.517 199.639 214.398C199.476 214.277 199.376 214.075 199.339 213.791C199.301 213.502 199.345 213.281 199.472 213.127C199.603 212.968 199.78 212.874 200.002 212.845ZM208.313 223.776C207.549 223.876 206.854 223.807 206.229 223.569C205.604 223.331 205.086 222.911 204.676 222.308C204.266 221.705 203.996 220.914 203.867 219.932C203.732 218.905 203.791 218.043 204.047 217.348C204.306 216.646 204.717 216.099 205.28 215.704C205.843 215.31 206.509 215.062 207.278 214.96C207.702 214.905 208.115 214.895 208.519 214.931C208.928 214.961 209.267 215.024 209.537 215.12L209.292 216.248C209.02 216.178 208.708 216.125 208.356 216.087C208.01 216.049 207.689 216.049 207.395 216.088C206.806 216.165 206.333 216.356 205.973 216.661C205.619 216.965 205.377 217.375 205.245 217.891C205.119 218.407 205.103 219.024 205.197 219.742C205.288 220.428 205.458 221.002 205.708 221.463C205.962 221.923 206.293 222.258 206.699 222.467C207.109 222.671 207.596 222.735 208.158 222.661C208.608 222.602 209.007 222.502 209.356 222.362C209.705 222.216 210.018 222.059 210.295 221.892L210.446 223.038C210.181 223.22 209.878 223.373 209.537 223.496C209.201 223.619 208.793 223.712 208.313 223.776ZM214.538 214.021C215.55 213.887 216.331 214.016 216.882 214.406C217.432 214.795 217.773 215.489 217.904 216.485L218.664 222.256L217.727 222.379L217.314 221.157L217.252 221.165C217.055 221.506 216.842 221.8 216.611 222.045C216.38 222.286 216.101 222.483 215.775 222.636C215.453 222.783 215.047 222.889 214.556 222.954C214.04 223.022 213.568 222.992 213.142 222.864C212.72 222.736 212.369 222.504 212.088 222.168C211.813 221.831 211.638 221.381 211.564 220.818C211.453 219.972 211.703 219.277 212.314 218.734C212.925 218.191 213.915 217.809 215.283 217.587L216.739 217.332L216.671 216.813C216.574 216.08 216.349 215.587 215.995 215.334C215.642 215.081 215.178 214.992 214.605 215.068C214.161 215.126 213.746 215.246 213.36 215.429C212.974 215.611 212.612 215.813 212.274 216.036L211.75 215.112C212.107 214.866 212.523 214.64 213.001 214.436C213.478 214.231 213.991 214.093 214.538 214.021ZM216.843 218.24L215.557 218.465C214.503 218.645 213.78 218.917 213.386 219.278C212.993 219.64 212.833 220.1 212.906 220.657C212.97 221.143 213.164 221.482 213.489 221.676C213.814 221.87 214.22 221.935 214.705 221.871C215.459 221.771 216.048 221.481 216.474 221C216.899 220.518 217.056 219.859 216.946 219.023L216.843 218.24ZM222.607 221.737L221.313 221.907L219.726 209.855L221.02 209.685L222.607 221.737ZM231.107 209.098C232.569 208.905 233.673 209.051 234.42 209.536C235.171 210.015 235.616 210.787 235.757 211.85C235.82 212.331 235.8 212.798 235.697 213.253C235.598 213.702 235.395 214.115 235.088 214.491C234.78 214.863 234.351 215.182 233.803 215.449C233.26 215.709 232.575 215.894 231.749 216.003L230.37 216.184L230.956 220.638L229.64 220.811L228.148 209.487L231.107 209.098ZM231.131 210.237L229.613 210.437L230.221 215.053L231.453 214.891C232.176 214.796 232.767 214.639 233.227 214.421C233.692 214.202 234.023 213.904 234.22 213.526C234.416 213.143 234.477 212.662 234.4 212.084C234.301 211.33 233.987 210.801 233.459 210.498C232.93 210.189 232.154 210.102 231.131 210.237ZM241.119 210.506C241.842 210.411 242.483 210.49 243.041 210.742C243.6 210.994 244.054 211.391 244.404 211.934C244.753 212.471 244.978 213.124 245.08 213.893L245.185 214.691L239.321 215.463C239.468 216.458 239.816 217.184 240.365 217.642C240.914 218.101 241.624 218.272 242.497 218.158C243.034 218.087 243.503 217.975 243.903 217.823C244.303 217.67 244.713 217.469 245.132 217.22L245.28 218.351C244.877 218.598 244.469 218.794 244.058 218.937C243.651 219.08 243.161 219.189 242.588 219.265C241.772 219.372 241.037 219.3 240.385 219.05C239.736 218.794 239.202 218.365 238.781 217.764C238.36 217.163 238.089 216.395 237.965 215.46C237.845 214.546 237.893 213.736 238.11 213.03C238.332 212.318 238.698 211.744 239.208 211.309C239.723 210.874 240.36 210.606 241.119 210.506ZM241.242 211.562C240.556 211.652 240.038 211.949 239.689 212.452C239.34 212.955 239.18 213.614 239.209 214.43L243.701 213.838C243.629 213.333 243.491 212.9 243.286 212.538C243.085 212.17 242.816 211.901 242.478 211.73C242.14 211.554 241.728 211.498 241.242 211.562ZM250.027 209.334C250.75 209.239 251.39 209.317 251.949 209.569C252.507 209.822 252.962 210.219 253.311 210.761C253.661 211.298 253.886 211.952 253.987 212.721L254.092 213.519L248.229 214.291C248.376 215.285 248.723 216.012 249.272 216.47C249.821 216.928 250.532 217.1 251.405 216.985C251.942 216.914 252.41 216.803 252.81 216.65C253.211 216.498 253.62 216.297 254.039 216.047L254.188 217.178C253.785 217.426 253.377 217.621 252.965 217.765C252.558 217.908 252.068 218.017 251.495 218.092C250.679 218.2 249.945 218.128 249.292 217.878C248.644 217.622 248.109 217.193 247.689 216.592C247.268 215.99 246.996 215.222 246.873 214.288C246.753 213.374 246.801 212.564 247.018 211.857C247.239 211.145 247.605 210.572 248.115 210.137C248.63 209.702 249.268 209.434 250.027 209.334ZM250.15 210.389C249.463 210.48 248.945 210.776 248.597 211.279C248.248 211.782 248.088 212.442 248.116 213.257L252.609 212.666C252.537 212.161 252.399 211.727 252.193 211.365C251.993 210.998 251.723 210.729 251.386 210.558C251.047 210.382 250.635 210.325 250.15 210.389ZM258.097 217.066L256.804 217.236L255.217 205.184L256.51 205.013L258.097 217.066ZM266.002 213.661C266.073 214.203 265.997 214.678 265.772 215.086C265.552 215.488 265.201 215.815 264.719 216.068C264.243 216.32 263.656 216.492 262.959 216.583C262.365 216.662 261.845 216.683 261.399 216.647C260.953 216.611 260.556 216.529 260.208 216.402L260.052 215.217C260.421 215.341 260.854 215.442 261.353 215.518C261.852 215.594 262.351 215.6 262.852 215.534C263.585 215.437 264.102 215.248 264.401 214.967C264.7 214.686 264.823 214.342 264.769 213.934C264.738 213.701 264.644 213.506 264.487 213.348C264.334 213.185 264.092 213.041 263.76 212.916C263.428 212.787 262.975 212.657 262.401 212.528C261.832 212.393 261.335 212.25 260.911 212.101C260.491 211.946 260.154 211.736 259.898 211.47C259.647 211.204 259.491 210.836 259.429 210.366C259.335 209.648 259.552 209.06 260.08 208.602C260.612 208.138 261.351 207.843 262.296 207.719C262.807 207.652 263.292 207.641 263.749 207.685C264.211 207.724 264.647 207.804 265.057 207.923L264.759 209.01C264.388 208.907 263.997 208.829 263.586 208.779C263.175 208.728 262.763 208.729 262.349 208.784C261.756 208.862 261.311 209.02 261.017 209.258C260.728 209.496 260.606 209.785 260.651 210.126C260.685 210.39 260.786 210.597 260.953 210.748C261.126 210.899 261.384 211.028 261.729 211.135C262.074 211.242 262.526 211.361 263.084 211.492C263.642 211.618 264.128 211.762 264.544 211.923C264.958 212.078 265.288 212.292 265.534 212.564C265.785 212.831 265.941 213.197 266.002 213.661Z" fill="#FEFAF9"/>
<path d="M373.861 202.838L374.84 210.274C381.719 209.368 387.509 204.77 389.948 198.273L392.582 191.251C393.297 189.341 394.518 187.662 396.115 186.394C397.712 185.125 399.624 184.316 401.646 184.051L400.667 176.616C397.296 177.055 394.109 178.405 391.448 180.519C388.786 182.633 386.75 185.433 385.56 188.616L382.925 195.638C382.21 197.548 380.989 199.227 379.392 200.496C377.795 201.764 375.883 202.574 373.861 202.838ZM396.169 199.902L403.605 198.923L404.584 206.359L397.148 207.337L396.169 199.902Z" fill="#FEFAF9"/>
<path d="M434.697 193.822L433.179 194.022L425.753 185.323L425.691 185.331C425.74 185.582 425.796 185.869 425.859 186.191C425.922 186.509 425.983 186.85 426.042 187.215C426.105 187.575 426.161 187.943 426.211 188.32L427.067 194.826L425.844 194.987L424.352 183.663L425.863 183.464L433.261 192.136L433.316 192.128C433.281 191.949 433.235 191.695 433.176 191.367C433.116 191.033 433.053 190.676 432.988 190.296C432.926 189.91 432.874 189.552 432.83 189.222L431.966 182.661L433.206 182.498L434.697 193.822ZM444.353 188.217C444.444 188.914 444.436 189.549 444.327 190.12C444.219 190.691 444.019 191.187 443.728 191.609C443.436 192.031 443.061 192.374 442.602 192.64C442.148 192.899 441.616 193.069 441.007 193.149C440.439 193.224 439.904 193.194 439.403 193.061C438.907 192.921 438.461 192.686 438.065 192.354C437.675 192.022 437.348 191.595 437.085 191.073C436.827 190.55 436.652 189.94 436.56 189.243C436.438 188.313 436.491 187.503 436.721 186.811C436.949 186.113 437.333 185.556 437.872 185.138C438.415 184.715 439.092 184.45 439.902 184.343C440.677 184.241 441.376 184.325 442 184.595C442.629 184.864 443.147 185.305 443.553 185.919C443.964 186.527 444.231 187.293 444.353 188.217ZM437.893 189.068C437.982 189.749 438.151 190.329 438.397 190.806C438.644 191.283 438.974 191.633 439.387 191.857C439.8 192.081 440.303 192.154 440.897 192.076C441.486 191.999 441.951 191.798 442.291 191.475C442.638 191.151 442.868 190.727 442.983 190.202C443.098 189.677 443.11 189.074 443.02 188.393C442.931 187.716 442.764 187.145 442.519 186.678C442.273 186.206 441.943 185.86 441.531 185.642C441.119 185.423 440.613 185.353 440.014 185.431C439.131 185.548 438.522 185.925 438.185 186.563C437.854 187.2 437.757 188.035 437.893 189.068ZM457.444 187.763C457.533 188.434 457.44 189.029 457.167 189.549C456.899 190.062 456.481 190.482 455.915 190.809C455.349 191.135 454.66 191.352 453.849 191.459C453.421 191.515 453.013 191.548 452.625 191.557C452.237 191.566 451.878 191.553 451.548 191.517C451.218 191.482 450.924 191.424 450.666 191.342L450.5 190.079C450.908 190.189 451.4 190.276 451.976 190.342C452.552 190.403 453.144 190.393 453.754 190.313C454.322 190.238 454.792 190.1 455.165 189.899C455.537 189.692 455.805 189.434 455.969 189.123C456.137 188.807 456.195 188.447 456.142 188.045C456.091 187.657 455.963 187.346 455.759 187.11C455.554 186.869 455.238 186.669 454.813 186.51C454.392 186.344 453.825 186.185 453.111 186.032C452.608 185.925 452.16 185.795 451.767 185.642C451.373 185.483 451.036 185.292 450.754 185.066C450.472 184.84 450.244 184.566 450.07 184.242C449.901 183.917 449.788 183.536 449.73 183.097C449.65 182.493 449.735 181.956 449.983 181.488C450.236 181.013 450.618 180.626 451.131 180.328C451.647 180.023 452.259 179.825 452.967 179.732C453.571 179.652 454.136 179.635 454.662 179.682C455.194 179.727 455.686 179.818 456.14 179.952L455.878 181.137C455.448 181.02 454.996 180.935 454.521 180.882C454.052 180.829 453.574 180.834 453.089 180.898C452.603 180.961 452.202 181.088 451.886 181.276C451.574 181.459 451.347 181.692 451.205 181.973C451.064 182.254 451.016 182.573 451.063 182.929C451.116 183.327 451.242 183.646 451.442 183.888C451.647 184.129 451.946 184.329 452.34 184.487C452.738 184.639 453.257 184.786 453.895 184.928C454.594 185.083 455.193 185.267 455.694 185.48C456.194 185.687 456.591 185.971 456.885 186.331C457.179 186.687 457.365 187.164 457.444 187.763ZM460.131 181.838L461.249 190.327L459.963 190.497L458.846 182.007L460.131 181.838ZM459.086 178.745C459.297 178.717 459.487 178.763 459.655 178.883C459.828 178.997 459.933 179.198 459.971 179.487C460.009 179.771 459.959 179.993 459.823 180.153C459.691 180.312 459.52 180.406 459.308 180.434C459.086 180.463 458.891 180.418 458.723 180.298C458.56 180.177 458.46 179.975 458.422 179.691C458.384 179.402 458.429 179.181 458.556 179.028C458.687 178.868 458.864 178.774 459.086 178.745ZM465.269 189.798L463.976 189.968L462.389 177.916L463.682 177.746L465.269 189.798ZM468.156 180.782L469.274 189.271L467.988 189.44L466.87 180.951L468.156 180.782ZM467.11 177.689C467.322 177.661 467.512 177.707 467.68 177.827C467.853 177.94 467.958 178.142 467.996 178.431C468.033 178.715 467.984 178.937 467.847 179.097C467.716 179.256 467.544 179.35 467.333 179.377C467.111 179.407 466.915 179.361 466.747 179.242C466.584 179.121 466.484 178.919 466.447 178.635C466.409 178.346 466.453 178.125 466.58 177.971C466.711 177.812 466.888 177.718 467.11 177.689ZM475.421 188.62C474.657 188.72 473.962 188.651 473.337 188.413C472.712 188.175 472.195 187.755 471.784 187.152C471.374 186.549 471.104 185.757 470.975 184.776C470.84 183.749 470.9 182.887 471.155 182.192C471.414 181.49 471.825 180.943 472.388 180.548C472.951 180.153 473.617 179.906 474.386 179.804C474.81 179.749 475.223 179.739 475.627 179.775C476.036 179.805 476.375 179.868 476.645 179.964L476.4 181.092C476.128 181.022 475.816 180.969 475.464 180.931C475.118 180.893 474.797 180.893 474.503 180.932C473.914 181.009 473.441 181.2 473.081 181.505C472.727 181.809 472.485 182.219 472.353 182.735C472.227 183.251 472.211 183.868 472.305 184.586C472.396 185.272 472.566 185.846 472.816 186.307C473.071 186.767 473.401 187.102 473.807 187.311C474.217 187.515 474.704 187.579 475.266 187.505C475.716 187.446 476.115 187.346 476.464 187.206C476.813 187.06 477.126 186.903 477.403 186.736L477.554 187.882C477.289 188.064 476.986 188.217 476.645 188.34C476.309 188.463 475.901 188.556 475.421 188.62ZM486.365 182.688C486.457 183.385 486.449 184.019 486.34 184.59C486.231 185.161 486.031 185.658 485.74 186.08C485.449 186.501 485.074 186.845 484.615 187.11C484.161 187.37 483.629 187.539 483.02 187.62C482.452 187.694 481.917 187.665 481.416 187.531C480.92 187.392 480.474 187.156 480.078 186.825C479.688 186.493 479.361 186.065 479.098 185.543C478.84 185.02 478.665 184.41 478.573 183.713C478.451 182.784 478.504 181.973 478.733 181.281C478.962 180.584 479.346 180.026 479.884 179.609C480.427 179.185 481.104 178.92 481.915 178.813C482.69 178.711 483.389 178.795 484.013 179.065C484.642 179.334 485.16 179.776 485.566 180.39C485.977 180.997 486.243 181.763 486.365 182.688ZM479.905 183.538C479.995 184.22 480.163 184.799 480.41 185.276C480.657 185.753 480.987 186.104 481.4 186.328C481.813 186.552 482.316 186.625 482.91 186.547C483.498 186.469 483.963 186.269 484.304 185.945C484.65 185.621 484.881 185.197 484.995 184.672C485.11 184.148 485.123 183.545 485.033 182.863C484.944 182.187 484.777 181.615 484.531 181.148C484.285 180.676 483.956 180.331 483.544 180.112C483.132 179.893 482.626 179.823 482.027 179.902C481.144 180.018 480.534 180.395 480.198 181.033C479.867 181.67 479.769 182.505 479.905 183.538ZM492.031 177.482C493.038 177.349 493.832 177.497 494.414 177.925C494.995 178.347 495.357 179.103 495.501 180.193L496.229 185.723L494.959 185.891L494.241 180.445C494.148 179.738 493.916 179.23 493.544 178.922C493.178 178.613 492.662 178.502 491.996 178.59C491.056 178.714 490.43 179.066 490.118 179.649C489.806 180.231 489.716 181.028 489.85 182.04L490.435 186.486L489.149 186.655L488.031 178.166L489.069 178.029L489.424 179.228L489.494 179.219C489.635 178.895 489.832 178.615 490.084 178.376C490.336 178.133 490.628 177.937 490.96 177.788C491.292 177.634 491.649 177.532 492.031 177.482ZM501.008 176.3C501.731 176.205 502.372 176.284 502.93 176.536C503.489 176.788 503.943 177.185 504.293 177.728C504.642 178.265 504.867 178.918 504.969 179.688L505.074 180.485L499.21 181.257C499.357 182.252 499.705 182.978 500.254 183.436C500.803 183.895 501.513 184.067 502.386 183.952C502.923 183.881 503.392 183.769 503.792 183.617C504.192 183.464 504.602 183.263 505.021 183.014L505.17 184.145C504.766 184.392 504.358 184.588 503.947 184.731C503.54 184.874 503.05 184.983 502.477 185.059C501.661 185.166 500.926 185.095 500.274 184.844C499.625 184.588 499.091 184.159 498.67 183.558C498.249 182.957 497.978 182.189 497.855 181.254C497.734 180.34 497.782 179.53 497.999 178.824C498.221 178.112 498.587 177.538 499.097 177.104C499.612 176.668 500.249 176.4 501.008 176.3ZM501.131 177.356C500.445 177.446 499.927 177.743 499.578 178.246C499.229 178.749 499.069 179.408 499.098 180.224L503.59 179.633C503.519 179.127 503.38 178.694 503.175 178.332C502.974 177.964 502.705 177.695 502.367 177.524C502.029 177.348 501.617 177.292 501.131 177.356ZM512.1 183.635L510.608 172.31L511.925 172.137L513.261 182.284L518.288 181.622L518.443 182.8L512.1 183.635ZM520.362 173.911L521.48 182.4L520.194 182.569L519.076 174.08L520.362 173.911ZM519.316 170.818C519.528 170.79 519.718 170.836 519.886 170.955C520.059 171.069 520.164 171.271 520.202 171.56C520.239 171.844 520.19 172.066 520.053 172.226C519.922 172.385 519.75 172.478 519.539 172.506C519.317 172.535 519.121 172.49 518.953 172.37C518.79 172.25 518.69 172.048 518.653 171.764C518.615 171.475 518.659 171.253 518.786 171.1C518.917 170.941 519.094 170.847 519.316 170.818ZM530.399 185.087L529.92 181.447C529.893 181.245 529.868 181.012 529.843 180.748C529.819 180.483 529.807 180.253 529.808 180.059L529.723 180.07C529.537 180.494 529.242 180.866 528.838 181.187C528.433 181.508 527.885 181.714 527.193 181.806C526.155 181.942 525.273 181.685 524.547 181.035C523.82 180.385 523.361 179.331 523.169 177.875C523.043 176.92 523.082 176.095 523.285 175.401C523.487 174.708 523.83 174.158 524.313 173.753C524.8 173.342 525.397 173.09 526.104 172.997C526.781 172.908 527.351 172.97 527.815 173.182C528.278 173.389 528.656 173.667 528.949 174.018L529.011 174.009L529.045 172.768L530.067 172.633L531.685 184.918L530.399 185.087ZM527.293 180.705C527.892 180.626 528.357 180.452 528.689 180.182C529.021 179.908 529.239 179.532 529.345 179.056C529.455 178.579 529.471 178.002 529.393 177.324L529.357 177.053C529.213 175.958 528.918 175.154 528.472 174.64C528.025 174.121 527.34 173.922 526.415 174.044C525.62 174.148 525.069 174.531 524.762 175.191C524.454 175.846 524.369 176.693 524.505 177.731C524.642 178.769 524.942 179.551 525.406 180.079C525.868 180.601 526.497 180.81 527.293 180.705ZM539.811 171.351L540.929 179.84L539.876 179.979L539.533 178.81L539.463 178.82C539.326 179.137 539.132 179.415 538.879 179.653C538.627 179.891 538.332 180.082 537.994 180.226C537.661 180.375 537.299 180.475 536.906 180.527C536.235 180.615 535.658 180.581 535.175 180.424C534.692 180.267 534.304 179.977 534.012 179.553C533.725 179.128 533.535 178.56 533.441 177.847L532.708 172.286L534.01 172.114L534.73 177.583C534.823 178.29 535.053 178.798 535.419 179.107C535.785 179.411 536.296 179.52 536.951 179.434C537.581 179.351 538.067 179.166 538.407 178.88C538.753 178.593 538.978 178.208 539.083 177.727C539.187 177.241 539.195 176.662 539.106 175.99L538.518 171.521L539.811 171.351ZM543.816 170.824L544.934 179.313L543.648 179.482L542.53 170.993L543.816 170.824ZM542.77 167.731C542.982 167.703 543.172 167.749 543.34 167.868C543.513 167.982 543.618 168.184 543.656 168.473C543.693 168.757 543.644 168.979 543.507 169.139C543.376 169.298 543.204 169.391 542.993 169.419C542.771 169.448 542.575 169.403 542.407 169.283C542.244 169.163 542.144 168.961 542.107 168.677C542.069 168.388 542.113 168.166 542.24 168.013C542.371 167.854 542.548 167.76 542.77 167.731ZM550.701 178.711C549.627 178.853 548.727 178.598 548.001 177.948C547.279 177.297 546.823 176.249 546.633 174.803C546.44 173.341 546.615 172.197 547.158 171.369C547.699 170.536 548.502 170.049 549.566 169.909C550.015 169.85 550.415 169.858 550.767 169.933C551.118 170.007 551.428 170.129 551.698 170.299C551.966 170.463 552.2 170.661 552.398 170.892L552.491 170.88C552.449 170.722 552.4 170.506 552.342 170.229C552.285 169.953 552.245 169.728 552.222 169.552L551.774 166.152L553.06 165.982L554.647 178.035L553.609 178.171L553.256 176.988L553.202 176.995C553.075 177.27 552.901 177.526 552.681 177.765C552.465 178.004 552.195 178.208 551.871 178.376C551.551 178.539 551.161 178.651 550.701 178.711ZM550.762 177.616C551.671 177.496 552.28 177.154 552.589 176.588C552.898 176.022 552.985 175.23 552.851 174.213L552.821 173.98C552.679 172.901 552.389 172.096 551.951 171.565C551.519 171.034 550.83 170.83 549.885 170.955C549.095 171.059 548.544 171.441 548.231 172.102C547.919 172.758 547.831 173.61 547.969 174.658C548.107 175.701 548.406 176.481 548.868 176.999C549.336 177.515 549.967 177.721 550.762 177.616ZM560.201 172.883C560.087 172.01 560.057 171.15 560.114 170.302C560.175 169.453 560.33 168.632 560.577 167.838C560.825 167.043 561.17 166.297 561.614 165.597L562.845 165.435C562.226 166.515 561.807 167.678 561.587 168.926C561.368 170.174 561.342 171.43 561.508 172.695C561.617 173.521 561.807 174.326 562.079 175.11C562.354 175.888 562.707 176.627 563.135 177.327C563.569 178.027 564.074 178.674 564.652 179.271L563.436 179.431C562.827 178.881 562.302 178.262 561.859 177.574C561.418 176.891 561.058 176.153 560.78 175.36C560.507 174.566 560.314 173.74 560.201 172.883ZM575.219 175.327L573.701 175.527L566.275 166.828L566.213 166.836C566.262 167.087 566.318 167.374 566.382 167.696C566.445 168.014 566.505 168.355 566.564 168.72C566.627 169.08 566.683 169.448 566.733 169.825L567.59 176.331L566.366 176.492L564.875 165.168L566.385 164.969L573.784 173.64L573.838 173.633C573.804 173.454 573.757 173.2 573.698 172.872C573.639 172.538 573.576 172.181 573.51 171.801C573.449 171.415 573.396 171.057 573.353 170.726L572.489 164.166L573.728 164.003L575.219 175.327ZM584.875 169.722C584.967 170.419 584.958 171.053 584.85 171.624C584.741 172.196 584.541 172.692 584.25 173.114C583.959 173.536 583.584 173.879 583.125 174.145C582.671 174.404 582.139 174.574 581.529 174.654C580.961 174.729 580.427 174.699 579.926 174.566C579.43 174.426 578.983 174.191 578.588 173.859C578.197 173.527 577.871 173.1 577.607 172.578C577.35 172.055 577.175 171.445 577.083 170.748C576.96 169.818 577.014 169.007 577.243 168.315C577.472 167.618 577.855 167.061 578.394 166.643C578.937 166.22 579.614 165.955 580.425 165.848C581.199 165.746 581.899 165.83 582.523 166.1C583.152 166.369 583.669 166.81 584.076 167.424C584.487 168.032 584.753 168.798 584.875 169.722ZM578.415 170.572C578.505 171.254 578.673 171.833 578.92 172.31C579.166 172.787 579.496 173.138 579.909 173.362C580.322 173.586 580.826 173.659 581.42 173.581C582.008 173.504 582.473 173.303 582.814 172.98C583.16 172.656 583.39 172.232 583.505 171.707C583.62 171.182 583.632 170.579 583.543 169.897C583.454 169.221 583.286 168.649 583.041 168.183C582.795 167.711 582.466 167.365 582.054 167.146C581.641 166.927 581.136 166.857 580.537 166.936C579.654 167.052 579.044 167.43 578.708 168.067C578.377 168.705 578.279 169.54 578.415 170.572ZM590.541 164.516C591.548 164.384 592.342 164.531 592.924 164.959C593.505 165.382 593.867 166.138 594.01 167.227L594.739 172.758L593.468 172.925L592.751 167.48C592.658 166.772 592.426 166.265 592.054 165.956C591.688 165.647 591.171 165.537 590.505 165.624C589.566 165.748 588.94 166.101 588.628 166.683C588.315 167.265 588.226 168.062 588.359 169.074L588.945 173.52L587.659 173.69L586.541 165.2L587.579 165.064L587.934 166.262L588.004 166.253C588.145 165.93 588.342 165.649 588.594 165.411C588.846 165.168 589.138 164.972 589.47 164.823C589.802 164.669 590.159 164.567 590.541 164.516ZM596.182 168.817L596.031 167.671L599.873 167.165L600.024 168.311L596.182 168.817ZM607.674 171.055L602.551 161.533L602.489 161.541C602.537 161.75 602.59 162.006 602.645 162.309C602.701 162.611 602.758 162.943 602.815 163.303C602.873 163.658 602.926 164.021 602.975 164.393L603.917 171.55L602.693 171.711L601.202 160.387L603.154 160.13L607.981 169.076L608.035 169.069L610.435 159.171L612.371 158.917L613.863 170.241L612.561 170.412L611.607 163.162C611.563 162.826 611.523 162.49 611.49 162.153C611.455 161.811 611.426 161.489 611.402 161.188C611.377 160.881 611.358 160.615 611.344 160.391L611.282 160.4L608.751 170.914L607.674 171.055ZM618.898 160.784C619.621 160.689 620.261 160.767 620.82 161.02C621.378 161.272 621.833 161.669 622.182 162.211C622.532 162.749 622.757 163.402 622.858 164.171L622.963 164.969L617.1 165.741C617.247 166.735 617.594 167.462 618.143 167.92C618.692 168.378 619.403 168.55 620.276 168.435C620.813 168.365 621.281 168.253 621.681 168.101C622.082 167.948 622.491 167.747 622.91 167.498L623.059 168.628C622.656 168.876 622.248 169.071 621.836 169.215C621.429 169.358 620.939 169.467 620.366 169.542C619.55 169.65 618.816 169.578 618.163 169.328C617.515 169.072 616.98 168.643 616.56 168.042C616.139 167.441 615.867 166.673 615.744 165.738C615.624 164.824 615.672 164.014 615.889 163.308C616.11 162.596 616.476 162.022 616.986 161.587C617.501 161.152 618.139 160.884 618.898 160.784ZM619.021 161.84C618.334 161.93 617.816 162.227 617.468 162.73C617.119 163.232 616.959 163.892 616.987 164.708L621.48 164.116C621.408 163.611 621.27 163.177 621.064 162.816C620.864 162.448 620.594 162.179 620.257 162.008C619.918 161.832 619.506 161.776 619.021 161.84ZM628.716 168.443C627.642 168.585 626.742 168.33 626.015 167.68C625.294 167.029 624.838 165.98 624.648 164.535C624.455 163.073 624.63 161.929 625.172 161.101C625.714 160.268 626.517 159.781 627.581 159.641C628.03 159.582 628.43 159.59 628.781 159.664C629.133 159.739 629.443 159.861 629.712 160.031C629.981 160.195 630.214 160.393 630.413 160.624L630.506 160.612C630.464 160.454 630.415 160.238 630.357 159.961C630.3 159.685 630.26 159.459 630.236 159.284L629.789 155.884L631.074 155.714L632.662 167.766L631.624 167.903L631.271 166.72L631.217 166.727C631.09 167.001 630.916 167.258 630.695 167.497C630.48 167.736 630.21 167.939 629.885 168.108C629.565 168.271 629.176 168.383 628.716 168.443ZM628.777 167.348C629.686 167.228 630.294 166.886 630.603 166.32C630.912 165.754 631 164.962 630.866 163.945L630.835 163.712C630.693 162.633 630.403 161.828 629.966 161.297C629.533 160.766 628.845 160.562 627.9 160.687C627.109 160.791 626.558 161.173 626.246 161.834C625.933 162.49 625.846 163.342 625.984 164.39C626.121 165.433 626.421 166.213 626.883 166.73C627.35 167.247 627.982 167.453 628.777 167.348ZM635.556 158.749L636.674 167.238L635.388 167.408L634.27 158.918L635.556 158.749ZM634.51 155.656C634.722 155.628 634.912 155.674 635.08 155.794C635.253 155.908 635.358 156.109 635.396 156.398C635.433 156.682 635.384 156.904 635.247 157.064C635.116 157.223 634.944 157.317 634.733 157.345C634.511 157.374 634.316 157.329 634.147 157.209C633.984 157.088 633.884 156.886 633.847 156.602C633.809 156.313 633.853 156.092 633.98 155.939C634.111 155.779 634.288 155.685 634.51 155.656ZM642.821 166.587C642.057 166.688 641.362 166.619 640.737 166.381C640.112 166.142 639.595 165.722 639.184 165.119C638.774 164.517 638.504 163.725 638.375 162.744C638.24 161.716 638.3 160.854 638.555 160.159C638.814 159.458 639.225 158.91 639.788 158.515C640.351 158.121 641.017 157.873 641.786 157.772C642.21 157.716 642.623 157.706 643.027 157.742C643.436 157.772 643.775 157.835 644.045 157.931L643.8 159.059C643.528 158.99 643.216 158.936 642.864 158.898C642.518 158.86 642.197 158.86 641.903 158.899C641.314 158.976 640.841 159.167 640.481 159.472C640.127 159.776 639.885 160.186 639.753 160.703C639.627 161.218 639.611 161.835 639.705 162.553C639.796 163.24 639.966 163.813 640.216 164.274C640.471 164.735 640.801 165.069 641.207 165.279C641.617 165.482 642.104 165.547 642.666 165.473C643.116 165.413 643.515 165.314 643.864 165.173C644.213 165.027 644.526 164.871 644.803 164.703L644.954 165.849C644.689 166.031 644.386 166.184 644.045 166.308C643.709 166.431 643.301 166.524 642.821 166.587ZM649.046 156.832C650.058 156.699 650.839 156.827 651.39 157.217C651.94 157.607 652.281 158.3 652.412 159.296L653.172 165.067L652.235 165.19L651.822 163.968L651.76 163.976C651.563 164.317 651.35 164.611 651.119 164.856C650.888 165.097 650.61 165.294 650.283 165.447C649.961 165.595 649.555 165.701 649.064 165.765C648.548 165.833 648.076 165.803 647.65 165.676C647.228 165.547 646.877 165.315 646.597 164.979C646.321 164.642 646.146 164.192 646.072 163.63C645.961 162.783 646.211 162.088 646.822 161.545C647.433 161.002 648.423 160.62 649.791 160.398L651.247 160.143L651.179 159.624C651.082 158.891 650.857 158.398 650.503 158.145C650.15 157.892 649.686 157.803 649.113 157.879C648.669 157.937 648.254 158.058 647.868 158.24C647.482 158.422 647.12 158.624 646.782 158.848L646.258 157.924C646.615 157.677 647.032 157.452 647.509 157.247C647.986 157.042 648.499 156.904 649.046 156.832ZM651.351 161.051L650.065 161.276C649.011 161.457 648.288 161.728 647.894 162.09C647.501 162.451 647.341 162.911 647.414 163.469C647.478 163.954 647.673 164.294 647.997 164.487C648.322 164.681 648.728 164.746 649.213 164.682C649.967 164.583 650.556 164.292 650.982 163.811C651.407 163.329 651.564 162.67 651.454 161.834L651.351 161.051ZM657.115 164.548L655.821 164.718L654.234 152.666L655.528 152.496L657.115 164.548ZM661.947 159.476C662.06 160.338 662.086 161.191 662.024 162.034C661.966 162.872 661.812 163.68 661.563 164.459C661.319 165.237 660.971 165.968 660.52 166.653L659.304 166.813C659.713 166.092 660.034 165.335 660.266 164.543C660.503 163.75 660.651 162.943 660.711 162.12C660.776 161.292 660.753 160.465 660.645 159.639C660.534 158.797 660.339 157.98 660.062 157.186C659.784 156.393 659.427 155.641 658.992 154.932C658.563 154.221 658.054 153.571 657.467 152.981L658.698 152.819C659.314 153.384 659.841 154.019 660.281 154.723C660.725 155.421 661.084 156.172 661.358 156.976C661.636 157.775 661.833 158.608 661.947 159.476Z" fill="#FEFAF9"/>
<path d="M773.514 127.542C773.683 128.825 774.148 130.051 774.873 131.122C775.598 132.194 776.562 133.083 777.689 133.717C776.765 134.622 776.063 135.729 775.641 136.952C775.218 138.175 775.086 139.479 775.255 140.762C775.505 142.666 776.406 144.426 777.805 145.743C779.204 147.06 781.015 147.853 782.931 147.988L783.388 151.458L780.083 151.893L780.518 155.198L783.823 154.763L784.258 158.068L787.563 157.633L787.128 154.328L790.433 153.893L789.997 150.589L786.693 151.024L786.236 147.553C788.052 146.927 789.595 145.692 790.606 144.058C791.616 142.424 792.03 140.491 791.779 138.587C791.61 137.304 791.145 136.078 790.42 135.007C789.696 133.935 788.731 133.047 787.604 132.412C788.529 131.507 789.23 130.4 789.653 129.177C790.075 127.955 790.207 126.65 790.038 125.368L786.733 125.803C786.907 127.117 786.55 128.447 785.743 129.499C784.936 130.551 783.744 131.239 782.429 131.412C781.114 131.585 779.785 131.229 778.733 130.422C777.68 129.614 776.992 128.422 776.819 127.107M782.864 134.717C784.179 134.544 785.509 134.9 786.561 135.708C787.613 136.515 788.301 137.707 788.474 139.022C788.647 140.336 788.291 141.666 787.484 142.718C786.677 143.77 785.485 144.458 784.17 144.631C782.855 144.804 781.525 144.448 780.473 143.641C779.421 142.834 778.733 141.641 778.56 140.327C778.387 139.012 778.743 137.682 779.55 136.63C780.357 135.578 781.549 134.89 782.864 134.717Z" fill="#FEFAF9"/>
<path d="M819.886 140.059C819.975 140.73 819.882 141.326 819.609 141.845C819.341 142.358 818.923 142.778 818.357 143.105C817.791 143.432 817.102 143.649 816.291 143.755C815.863 143.812 815.455 143.844 815.067 143.853C814.679 143.862 814.321 143.849 813.99 143.814C813.66 143.778 813.366 143.72 813.108 143.638L812.942 142.376C813.35 142.485 813.842 142.572 814.419 142.638C814.994 142.699 815.586 142.69 816.196 142.609C816.764 142.535 817.234 142.397 817.607 142.195C817.979 141.989 818.247 141.73 818.411 141.42C818.579 141.103 818.637 140.744 818.584 140.341C818.533 139.954 818.405 139.642 818.201 139.406C817.996 139.165 817.68 138.965 817.255 138.806C816.834 138.641 816.267 138.482 815.553 138.329C815.05 138.221 814.602 138.091 814.209 137.938C813.815 137.78 813.478 137.588 813.196 137.362C812.914 137.137 812.686 136.862 812.512 136.538C812.343 136.214 812.23 135.832 812.172 135.393C812.093 134.789 812.177 134.253 812.425 133.784C812.678 133.309 813.06 132.923 813.573 132.624C814.089 132.32 814.701 132.121 815.409 132.028C816.013 131.948 816.578 131.932 817.104 131.978C817.636 132.024 818.128 132.114 818.582 132.249L818.32 133.433C817.89 133.317 817.438 133.232 816.963 133.179C816.494 133.125 816.016 133.13 815.531 133.194C815.045 133.258 814.644 133.384 814.328 133.573C814.016 133.756 813.789 133.988 813.647 134.269C813.506 134.55 813.458 134.869 813.505 135.226C813.558 135.623 813.684 135.943 813.884 136.184C814.089 136.425 814.388 136.625 814.782 136.783C815.18 136.936 815.699 137.083 816.337 137.225C817.036 137.38 817.635 137.563 818.136 137.776C818.636 137.983 819.033 138.267 819.328 138.628C819.621 138.983 819.807 139.46 819.886 140.059ZM822.096 130.572L822.921 136.831C822.948 137.038 822.973 137.292 822.997 137.593C823.021 137.889 823.042 138.152 823.062 138.38L823.116 138.373C823.207 138.225 823.338 138.005 823.51 137.715C823.687 137.424 823.837 137.188 823.961 137.009L826.384 133.633L827.895 133.434L824.956 137.509L829.26 141.891L827.711 142.095L824.184 138.469L823.279 139.55L823.684 142.625L822.405 142.793L820.818 130.741L822.096 130.572ZM830.908 133.038L832.026 141.527L830.74 141.696L829.622 133.207L830.908 133.038ZM829.862 129.944C830.074 129.917 830.264 129.962 830.432 130.082C830.604 130.196 830.71 130.398 830.748 130.687C830.785 130.971 830.736 131.193 830.599 131.352C830.468 131.512 830.296 131.605 830.084 131.633C829.862 131.662 829.667 131.617 829.499 131.497C829.336 131.377 829.236 131.175 829.199 130.891C829.161 130.601 829.205 130.38 829.332 130.227C829.463 130.068 829.64 129.974 829.862 129.944ZM837.634 131.995C838.641 131.862 839.435 132.01 840.017 132.437C840.598 132.86 840.96 133.616 841.103 134.706L841.832 140.236L840.561 140.403L839.844 134.958C839.751 134.251 839.519 133.743 839.147 133.434C838.781 133.125 838.265 133.015 837.598 133.102C836.659 133.226 836.033 133.579 835.721 134.161C835.409 134.743 835.319 135.541 835.452 136.553L836.038 140.999L834.752 141.168L833.634 132.679L834.672 132.542L835.027 133.74L835.097 133.731C835.238 133.408 835.435 133.127 835.687 132.889C835.939 132.646 836.231 132.45 836.563 132.301C836.895 132.147 837.252 132.045 837.634 131.995ZM847.304 127.995L850.511 127.573C851.925 127.387 853.017 127.459 853.785 127.789C854.554 128.118 855.005 128.792 855.139 129.809C855.197 130.248 855.164 130.654 855.039 131.028C854.92 131.395 854.715 131.714 854.424 131.983C854.134 132.253 853.76 132.462 853.302 132.612L853.312 132.689C853.818 132.701 854.275 132.786 854.685 132.942C855.094 133.098 855.432 133.348 855.697 133.691C855.963 134.034 856.134 134.493 856.209 135.066C856.301 135.763 856.216 136.373 855.954 136.896C855.697 137.418 855.291 137.842 854.735 138.167C854.178 138.488 853.497 138.701 852.691 138.807L848.795 139.32L847.304 127.995ZM849.26 132.679L851.429 132.393C852.415 132.263 853.075 132.011 853.41 131.636C853.749 131.26 853.877 130.76 853.795 130.135C853.71 129.49 853.422 129.055 852.93 128.831C852.443 128.606 851.707 128.559 850.72 128.688L848.768 128.945L849.26 132.679ZM849.406 133.786L849.964 138.023L852.319 137.713C853.326 137.581 854.012 137.291 854.379 136.843C854.745 136.391 854.884 135.829 854.795 135.157C854.739 134.729 854.595 134.375 854.364 134.095C854.138 133.815 853.802 133.623 853.358 133.518C852.918 133.408 852.347 133.399 851.645 133.492L849.406 133.786ZM860.15 137.825L858.857 137.995L857.27 125.943L858.563 125.773L860.15 137.825ZM864.999 128.393C865.722 128.298 866.363 128.376 866.922 128.628C867.48 128.881 867.934 129.278 868.284 129.82C868.633 130.357 868.859 131.011 868.96 131.78L869.065 132.578L863.201 133.35C863.348 134.344 863.696 135.071 864.245 135.529C864.794 135.987 865.505 136.159 866.377 136.044C866.914 135.973 867.383 135.862 867.783 135.709C868.183 135.557 868.593 135.356 869.012 135.106L869.161 136.237C868.757 136.485 868.35 136.68 867.938 136.824C867.531 136.967 867.041 137.076 866.468 137.151C865.652 137.258 864.918 137.187 864.265 136.937C863.616 136.681 863.082 136.252 862.661 135.651C862.241 135.049 861.969 134.281 861.846 133.347C861.725 132.433 861.774 131.623 861.991 130.916C862.212 130.204 862.578 129.631 863.088 129.196C863.603 128.76 864.24 128.493 864.999 128.393ZM865.123 129.448C864.436 129.539 863.918 129.835 863.569 130.338C863.22 130.841 863.06 131.501 863.089 132.316L867.582 131.725C867.51 131.22 867.371 130.786 867.166 130.424C866.965 130.057 866.696 129.788 866.358 129.617C866.02 129.441 865.608 129.384 865.123 129.448ZM873.816 127.248C874.828 127.115 875.609 127.243 876.16 127.633C876.71 128.023 877.051 128.716 877.182 129.713L877.942 135.483L877.005 135.607L876.592 134.384L876.53 134.393C876.333 134.734 876.12 135.027 875.889 135.273C875.658 135.513 875.38 135.71 875.053 135.864C874.731 136.011 874.325 136.117 873.834 136.182C873.318 136.25 872.846 136.22 872.42 136.092C871.998 135.964 871.647 135.731 871.367 135.395C871.091 135.059 870.916 134.609 870.842 134.046C870.731 133.199 870.981 132.504 871.592 131.962C872.203 131.419 873.193 131.036 874.561 130.814L876.017 130.56L875.949 130.041C875.852 129.307 875.627 128.814 875.273 128.561C874.92 128.309 874.456 128.22 873.883 128.295C873.439 128.354 873.024 128.474 872.638 128.656C872.252 128.838 871.89 129.041 871.552 129.264L871.028 128.34C871.385 128.094 871.802 127.868 872.279 127.663C872.756 127.459 873.269 127.32 873.816 127.248ZM876.121 131.468L874.835 131.692C873.782 131.873 873.058 132.144 872.664 132.506C872.271 132.868 872.111 133.327 872.184 133.885C872.248 134.37 872.443 134.71 872.767 134.904C873.092 135.097 873.498 135.162 873.983 135.098C874.737 134.999 875.326 134.709 875.752 134.227C876.177 133.746 876.334 133.087 876.224 132.25L876.121 131.468ZM884.012 134.842C883.248 134.943 882.553 134.874 881.928 134.636C881.303 134.397 880.785 133.977 880.375 133.374C879.965 132.772 879.695 131.98 879.566 130.999C879.431 129.971 879.49 129.11 879.746 128.414C880.005 127.713 880.416 127.165 880.979 126.77C881.542 126.376 882.208 126.128 882.977 126.027C883.401 125.971 883.814 125.961 884.218 125.997C884.627 126.028 884.966 126.091 885.236 126.186L884.991 127.314C884.719 127.245 884.407 127.191 884.055 127.153C883.709 127.115 883.388 127.115 883.094 127.154C882.505 127.231 882.031 127.422 881.672 127.727C881.318 128.031 881.076 128.441 880.944 128.958C880.818 129.473 880.802 130.09 880.896 130.808C880.986 131.495 881.157 132.068 881.406 132.529C881.661 132.99 881.992 133.324 882.398 133.534C882.808 133.737 883.294 133.802 883.857 133.728C884.307 133.669 884.706 133.569 885.055 133.428C885.404 133.282 885.716 133.126 885.994 132.958L886.145 134.104C885.88 134.286 885.577 134.439 885.236 134.563C884.9 134.686 884.492 134.779 884.012 134.842ZM887.896 121.912L888.37 125.514C888.398 125.72 888.42 125.93 888.438 126.143C888.454 126.351 888.461 126.545 888.459 126.724L888.544 126.712C888.68 126.39 888.869 126.11 889.111 125.873C889.358 125.631 889.647 125.435 889.979 125.286C890.311 125.132 890.671 125.03 891.058 124.979C891.74 124.889 892.322 124.923 892.805 125.08C893.293 125.236 893.681 125.527 893.968 125.951C894.26 126.375 894.454 126.948 894.549 127.671L895.277 133.202L894.007 133.369L893.29 127.924C893.196 127.216 892.964 126.708 892.593 126.4C892.226 126.091 891.71 125.98 891.044 126.068C890.414 126.151 889.926 126.339 889.581 126.631C889.241 126.917 889.019 127.304 888.914 127.79C888.816 128.276 888.81 128.855 888.899 129.526L889.483 133.964L888.197 134.134L886.61 122.081L887.896 121.912ZM898.094 124.195L899.212 132.684L897.926 132.853L896.808 124.364L898.094 124.195ZM897.048 121.102C897.26 121.074 897.45 121.12 897.618 121.239C897.791 121.353 897.896 121.555 897.934 121.844C897.971 122.128 897.922 122.35 897.785 122.51C897.654 122.669 897.482 122.762 897.271 122.79C897.049 122.819 896.854 122.774 896.685 122.654C896.522 122.534 896.422 122.332 896.385 122.048C896.347 121.759 896.391 121.537 896.518 121.384C896.65 121.225 896.826 121.131 897.048 121.102ZM904.82 123.152C905.827 123.019 906.621 123.167 907.203 123.595C907.784 124.017 908.146 124.773 908.29 125.863L909.018 131.393L907.748 131.56L907.031 126.115C906.937 125.408 906.705 124.9 906.333 124.592C905.967 124.283 905.451 124.172 904.785 124.26C903.845 124.383 903.219 124.736 902.907 125.318C902.595 125.901 902.505 126.698 902.639 127.71L903.224 132.156L901.938 132.325L900.82 123.836L901.858 123.699L902.213 124.897L902.283 124.888C902.424 124.565 902.621 124.284 902.873 124.046C903.125 123.803 903.417 123.607 903.749 123.458C904.081 123.304 904.438 123.202 904.82 123.152ZM914.539 134.543C913.424 134.69 912.536 134.594 911.877 134.256C911.218 133.922 910.84 133.381 910.741 132.632C910.671 132.1 910.779 131.624 911.065 131.203C911.356 130.781 911.793 130.468 912.376 130.266C912.14 130.192 911.929 130.062 911.742 129.876C911.559 129.69 911.451 129.463 911.415 129.194C911.375 128.885 911.424 128.602 911.564 128.347C911.708 128.087 911.944 127.825 912.272 127.561C911.804 127.439 911.402 127.181 911.067 126.79C910.736 126.392 910.533 125.906 910.458 125.333C910.378 124.724 910.436 124.188 910.632 123.726C910.828 123.259 911.151 122.881 911.602 122.59C912.052 122.3 912.618 122.11 913.299 122.02C913.449 122 913.6 121.988 913.752 121.984C913.908 121.974 914.058 121.973 914.2 121.98C914.343 121.982 914.467 121.992 914.575 122.01L917.487 121.626L917.596 122.455L916.057 122.855C916.239 123.036 916.4 123.261 916.54 123.532C916.681 123.802 916.774 124.11 916.82 124.456C916.931 125.303 916.733 126.015 916.226 126.591C915.718 127.162 914.963 127.514 913.962 127.646C913.724 127.677 913.479 127.688 913.225 127.68C912.991 127.852 912.817 128.033 912.706 128.221C912.599 128.408 912.56 128.613 912.589 128.835C912.611 129 912.678 129.125 912.789 129.211C912.905 129.295 913.062 129.348 913.259 129.369C913.455 129.386 913.688 129.376 913.956 129.341L915.451 129.144C916.375 129.022 917.108 129.123 917.65 129.445C918.197 129.767 918.519 130.3 918.617 131.044C918.741 131.984 918.453 132.754 917.755 133.356C917.057 133.957 915.985 134.353 914.539 134.543ZM914.445 133.531C915.147 133.439 915.719 133.29 916.159 133.085C916.606 132.885 916.925 132.635 917.117 132.337C917.314 132.043 917.389 131.712 917.341 131.346C917.296 131.005 917.184 130.757 917.006 130.602C916.829 130.452 916.587 130.368 916.28 130.351C915.972 130.328 915.601 130.345 915.168 130.403L913.696 130.596C913.314 130.647 912.989 130.75 912.72 130.906C912.452 131.062 912.256 131.266 912.131 131.519C912.012 131.771 911.975 132.07 912.021 132.416C912.081 132.876 912.321 133.199 912.74 133.386C913.159 133.577 913.727 133.626 914.445 133.531ZM913.885 126.702C914.499 126.622 914.941 126.406 915.21 126.055C915.479 125.705 915.574 125.232 915.496 124.639C915.412 124.003 915.192 123.549 914.836 123.276C914.479 122.997 913.993 122.898 913.378 122.979C912.79 123.056 912.357 123.281 912.081 123.654C911.808 124.021 911.714 124.519 911.797 125.149C911.873 125.727 912.091 126.15 912.452 126.418C912.813 126.686 913.291 126.781 913.885 126.702ZM935.969 116.326L934.432 128.048L933.107 128.223L929.857 120.897C929.761 120.689 929.668 120.48 929.578 120.271C929.492 120.057 929.41 119.855 929.332 119.665C929.254 119.471 929.187 119.301 929.131 119.156C929.08 119.005 929.041 118.892 929.016 118.817C929.016 118.896 929.01 119.012 928.999 119.166C928.993 119.319 928.979 119.497 928.959 119.699C928.943 119.901 928.919 120.116 928.886 120.347C928.859 120.576 928.826 120.809 928.789 121.045L927.608 128.946L926.283 129.121L921.786 118.192L923.157 118.012L925.913 124.875C926.006 125.104 926.094 125.332 926.176 125.557C926.263 125.777 926.341 125.993 926.411 126.204C926.486 126.415 926.555 126.621 926.619 126.823C926.682 127.025 926.742 127.222 926.799 127.414C926.798 127.209 926.804 126.996 926.817 126.773C926.829 126.546 926.843 126.315 926.86 126.082C926.882 125.848 926.906 125.611 926.932 125.371C926.963 125.131 926.997 124.89 927.034 124.649L928.146 117.355L929.501 117.177L932.556 123.977C932.66 124.21 932.759 124.441 932.852 124.671C932.945 124.9 933.03 125.125 933.106 125.347C933.187 125.562 933.259 125.77 933.323 125.972C933.391 126.168 933.452 126.354 933.507 126.531C933.51 126.273 933.518 126.002 933.533 125.716C933.548 125.43 933.569 125.131 933.596 124.817C933.628 124.503 933.664 124.178 933.704 123.842L934.59 116.507L935.969 116.326ZM939.224 118.781L940.341 127.27L939.056 127.44L937.938 118.95L939.224 118.781ZM938.178 115.688C938.39 115.66 938.58 115.706 938.748 115.826C938.92 115.94 939.026 116.141 939.064 116.43C939.101 116.714 939.052 116.936 938.915 117.096C938.784 117.255 938.612 117.349 938.4 117.377C938.178 117.406 937.983 117.361 937.815 117.241C937.652 117.121 937.552 116.918 937.515 116.634C937.476 116.345 937.521 116.124 937.648 115.971C937.779 115.812 937.956 115.717 938.178 115.688ZM945.692 125.652C945.903 125.624 946.118 125.578 946.335 125.512C946.552 125.447 946.727 125.379 946.86 125.309L946.992 126.309C946.851 126.395 946.649 126.48 946.387 126.561C946.129 126.643 945.874 126.7 945.621 126.733C945.172 126.792 944.754 126.769 944.367 126.662C943.979 126.55 943.649 126.32 943.378 125.973C943.111 125.624 942.934 125.117 942.846 124.451L942.183 119.416L940.975 119.575L940.892 118.948L942.042 118.284L942.311 116.373L943.085 116.272L943.344 118.239L945.831 117.912L945.963 118.919L943.477 119.246L944.135 124.242C944.205 124.774 944.379 125.155 944.656 125.387C944.938 125.617 945.284 125.706 945.692 125.652ZM948.421 113.946L948.895 117.548C948.922 117.754 948.945 117.964 948.962 118.177C948.979 118.385 948.986 118.578 948.984 118.757L949.069 118.746C949.205 118.424 949.394 118.144 949.636 117.907C949.883 117.665 950.172 117.469 950.504 117.32C950.836 117.166 951.196 117.064 951.583 117.013C952.264 116.923 952.847 116.957 953.33 117.114C953.818 117.27 954.205 117.561 954.492 117.985C954.785 118.409 954.978 118.982 955.074 119.705L955.802 125.236L954.532 125.403L953.815 119.958C953.721 119.25 953.489 118.742 953.117 118.434C952.751 118.125 952.235 118.014 951.569 118.102C950.939 118.185 950.451 118.373 950.106 118.665C949.766 118.951 949.543 119.338 949.439 119.824C949.34 120.31 949.335 120.889 949.424 121.56L950.008 125.998L948.722 126.167L947.135 114.115L948.421 113.946ZM967.746 123.664L962.623 114.141L962.561 114.149C962.609 114.358 962.661 114.614 962.717 114.917C962.773 115.22 962.829 115.551 962.887 115.911C962.945 116.266 962.998 116.629 963.047 117.001L963.989 124.158L962.765 124.319L961.274 112.995L963.226 112.738L968.053 121.685L968.107 121.678L970.507 111.78L972.443 111.525L973.935 122.849L972.633 123.02L971.679 115.77C971.634 115.435 971.595 115.098 971.561 114.761C971.527 114.419 971.498 114.097 971.474 113.796C971.449 113.489 971.43 113.224 971.416 113L971.354 113.008L968.822 123.522L967.746 123.664ZM978.97 113.392C979.692 113.297 980.333 113.376 980.892 113.628C981.45 113.88 981.904 114.277 982.254 114.82C982.604 115.357 982.829 116.01 982.93 116.78L983.035 117.577L977.172 118.349C977.318 119.344 977.666 120.07 978.215 120.528C978.764 120.987 979.475 121.158 980.347 121.044C980.885 120.973 981.353 120.861 981.753 120.709C982.154 120.556 982.563 120.355 982.982 120.106L983.131 121.237C982.727 121.484 982.32 121.68 981.908 121.823C981.501 121.966 981.011 122.075 980.438 122.151C979.622 122.258 978.888 122.187 978.235 121.936C977.587 121.68 977.052 121.251 976.632 120.65C976.211 120.049 975.939 119.281 975.816 118.346C975.696 117.432 975.744 116.622 975.961 115.916C976.182 115.204 976.548 114.63 977.058 114.196C977.573 113.76 978.21 113.492 978.97 113.392ZM979.093 114.448C978.406 114.538 977.888 114.835 977.539 115.338C977.191 115.841 977.031 116.5 977.059 117.316L981.552 116.725C981.48 116.219 981.341 115.786 981.136 115.424C980.935 115.056 980.666 114.787 980.328 114.616C979.99 114.44 979.578 114.384 979.093 114.448ZM988.466 112.143C988.636 112.12 988.816 112.107 989.004 112.103C989.192 112.094 989.361 112.096 989.509 112.108L989.504 113.322C989.359 113.304 989.201 113.296 989.028 113.298C988.855 113.3 988.693 113.31 988.543 113.33C988.203 113.375 987.889 113.487 987.603 113.667C987.321 113.84 987.083 114.071 986.89 114.359C986.696 114.642 986.559 114.973 986.477 115.351C986.395 115.725 986.383 116.131 986.441 116.57L987.04 121.124L985.747 121.294L984.629 112.805L985.698 112.664L986.043 114.211L986.097 114.204C986.232 113.865 986.405 113.551 986.619 113.26C986.833 112.964 987.092 112.717 987.396 112.52C987.707 112.321 988.063 112.196 988.466 112.143ZM995.658 120.147C994.894 120.248 994.2 120.179 993.575 119.941C992.95 119.703 992.432 119.282 992.022 118.68C991.611 118.077 991.342 117.285 991.212 116.304C991.077 115.276 991.137 114.415 991.392 113.719C991.652 113.018 992.063 112.47 992.625 112.076C993.188 111.681 993.854 111.433 994.624 111.332C995.047 111.276 995.461 111.267 995.865 111.303C996.273 111.333 996.613 111.396 996.883 111.492L996.637 112.619C996.365 112.55 996.054 112.497 995.702 112.459C995.355 112.42 995.035 112.42 994.741 112.459C994.152 112.537 993.678 112.728 993.319 113.032C992.965 113.336 992.722 113.747 992.59 114.263C992.464 114.779 992.448 115.395 992.543 116.113C992.633 116.8 992.803 117.374 993.053 117.835C993.308 118.295 993.638 118.63 994.044 118.839C994.454 119.042 994.941 119.107 995.504 119.033C995.953 118.974 996.352 118.874 996.701 118.734C997.05 118.588 997.363 118.431 997.64 118.263L997.791 119.41C997.526 119.592 997.223 119.744 996.882 119.868C996.547 119.991 996.139 120.084 995.658 120.147ZM1005.74 110.027L1006.85 118.516L1005.8 118.655L1005.46 117.487L1005.39 117.496C1005.25 117.813 1005.06 118.091 1004.8 118.329C1004.55 118.567 1004.26 118.758 1003.92 118.903C1003.59 119.051 1003.22 119.152 1002.83 119.203C1002.16 119.292 1001.58 119.257 1001.1 119.1C1000.62 118.943 1000.23 118.653 999.937 118.229C999.65 117.804 999.459 117.236 999.365 116.523L998.633 110.962L999.934 110.791L1000.65 116.259C1000.75 116.967 1000.98 117.475 1001.34 117.784C1001.71 118.088 1002.22 118.196 1002.88 118.11C1003.51 118.027 1003.99 117.842 1004.33 117.556C1004.68 117.269 1004.9 116.885 1005.01 116.403C1005.11 115.917 1005.12 115.338 1005.03 114.667L1004.44 110.197L1005.74 110.027ZM1012.29 109.007C1012.46 108.984 1012.64 108.971 1012.83 108.967C1013.02 108.958 1013.19 108.96 1013.33 108.972L1013.33 110.186C1013.19 110.168 1013.03 110.16 1012.85 110.162C1012.68 110.164 1012.52 110.174 1012.37 110.194C1012.03 110.239 1011.71 110.351 1011.43 110.531C1011.15 110.704 1010.91 110.935 1010.72 111.223C1010.52 111.506 1010.38 111.837 1010.3 112.215C1010.22 112.589 1010.21 112.995 1010.27 113.434L1010.87 117.988L1009.57 118.158L1008.45 109.669L1009.52 109.529L1009.87 111.075L1009.92 111.068C1010.06 110.73 1010.23 110.415 1010.45 110.124C1010.66 109.828 1010.92 109.581 1011.22 109.384C1011.53 109.185 1011.89 109.06 1012.29 109.007ZM1013.61 108.991L1014.98 108.81L1017.51 113.489C1017.65 113.764 1017.79 114.03 1017.92 114.286C1018.05 114.537 1018.16 114.779 1018.27 115.013C1018.37 115.246 1018.46 115.473 1018.53 115.695L1018.58 115.688C1018.62 115.42 1018.68 115.068 1018.76 114.632C1018.84 114.191 1018.93 113.741 1019.02 113.282L1020.15 108.13L1021.54 107.947L1019.12 118.17C1019 118.717 1018.83 119.202 1018.61 119.624C1018.41 120.045 1018.13 120.383 1017.79 120.639C1017.44 120.9 1017.01 121.065 1016.48 121.134C1016.24 121.166 1016.02 121.179 1015.83 121.172C1015.64 121.171 1015.48 121.161 1015.34 121.142L1015.2 120.112C1015.32 120.123 1015.46 120.128 1015.62 120.128C1015.79 120.127 1015.96 120.115 1016.14 120.092C1016.46 120.049 1016.73 119.951 1016.94 119.797C1017.17 119.647 1017.35 119.444 1017.49 119.189C1017.63 118.935 1017.74 118.639 1017.82 118.302L1018.13 117.048L1013.61 108.991ZM1037.4 108.72C1037.51 109.593 1037.51 110.403 1037.38 111.15C1037.25 111.891 1037 112.549 1036.63 113.124C1036.26 113.692 1035.78 114.158 1035.17 114.522C1034.56 114.885 1033.83 115.123 1032.98 115.236C1032.1 115.351 1031.31 115.313 1030.62 115.12C1029.93 114.927 1029.34 114.601 1028.84 114.141C1028.34 113.681 1027.94 113.107 1027.63 112.418C1027.32 111.728 1027.11 110.946 1026.99 110.074C1026.84 108.917 1026.9 107.877 1027.17 106.954C1027.43 106.031 1027.92 105.276 1028.63 104.689C1029.35 104.101 1030.29 103.73 1031.47 103.575C1032.59 103.428 1033.56 103.544 1034.39 103.924C1035.22 104.303 1035.89 104.903 1036.4 105.724C1036.91 106.539 1037.24 107.538 1037.4 108.72ZM1028.38 109.907C1028.51 110.867 1028.76 111.681 1029.12 112.347C1029.49 113.013 1029.98 113.5 1030.59 113.808C1031.21 114.116 1031.95 114.212 1032.83 114.097C1033.71 113.981 1034.4 113.696 1034.91 113.24C1035.42 112.784 1035.76 112.187 1035.94 111.45C1036.11 110.712 1036.14 109.863 1036.01 108.903C1035.82 107.441 1035.36 106.34 1034.64 105.6C1033.92 104.854 1032.91 104.567 1031.62 104.737C1030.74 104.853 1030.04 105.136 1029.52 105.588C1029.01 106.04 1028.65 106.633 1028.47 107.366C1028.28 108.094 1028.26 108.941 1028.38 109.907ZM1043.2 104.939C1043.37 104.917 1043.55 104.903 1043.74 104.9C1043.92 104.891 1044.09 104.892 1044.24 104.904L1044.23 106.118C1044.09 106.1 1043.93 106.092 1043.76 106.094C1043.59 106.096 1043.42 106.107 1043.27 106.126C1042.93 106.171 1042.62 106.284 1042.33 106.463C1042.05 106.637 1041.81 106.868 1041.62 107.156C1041.43 107.439 1041.29 107.769 1041.21 108.148C1041.13 108.521 1041.11 108.927 1041.17 109.366L1041.77 113.921L1040.48 114.091L1039.36 105.602L1040.43 105.461L1040.77 107.007L1040.83 107C1040.96 106.662 1041.14 106.347 1041.35 106.057C1041.56 105.761 1041.82 105.514 1042.13 105.316C1042.44 105.118 1042.79 104.992 1043.2 104.939ZM1057.28 108.814C1057.36 109.486 1057.27 110.081 1057 110.6C1056.73 111.114 1056.31 111.534 1055.75 111.86C1055.18 112.187 1054.49 112.404 1053.68 112.511C1053.25 112.567 1052.84 112.6 1052.46 112.609C1052.07 112.618 1051.71 112.604 1051.38 112.569C1051.05 112.534 1050.76 112.475 1050.5 112.394L1050.33 111.131C1050.74 111.24 1051.23 111.328 1051.81 111.394C1052.38 111.455 1052.98 111.445 1053.59 111.365C1054.15 111.29 1054.62 111.152 1055 110.951C1055.37 110.744 1055.64 110.485 1055.8 110.175C1055.97 109.859 1056.03 109.499 1055.97 109.096C1055.92 108.709 1055.8 108.397 1055.59 108.162C1055.39 107.921 1055.07 107.721 1054.65 107.561C1054.22 107.396 1053.66 107.237 1052.94 107.084C1052.44 106.977 1051.99 106.847 1051.6 106.693C1051.21 106.535 1050.87 106.343 1050.59 106.118C1050.3 105.892 1050.08 105.617 1049.9 105.294C1049.73 104.969 1049.62 104.587 1049.56 104.148C1049.48 103.544 1049.57 103.008 1049.82 102.539C1050.07 102.065 1050.45 101.678 1050.96 101.38C1051.48 101.075 1052.09 100.876 1052.8 100.783C1053.4 100.704 1053.97 100.687 1054.49 100.733C1055.03 100.779 1055.52 100.869 1055.97 101.004L1055.71 102.189C1055.28 102.072 1054.83 101.987 1054.35 101.934C1053.88 101.88 1053.41 101.885 1052.92 101.949C1052.44 102.013 1052.03 102.139 1051.72 102.328C1051.41 102.511 1051.18 102.743 1051.04 103.024C1050.9 103.306 1050.85 103.625 1050.9 103.981C1050.95 104.378 1051.07 104.698 1051.27 104.94C1051.48 105.181 1051.78 105.38 1052.17 105.538C1052.57 105.691 1053.09 105.838 1053.73 105.98C1054.43 106.135 1055.03 106.319 1055.53 106.531C1056.03 106.739 1056.42 107.022 1056.72 107.383C1057.01 107.738 1057.2 108.216 1057.28 108.814ZM1062.42 110.289C1062.63 110.261 1062.85 110.214 1063.06 110.149C1063.28 110.084 1063.46 110.016 1063.59 109.946L1063.72 110.945C1063.58 111.032 1063.38 111.116 1063.11 111.198C1062.86 111.279 1062.6 111.336 1062.35 111.37C1061.9 111.429 1061.48 111.405 1061.09 111.298C1060.71 111.187 1060.38 110.957 1060.11 110.609C1059.84 110.261 1059.66 109.753 1059.57 109.087L1058.91 104.053L1057.7 104.212L1057.62 103.584L1058.77 102.921L1059.04 101.01L1059.81 100.908L1060.07 102.875L1062.56 102.548L1062.69 103.555L1060.2 103.882L1060.86 108.878C1060.93 109.41 1061.11 109.792 1061.38 110.023C1061.67 110.254 1062.01 110.343 1062.42 110.289ZM1067.58 101.73C1068.3 101.635 1068.94 101.713 1069.5 101.965C1070.06 102.217 1070.52 102.615 1070.87 103.157C1071.21 103.694 1071.44 104.347 1071.54 105.117L1071.65 105.915L1065.78 106.686C1065.93 107.681 1066.28 108.407 1066.83 108.866C1067.37 109.324 1068.09 109.496 1068.96 109.381C1069.5 109.31 1069.96 109.199 1070.36 109.046C1070.76 108.894 1071.17 108.693 1071.59 108.443L1071.74 109.574C1071.34 109.821 1070.93 110.017 1070.52 110.161C1070.11 110.303 1069.62 110.412 1069.05 110.488C1068.23 110.595 1067.5 110.524 1066.85 110.274C1066.2 110.017 1065.66 109.589 1065.24 108.987C1064.82 108.386 1064.55 107.618 1064.43 106.684C1064.31 105.77 1064.35 104.959 1064.57 104.253C1064.79 103.541 1065.16 102.968 1065.67 102.533C1066.18 102.097 1066.82 101.83 1067.58 101.73ZM1067.7 102.785C1067.02 102.875 1066.5 103.172 1066.15 103.675C1065.8 104.178 1065.64 104.837 1065.67 105.653L1070.16 105.062C1070.09 104.556 1069.95 104.123 1069.75 103.761C1069.55 103.394 1069.28 103.124 1068.94 102.953C1068.6 102.777 1068.19 102.721 1067.7 102.785ZM1077.08 100.48C1077.25 100.457 1077.43 100.444 1077.62 100.44C1077.8 100.431 1077.97 100.433 1078.12 100.445L1078.11 101.659C1077.97 101.641 1077.81 101.633 1077.64 101.635C1077.47 101.637 1077.3 101.648 1077.15 101.667C1076.81 101.712 1076.5 101.824 1076.21 102.004C1075.93 102.178 1075.69 102.408 1075.5 102.697C1075.31 102.979 1075.17 103.31 1075.09 103.689C1075.01 104.062 1074.99 104.468 1075.05 104.907L1075.65 109.461L1074.36 109.632L1073.24 101.142L1074.31 101.002L1074.65 102.548L1074.71 102.541C1074.84 102.203 1075.02 101.888 1075.23 101.597C1075.44 101.302 1075.7 101.055 1076.01 100.857C1076.32 100.659 1076.67 100.533 1077.08 100.48ZM1087.61 103.554C1087.7 104.251 1087.69 104.885 1087.58 105.456C1087.47 106.027 1087.27 106.524 1086.98 106.946C1086.69 107.367 1086.32 107.711 1085.86 107.976C1085.4 108.236 1084.87 108.405 1084.26 108.486C1083.69 108.56 1083.16 108.531 1082.66 108.397C1082.16 108.258 1081.72 108.022 1081.32 107.691C1080.93 107.359 1080.6 106.932 1080.34 106.409C1080.08 105.886 1079.91 105.276 1079.81 104.579C1079.69 103.65 1079.75 102.839 1079.98 102.147C1080.2 101.45 1080.59 100.892 1081.13 100.475C1081.67 100.051 1082.35 99.7862 1083.16 99.6795C1083.93 99.5776 1084.63 99.6615 1085.25 99.9314C1085.88 100.201 1086.4 100.642 1086.81 101.256C1087.22 101.863 1087.49 102.629 1087.61 103.554ZM1081.15 104.404C1081.24 105.086 1081.41 105.665 1081.65 106.142C1081.9 106.619 1082.23 106.97 1082.64 107.194C1083.05 107.418 1083.56 107.491 1084.15 107.413C1084.74 107.335 1085.21 107.135 1085.55 106.812C1085.89 106.488 1086.12 106.063 1086.24 105.539C1086.35 105.014 1086.36 104.411 1086.27 103.729C1086.19 103.053 1086.02 102.481 1085.77 102.014C1085.53 101.542 1085.2 101.197 1084.79 100.978C1084.37 100.759 1083.87 100.689 1083.27 100.768C1082.39 100.884 1081.78 101.261 1081.44 101.899C1081.11 102.536 1081.01 103.371 1081.15 104.404ZM1090.56 98.8629L1091.68 107.352L1090.39 107.521L1089.27 99.0321L1090.56 98.8629ZM1089.51 95.7697C1089.73 95.7419 1089.92 95.7878 1090.08 95.9075C1090.26 96.0214 1090.36 96.2229 1090.4 96.5121C1090.44 96.7961 1090.39 97.018 1090.25 97.1778C1090.12 97.3369 1089.95 97.4304 1089.74 97.4583C1089.51 97.4875 1089.32 97.4423 1089.15 97.3226C1088.99 97.2022 1088.89 97 1088.85 96.716C1088.81 96.4268 1088.86 96.2056 1088.98 96.0523C1089.11 95.8931 1089.29 95.799 1089.51 95.7697ZM1097.44 106.751C1096.37 106.892 1095.47 106.637 1094.74 105.987C1094.02 105.336 1093.57 104.288 1093.38 102.842C1093.18 101.38 1093.36 100.236 1093.9 99.408C1094.44 98.575 1095.25 98.0885 1096.31 97.9485C1096.76 97.8893 1097.16 97.8971 1097.51 97.9716C1097.86 98.0462 1098.17 98.1682 1098.44 98.3377C1098.71 98.502 1098.94 98.6997 1099.14 98.931L1099.23 98.9188C1099.19 98.7614 1099.14 98.5447 1099.09 98.2686C1099.03 97.9924 1098.99 97.7666 1098.96 97.591L1098.52 94.1907L1099.8 94.0215L1101.39 106.074L1100.35 106.21L1100 105.027L1099.95 105.035C1099.82 105.309 1099.64 105.565 1099.42 105.804C1099.21 106.043 1098.94 106.247 1098.61 106.415C1098.29 106.578 1097.9 106.69 1097.44 106.751ZM1097.51 105.655C1098.41 105.536 1099.02 105.193 1099.33 104.627C1099.64 104.061 1099.73 103.269 1099.59 102.252L1099.56 102.019C1099.42 100.94 1099.13 100.135 1098.69 99.6045C1098.26 99.0731 1097.57 98.8695 1096.63 98.9939C1095.84 99.0979 1095.29 99.4804 1094.97 100.141C1094.66 100.797 1094.57 101.649 1094.71 102.697C1094.85 103.741 1095.15 104.521 1095.61 105.038C1096.08 105.554 1096.71 105.76 1097.51 105.655ZM1109.3 102.668C1109.37 103.211 1109.3 103.686 1109.07 104.093C1108.85 104.495 1108.5 104.823 1108.02 105.075C1107.54 105.327 1106.96 105.499 1106.26 105.59C1105.67 105.669 1105.15 105.69 1104.7 105.654C1104.25 105.618 1103.86 105.536 1103.51 105.409L1103.35 104.224C1103.72 104.348 1104.15 104.449 1104.65 104.525C1105.15 104.601 1105.65 104.607 1106.15 104.541C1106.89 104.444 1107.4 104.255 1107.7 103.974C1108 103.693 1108.12 103.349 1108.07 102.941C1108.04 102.709 1107.94 102.513 1107.79 102.355C1107.63 102.192 1107.39 102.048 1107.06 101.923C1106.73 101.794 1106.28 101.664 1105.7 101.535C1105.13 101.4 1104.64 101.257 1104.21 101.108C1103.79 100.953 1103.45 100.743 1103.2 100.477C1102.95 100.211 1102.79 99.8427 1102.73 99.3728C1102.64 98.655 1102.85 98.067 1103.38 97.6088C1103.91 97.1447 1104.65 96.8505 1105.6 96.7261C1106.11 96.6588 1106.59 96.6476 1107.05 96.6924C1107.51 96.7314 1107.95 96.8106 1108.36 96.93L1108.06 98.0173C1107.69 97.9138 1107.3 97.8365 1106.89 97.7856C1106.48 97.7346 1106.06 97.7364 1105.65 97.7907C1105.06 97.8689 1104.61 98.0271 1104.32 98.2655C1104.03 98.5032 1103.91 98.7924 1103.95 99.1332C1103.99 99.3966 1104.09 99.604 1104.25 99.7553C1104.43 99.906 1104.68 100.035 1105.03 100.142C1105.37 100.249 1105.83 100.368 1106.38 100.499C1106.94 100.625 1107.43 100.769 1107.84 100.93C1108.26 101.085 1108.59 101.299 1108.83 101.572C1109.09 101.838 1109.24 102.204 1109.3 102.668Z" fill="#FEFAF9"/>
<path d="M1227.87 96.3189C1227.48 96.3704 1227.14 96.285 1226.85 96.0628C1226.56 95.8395 1226.4 95.5389 1226.35 95.1611L1225.51 88.7745L1219.12 89.6151C1218.74 89.6648 1218.41 89.5788 1218.12 89.357C1217.83 89.1352 1217.66 88.8348 1217.61 88.4557L1216.52 80.1739C1216.47 79.7828 1216.55 79.4438 1216.77 79.1568C1217 78.8698 1217.3 78.7013 1217.68 78.6514L1224.06 77.8109L1223.22 71.3929C1223.17 71.0151 1223.25 70.681 1223.47 70.3907C1223.7 70.1004 1224 69.9308 1224.38 69.8821L1232.66 68.792C1233.05 68.7405 1233.39 68.8259 1233.68 69.0481C1233.96 69.2715 1234.13 69.5721 1234.18 69.9499L1235.03 76.3678L1241.44 75.5231C1241.82 75.4732 1242.16 75.5598 1242.45 75.7828C1242.74 76.0059 1242.9 76.3058 1242.95 76.6825L1244.05 84.9644C1244.1 85.3554 1244.01 85.6945 1243.79 85.9815C1243.57 86.2686 1243.27 86.4371 1242.89 86.4868L1236.47 87.3315L1237.31 93.718C1237.36 94.097 1237.27 94.4311 1237.05 94.7205C1236.83 95.0098 1236.53 95.1793 1236.15 95.2289L1227.87 96.3189Z" fill="#FEFAF9"/>
<path d="M1269.84 72.3827C1271.3 72.1903 1272.4 72.3366 1273.15 72.8214C1273.9 73.3004 1274.35 74.0717 1274.49 75.1355C1274.55 75.6157 1274.53 76.0832 1274.43 76.538C1274.33 76.987 1274.12 77.3999 1273.82 77.7766C1273.51 78.1481 1273.08 78.4671 1272.53 78.7336C1271.99 78.9943 1271.3 79.179 1270.48 79.2877L1269.1 79.4692L1269.69 83.9229L1268.37 84.0962L1266.88 72.7721L1269.84 72.3827ZM1269.86 73.5221L1268.34 73.7219L1268.95 78.3383L1270.18 78.1762C1270.91 78.0811 1271.5 77.9244 1271.96 77.7063C1272.42 77.4875 1272.75 77.1891 1272.95 76.8112C1273.15 76.4282 1273.21 75.9474 1273.13 75.3691C1273.03 74.6152 1272.72 74.0865 1272.19 73.7831C1271.66 73.4745 1270.88 73.3875 1269.86 73.5221ZM1279.48 71.1134C1280.41 70.9911 1281.19 71.0063 1281.83 71.1592C1282.47 71.3062 1282.97 71.595 1283.33 72.0254C1283.69 72.4559 1283.92 73.0352 1284.01 73.7633C1284.09 74.3623 1284.05 74.8774 1283.89 75.3088C1283.72 75.7349 1283.48 76.095 1283.16 76.3891C1282.84 76.6832 1282.49 76.9235 1282.11 77.1101L1285.89 81.7902L1284.36 81.992L1280.96 77.6322L1278.61 77.9421L1279.23 82.6669L1277.91 82.8402L1276.42 71.5161L1279.48 71.1134ZM1279.55 72.2622L1277.89 72.4814L1278.46 76.8267L1280.26 76.5902C1281.18 76.4685 1281.84 76.1907 1282.22 75.7566C1282.61 75.3219 1282.75 74.7379 1282.66 74.0047C1282.56 73.2353 1282.25 72.7211 1281.75 72.4621C1281.24 72.2024 1280.51 72.1358 1279.55 72.2622ZM1289.17 69.8381C1290.63 69.6457 1291.74 69.792 1292.48 70.2768C1293.23 70.7558 1293.68 71.5271 1293.82 72.5909C1293.88 73.0711 1293.86 73.5386 1293.76 73.9934C1293.66 74.4424 1293.46 74.8553 1293.15 75.232C1292.84 75.6035 1292.41 75.9225 1291.87 76.189C1291.32 76.4497 1290.64 76.6344 1289.81 76.7431L1288.43 76.9246L1289.02 81.3783L1287.7 81.5516L1286.21 70.2275L1289.17 69.8381ZM1289.19 70.9775L1287.68 71.1773L1288.28 75.7937L1289.52 75.6316C1290.24 75.5365 1290.83 75.3798 1291.29 75.1617C1291.75 74.9429 1292.09 74.6446 1292.28 74.2666C1292.48 73.8836 1292.54 73.4029 1292.46 72.8245C1292.36 72.0706 1292.05 71.5419 1291.52 71.2385C1290.99 70.9299 1290.22 70.8429 1289.19 70.9775ZM1304.84 79.2955L1303.52 79.4699L1302.18 69.3076L1298.62 69.7766L1298.46 68.6147L1306.9 67.5045L1307.05 68.6664L1303.51 69.1333L1304.84 79.2955ZM1309.61 66.4074L1310.08 70.0091C1310.11 70.2156 1310.13 70.4254 1310.15 70.6385C1310.17 70.8464 1310.17 71.0399 1310.17 71.2188L1310.26 71.2076C1310.39 70.885 1310.58 70.6053 1310.82 70.3686C1311.07 70.126 1311.36 69.9304 1311.69 69.7815C1312.02 69.6276 1312.38 69.5251 1312.77 69.4741C1313.45 69.3844 1314.03 69.4181 1314.52 69.5752C1315 69.7315 1315.39 70.022 1315.68 70.4465C1315.97 70.8703 1316.17 71.4437 1316.26 72.1666L1316.99 77.697L1315.72 77.8642L1315 72.419C1314.91 71.7116 1314.68 71.2037 1314.3 70.8954C1313.94 70.5864 1313.42 70.4757 1312.76 70.5634C1312.13 70.6463 1311.64 70.8339 1311.29 71.1263C1310.95 71.4127 1310.73 71.7992 1310.63 72.2857C1310.53 72.7715 1310.52 73.35 1310.61 74.0213L1311.2 78.4596L1309.91 78.6288L1308.32 66.5766L1309.61 66.4074ZM1321.77 68.274C1322.49 68.1789 1323.13 68.2574 1323.69 68.5096C1324.25 68.7618 1324.7 69.159 1325.05 69.7013C1325.4 70.2385 1325.63 70.8918 1325.73 71.6612L1325.83 72.459L1319.97 73.2307C1320.12 74.2253 1320.47 74.9517 1321.01 75.41C1321.56 75.8684 1322.27 76.0401 1323.15 75.9252C1323.68 75.8546 1324.15 75.743 1324.55 75.5905C1324.95 75.438 1325.36 75.237 1325.78 74.9875L1325.93 76.1184C1325.53 76.3658 1325.12 76.5613 1324.71 76.7049C1324.3 76.8477 1323.81 76.9568 1323.24 77.0323C1322.42 77.1396 1321.69 77.0682 1321.03 76.8179C1320.39 76.5618 1319.85 76.1331 1319.43 75.5318C1319.01 74.9305 1318.74 74.1625 1318.61 73.2279C1318.49 72.3139 1318.54 71.5038 1318.76 70.7976C1318.98 70.0855 1319.35 69.5121 1319.86 69.0772C1320.37 68.6416 1321.01 68.3739 1321.77 68.274ZM1321.89 69.3295C1321.2 69.4198 1320.69 69.7165 1320.34 70.2195C1319.99 70.7224 1319.83 71.3817 1319.86 72.1975L1324.35 71.6062C1324.28 71.1008 1324.14 70.6673 1323.94 70.3055C1323.73 69.938 1323.47 69.6687 1323.13 69.4978C1322.79 69.3217 1322.38 69.2656 1321.89 69.3295ZM1331.26 67.0241C1331.44 67.0017 1331.61 66.9886 1331.8 66.9848C1331.99 66.9758 1332.16 66.9773 1332.31 66.9892L1332.3 68.2035C1332.16 68.1857 1332 68.1777 1331.83 68.1794C1331.65 68.1812 1331.49 68.192 1331.34 68.2117C1331 68.2565 1330.69 68.3687 1330.4 68.5482C1330.12 68.7219 1329.88 68.9528 1329.69 69.2409C1329.5 69.5238 1329.36 69.8545 1329.28 70.233C1329.19 70.6063 1329.18 71.0124 1329.24 71.4513L1329.84 76.0057L1328.55 76.176L1327.43 67.6867L1328.5 67.5461L1328.84 69.0923L1328.9 69.0852C1329.03 68.7471 1329.2 68.4326 1329.42 68.1418C1329.63 67.8459 1329.89 67.599 1330.2 67.4013C1330.51 67.2029 1330.86 67.0772 1331.26 67.0241ZM1337.08 66.275C1338.09 66.1418 1338.87 66.2701 1339.42 66.66C1339.97 67.0498 1340.31 67.743 1340.44 68.7397L1341.2 74.5101L1340.26 74.6335L1339.85 73.4113L1339.79 73.4195C1339.59 73.7606 1339.38 74.054 1339.15 74.2997C1338.92 74.5402 1338.64 74.7371 1338.31 74.8904C1337.99 75.0379 1337.58 75.1439 1337.09 75.2084C1336.58 75.2764 1336.11 75.2465 1335.68 75.1188C1335.26 74.9904 1334.91 74.7582 1334.63 74.4221C1334.35 74.0854 1334.18 73.6356 1334.1 73.0728C1333.99 72.2259 1334.24 71.5311 1334.85 70.9884C1335.46 70.4456 1336.45 70.0632 1337.82 69.8411L1339.28 69.5864L1339.21 69.0675C1339.11 68.3342 1338.89 67.8411 1338.53 67.5883C1338.18 67.3354 1337.72 67.2467 1337.14 67.3221C1336.7 67.3806 1336.28 67.5008 1335.9 67.683C1335.51 67.8651 1335.15 68.0677 1334.81 68.2908L1334.29 67.3669C1334.64 67.1204 1335.06 66.8948 1335.54 66.6901C1336.02 66.4854 1336.53 66.3471 1337.08 66.275ZM1339.38 70.4947L1338.09 70.7192C1337.04 70.8998 1336.32 71.171 1335.92 71.5328C1335.53 71.8945 1335.37 72.3542 1335.44 72.9119C1335.51 73.3973 1335.7 73.7368 1336.03 73.9304C1336.35 74.1241 1336.76 74.1889 1337.24 74.1251C1338 74.0258 1338.59 73.7355 1339.01 73.254C1339.44 72.7725 1339.59 72.1135 1339.48 71.277L1339.38 70.4947ZM1346.7 64.9923C1347.76 64.853 1348.65 65.1059 1349.38 65.7511C1350.1 66.3963 1350.56 67.4495 1350.76 68.9109C1350.88 69.8765 1350.85 70.7062 1350.64 71.4001C1350.44 72.094 1350.1 72.6434 1349.61 73.0483C1349.14 73.4526 1348.54 73.7017 1347.83 73.7955C1347.38 73.8546 1346.98 73.8472 1346.62 73.7733C1346.26 73.6994 1345.95 73.5777 1345.68 73.4083C1345.41 73.2388 1345.18 73.0459 1344.99 72.8294L1344.9 72.8416C1344.94 73.041 1344.99 73.2813 1345.05 73.5626C1345.11 73.8432 1345.16 74.0893 1345.19 74.3011L1345.64 77.7866L1344.35 77.9568L1342.73 65.6723L1343.79 65.5326L1344.13 66.765L1344.19 66.7568C1344.32 66.4769 1344.49 66.2154 1344.7 65.9724C1344.91 65.7243 1345.18 65.5158 1345.5 65.3471C1345.83 65.1724 1346.23 65.0542 1346.7 64.9923ZM1346.62 66.1063C1346.03 66.1838 1345.57 66.3599 1345.24 66.6347C1344.91 66.9088 1344.7 67.2839 1344.59 67.7601C1344.49 68.2311 1344.47 68.8081 1344.55 69.491L1344.58 69.7389C1344.68 70.4566 1344.84 71.0532 1345.06 71.5285C1345.28 72.0032 1345.59 72.3458 1345.99 72.5564C1346.39 72.7664 1346.9 72.8309 1347.51 72.75C1348.04 72.6807 1348.46 72.4809 1348.77 72.1507C1349.09 71.8205 1349.29 71.3911 1349.4 70.8626C1349.51 70.3283 1349.52 69.7307 1349.43 69.0697C1349.3 68.0679 1349 67.2986 1348.53 66.7615C1348.06 66.2187 1347.43 66.0003 1346.62 66.1063ZM1351.11 64.5702L1352.49 64.3888L1355.01 69.0683C1355.15 69.3432 1355.29 69.6088 1355.42 69.865C1355.55 70.1162 1355.66 70.3583 1355.77 70.5915C1355.87 70.8247 1355.96 71.0521 1356.03 71.2739L1356.09 71.2668C1356.12 70.9991 1356.18 70.6473 1356.26 70.2113C1356.34 69.7702 1356.43 69.32 1356.53 68.8607L1357.65 63.7088L1359.04 63.5263L1356.63 73.7488C1356.5 74.2962 1356.33 74.7809 1356.12 75.2028C1355.91 75.6241 1355.63 75.9624 1355.29 76.2179C1354.94 76.4786 1354.51 76.6436 1353.98 76.7129C1353.74 76.7448 1353.52 76.7575 1353.33 76.751C1353.14 76.7497 1352.98 76.7398 1352.84 76.7213L1352.7 75.6911C1352.82 75.702 1352.96 75.7072 1353.12 75.7068C1353.29 75.7057 1353.46 75.6936 1353.64 75.6705C1353.96 75.6284 1354.23 75.53 1354.44 75.3755C1354.67 75.2255 1354.85 75.0231 1354.99 74.7683C1355.13 74.5135 1355.24 74.2178 1355.32 73.8814L1355.63 72.6274L1351.11 64.5702Z" fill="#FEFAF9"/>
</svg>
